<?xml version="1.0" standalone="no"?>
<!DOCTYPE svg PUBLIC "-//W3C//DTD SVG 1.1//EN" "http://www.w3.org/Graphics/SVG/1.1/DTD/svg11.dtd" >
<svg xmlns="http://www.w3.org/2000/svg" xmlns:xlink="http://www.w3.org/1999/xlink" version="1.1">
<metadata>
Created by FontForge 20201107 at Fri Mar  1 20:22:47 2024
 By 
Elementary Gothic Bookhand(c) Bill Roach / W.K. Roach. 2012. OFL / SIL 1.1
</metadata>
<defs>
<font id="ElementaryGothicBookhand-Regular" horiz-adv-x="2028" >
  <font-face 
    font-family="Elementary Gothic Bookhand"
    font-weight="400"
    font-stretch="normal"
    units-per-em="2048"
    panose-1="2 0 5 0 0 0 0 0 0 0"
    ascent="1638"
    descent="-410"
    x-height="1494"
    cap-height="2846"
    bbox="-750 -900 4190 3536"
    underline-thickness="300"
    underline-position="-584"
    unicode-range="U+0020-F002"
  />
<missing-glyph horiz-adv-x="2048" 
d="M200 0h1648v2868h-1648v-2868zM300 100v2668h1448v-2668h-1448zM650 2296v-90q54 46 112 80q59 34 138 34q116 0 182 -66t66 -180q0 -151 -164 -434q-162 -282 -162 -436q0 -98 70 -296h64q-48 192 -48 266q0 96 72 198q72 105 198 264q130 163 174 260q46 98 46 196
q0 162 -112 256q-109 94 -296 94q-116 0 -224 -60q-54 -30 -116 -86zM778 668q-22 -25 -22 -44q0 -15 14 -36l122 -142q20 -20 40 -20q14 0 42 28l112 124q20 23 20 44q0 19 -18 40l-112 120q-22 22 -44 22q-17 0 -40 -20z" />
    <glyph glyph-name=".notdef" horiz-adv-x="2048" 
d="M200 0h1648v2868h-1648v-2868zM300 100v2668h1448v-2668h-1448zM650 2296v-90q54 46 112 80q59 34 138 34q116 0 182 -66t66 -180q0 -151 -164 -434q-162 -282 -162 -436q0 -98 70 -296h64q-48 192 -48 266q0 96 72 198q72 105 198 264q130 163 174 260q46 98 46 196
q0 162 -112 256q-109 94 -296 94q-116 0 -224 -60q-54 -30 -116 -86zM778 668q-22 -25 -22 -44q0 -15 14 -36l122 -142q20 -20 40 -20q14 0 42 28l112 124q20 23 20 44q0 19 -18 40l-112 120q-22 22 -44 22q-17 0 -40 -20z" />
    <glyph glyph-name="glyph1" horiz-adv-x="0" 
 />
    <glyph glyph-name="glyph2" horiz-adv-x="1016" 
 />
    <glyph glyph-name="space" unicode=" " horiz-adv-x="1016" 
 />
    <glyph glyph-name="space" unicode="&#xa0;" horiz-adv-x="1016" 
 />
    <glyph glyph-name="exclam" unicode="!" horiz-adv-x="1344" 
d="M718 2946l-102 -10q-150 -168 -150 -604q0 -704 120 -1388l-10 -348v-12l20 -20h102l10 10q220 1362 220 1980q-33 392 -180 392h-30zM646 224q-110 -55 -110 -126q0 -61 120 -106q92 53 92 106q-27 126 -102 126z" />
    <glyph glyph-name="quotedbl" unicode="&#x22;" horiz-adv-x="1344" 
d="M936 3116q-126 -90 -126 -180q34 -139 34 -512v-142q0 -53 58 -80h10q118 0 148 672q-36 242 -124 242zM436 3106q-148 -51 -148 -140q39 -774 114 -774q45 18 90 160q24 471 80 624q-47 130 -136 130z" />
    <glyph glyph-name="numbersign" unicode="#" horiz-adv-x="2672" 
d="M2004 2946q-55 0 -156 -142q-84 -494 -126 -610q0 -126 -564 -126l-42 16v32q0 89 116 642q-24 156 -94 156l-52 -16l-146 -658q0 -202 -158 -202h-324q-82 0 -124 -110v-48q0 -78 250 -78h104l158 16v-62l-74 -518q0 -94 -386 -94q-170 0 -230 -344l32 -32q99 78 344 78
h156v-62l-114 -752l32 -32h52q110 0 218 814q0 94 596 94q0 -184 -94 -736q0 -172 104 -172q38 0 74 48q132 806 176 876l492 -30l32 14v32q-72 282 -252 282h-230l-10 16q55 434 94 548q0 94 470 94q158 0 230 172v16q0 36 -94 94l-344 -16q-188 0 -188 48v62l104 628
q0 62 -32 62zM940 1176q0 158 94 564q0 94 552 94h84q-17 -212 -94 -564q0 -94 -240 -94h-396z" />
    <glyph glyph-name="dollar" unicode="$" horiz-adv-x="2122" 
d="M442 2938h-10q-358 -63 -358 -252v-10l20 -42h10q93 114 236 114h20q0 -53 -70 -114q-226 -377 -226 -664v-42q57 -452 348 -452q100 0 460 168h20l12 -156v-200q0 -719 -22 -1104h-40q-308 248 -308 494v74q0 118 104 314v32q0 20 -52 32l-184 -32q-216 -141 -216 -388
v-32q18 -151 236 -420q361 -274 594 -274h50q211 0 400 84q614 341 614 1082q0 210 -92 474q-185 430 -492 430h-10q-64 0 -316 -84h-12v64l12 284l10 10l122 -10h30q64 0 134 52q264 192 348 494v10q-174 -168 -276 -168l-112 12q-675 220 -984 220zM330 2266
q0 295 236 452h60q52 0 196 -106q82 -41 82 -274v-230q0 -294 -42 -294h-102q-134 0 -338 198q-92 0 -92 254zM1158 1792q136 74 206 74h164q164 -182 164 -536q0 -654 -462 -1146h-30q-52 132 -52 904v284z" />
    <glyph glyph-name="percent" unicode="%" horiz-adv-x="3220" 
d="M2842 2872l-12 -10q-412 -24 -484 -52q-498 -21 -498 -52v-10q148 -103 148 -126v-62q-156 -466 -1106 -1964q-312 -570 -596 -570v-42l224 -22h162l596 -20l38 20l-14 32q-160 30 -160 52v62q0 132 272 582l996 1580q199 421 484 570q0 17 -50 32zM966 2560
q-496 0 -634 -654q0 -192 136 -322q0 -98 436 -176q334 0 484 570q0 154 -24 208q0 266 -398 374zM704 1666q0 760 236 760q120 -39 150 -468q0 -259 -212 -468q-95 0 -174 176zM2420 1304q-56 0 -248 -84q-362 -296 -362 -572l38 -270q153 -384 498 -384q110 29 248 104
q298 370 298 676q-84 530 -472 530zM2172 472q0 460 236 696h12q94 -36 112 -374v-104q0 -381 -274 -572h-38q-48 81 -48 334v20z" />
    <glyph glyph-name="ampersand" unicode="&#x26;" horiz-adv-x="3366" 
d="M1542 2920q-199 0 -274 -66q-296 -130 -296 -434v-32q0 -209 120 -596v-12q-460 0 -714 -488q-58 0 -142 -532q69 -375 252 -552q333 -240 538 -240q307 0 868 468q499 -457 692 -478q138 0 384 120q176 155 176 260v10q-87 260 -176 260l-10 -10q-93 -444 -198 -444
q-117 0 -484 346q-186 129 -186 184v22q264 369 264 598q0 230 -210 314h-22q-196 -151 -196 -238v-12q130 -86 130 -260v-152q0 -66 -54 -162q-40 0 -88 42q-271 271 -494 620q-208 133 -208 748q0 154 88 348q0 183 318 270h318q126 -9 252 -108q110 -68 110 -336h44
q57 195 274 412v10l-22 34l-108 -44h-232q-266 130 -482 130h-232zM576 934q0 290 110 510q137 250 352 250q123 0 198 -120q154 -491 582 -1030v-44l-88 -108q-149 -152 -528 -218q-205 0 -352 110q-123 0 -274 488v162z" />
    <glyph glyph-name="quotesingle" unicode="'" horiz-adv-x="692" 
d="M372 3132l-64 -4q-94 -67 -94 -238q0 -274 76 -548l-6 -138v-4l12 -8h64l6 4q138 543 138 782q-21 154 -114 154h-18z" />
    <glyph glyph-name="parenleft" unicode="(" horiz-adv-x="1516" 
d="M1156 3026q-30 124 -80 124h-32q0 -70 -174 -328q-494 -922 -494 -1548v-82q0 -848 478 -1630q296 -314 444 -314l48 42h16q-588 576 -588 1670q0 790 222 1792z" />
    <glyph glyph-name="parenright" unicode=")" horiz-adv-x="1516" 
d="M540 3158q-48 0 -80 -124l160 -274q222 -1002 222 -1792q0 -1094 -588 -1670h16l48 -42q151 0 444 314q478 777 478 1630v82q0 630 -492 1548q-176 261 -176 328h-32z" />
    <glyph glyph-name="asterisk" unicode="*" horiz-adv-x="2048" 
d="M1034 3182l-46 -40q-74 0 -74 -278v-260l-8 -8q-89 0 -432 244q-56 -31 -56 -80v-8q0 -33 46 -82q252 -107 386 -244q-246 -188 -404 -276q67 -82 92 -82h8l56 8q264 180 312 180h10q0 -440 110 -440q82 0 82 122v228q0 90 28 90h10l312 -122h28q82 43 82 56v16
q-386 220 -404 244l138 98q256 143 256 228l-18 72h-18q-226 -154 -358 -218l-28 8q0 544 -102 544h-8z" />
    <glyph glyph-name="plus" unicode="+" 
d="M956 2348q-118 -6 -118 -50v-12l10 -12q102 0 126 -738l-64 -12h-442q-200 0 -324 160h-18l-10 -12q38 -244 64 -602h18l72 146q0 136 676 136q-30 -1046 -90 -1046l10 -36l244 50l72 -14q54 15 54 38v12l-18 24q-136 51 -136 406v38l10 492q30 36 514 36h72
q71 0 208 -208h8l10 12l-10 406l10 146l-28 38h-8l-28 -62q-66 -148 -560 -148h-188l-10 148v418q36 196 126 196v38l-44 12h-208z" />
    <glyph glyph-name="comma" unicode="," horiz-adv-x="1114" 
d="M594 524q-175 0 -276 -316v-34l146 -158v-194q0 -128 -64 -314q55 -106 80 -106q34 0 34 52q186 259 324 824v54q-117 192 -244 192z" />
    <glyph glyph-name="hyphen" unicode="-" horiz-adv-x="1340" 
d="M1130 1122q-36 -42 -136 -42h-164q-160 0 -326 -20l-262 34h-14q-42 0 -48 -26l18 -186l-6 -40l12 -14h6q48 54 74 54h104l264 14h256q189 -12 240 -34h12l6 20l-6 28v6q0 206 -30 206z" />
    <glyph glyph-name="hyphen" unicode="&#xad;" horiz-adv-x="1340" 
d="M1130 1122q-36 -42 -136 -42h-164q-160 0 -326 -20l-262 34h-14q-42 0 -48 -26l18 -186l-6 -40l12 -14h6q48 54 74 54h104l264 14h256q189 -12 240 -34h12l6 20l-6 28v6q0 206 -30 206z" />
    <glyph glyph-name="period" unicode="." horiz-adv-x="1114" 
d="M576 508h-12q-228 -135 -228 -352q0 -108 180 -156q298 89 298 268q-132 240 -238 240z" />
    <glyph glyph-name="slash" unicode="/" horiz-adv-x="1138" 
d="M1306 2920q-93 -42 -364 -72v-32l54 -82v-40q0 -154 -258 -898q-135 -419 -284 -774q-165 -504 -296 -784q0 -23 -158 -196v-22l112 -20h132q138 0 138 42v10l-46 82q0 41 46 154q504 1377 738 2250q36 185 218 352l-20 30h-12z" />
    <glyph glyph-name="zero" unicode="0" 
d="M1070 2912q-144 0 -268 -62q-638 -367 -638 -1724q0 -583 368 -1002q144 -162 366 -198h22q393 0 670 376q280 581 280 1232v84q0 514 -140 886q-150 408 -616 408h-44zM574 1648q0 492 194 856q120 294 336 294h140q53 0 118 -220q120 -168 120 -1054l-34 -408
q-60 -664 -204 -940q0 -135 -356 -156q-44 19 -44 42q-270 300 -270 1586z" />
    <glyph glyph-name="one" unicode="1" 
d="M844 2938l-24 -22q-204 -360 -380 -414q-320 -51 -320 -74v-12q108 -120 332 -180l270 52h24l14 -32l-14 -1990q0 -118 -232 -234v-10q0 -20 62 -32l112 10q60 0 72 -32l98 22h320l112 20l108 -10l38 10v22l-74 64q-134 0 -134 2108q0 423 38 638q-78 96 -174 96h-248z
" />
    <glyph glyph-name="two" unicode="2" horiz-adv-x="2222" 
d="M972 2872l-304 -74q-272 -130 -272 -332l12 -64q126 -270 304 -270q123 22 158 62q0 61 -44 114l-58 -52q-56 0 -56 64v30q0 156 328 156h192q382 -110 382 -374v-22q0 -167 -282 -698q-336 -556 -506 -752h-12q-256 94 -362 94h-34q-288 0 -360 -416v-32
q45 -302 316 -302q91 0 260 124q162 210 192 210l44 -22q522 -438 812 -438l192 32q282 156 282 260q0 207 -474 366q-56 -6 -56 -32v-20l12 -12q190 -71 190 -198q0 -114 -202 -114q-336 0 -666 396q0 28 316 500q297 384 552 1128q0 129 -32 228q-206 460 -824 460z
M262 244q96 218 224 218h80q84 0 90 -32v-10q-80 -122 -238 -230h-66q-84 0 -90 32v22z" />
    <glyph glyph-name="three" unicode="3" 
d="M712 2912h-142q-422 -157 -422 -346q0 -212 346 -284q81 0 166 94v32l-256 -12q-66 0 -90 42v32q45 210 244 210h218q396 -165 396 -410q0 -371 -294 -452q-410 -51 -410 -94v-32q629 -266 832 -388q320 -299 320 -558q0 -184 -50 -272q-78 -368 -462 -368l-140 10
q-294 0 -488 242q0 136 52 252q140 77 140 94v22l-76 20l-76 -20l-128 20l-78 -10q-154 -48 -154 -200l14 -84q139 -452 1012 -452l128 22q588 315 588 872l-38 126q-96 363 -474 630q-332 133 -332 148q486 327 486 536l-14 116q-135 462 -818 462z" />
    <glyph glyph-name="four" unicode="4" 
d="M1574 2946q-127 -58 -660 -94v-20q98 -74 98 -252l-36 -1042q0 -69 -424 -156h-26q238 646 238 970v124q-114 450 -412 450q-214 0 -262 -292q0 -73 224 -158q26 0 38 64l-26 62q0 82 126 94h100q62 0 74 -168q0 -149 -174 -698q-312 -867 -312 -938q0 -39 62 -64l38 12
q567 426 674 426h12l12 -10q0 -1178 -112 -1178q-224 -12 -224 -52v-22l100 -20l760 10q61 0 74 32q-162 84 -162 458v460l14 438h12l12 10h274l100 -20h26l74 20q0 52 -62 84q-364 56 -450 82l88 1054q48 223 150 292z" />
    <glyph glyph-name="five" unicode="5" 
d="M1050 2872q-848 -9 -848 -42h-14q84 -420 84 -582l-28 -370l-14 -32l14 -30h28q110 71 110 104q210 144 460 180h140l124 -20q278 -203 278 -814q0 -392 -152 -750q-204 -444 -432 -444h-28q-190 0 -250 222v62q0 62 56 106q278 191 278 244q0 73 -362 148h-28
q-236 0 -320 -370q0 -72 56 -190q270 -318 626 -318h56q127 0 292 64q712 336 724 1362q-27 226 -84 328q-212 466 -876 466l-196 -12l-14 54v454l14 74l280 10h138q64 0 210 -116q130 -200 180 -200q42 9 42 64v168l28 138q0 33 -56 42l-84 -10z" />
    <glyph glyph-name="six" unicode="6" 
d="M1368 2936q-540 0 -876 -546q-328 -686 -328 -1232v-146q0 -577 432 -916q133 -136 380 -136l144 10q758 156 758 862l-14 64q-168 578 -600 578h-28q-372 0 -640 -220h-26v42q0 211 38 388q320 1126 786 1126h66q123 0 208 -94v-84l-12 -54q-240 -95 -302 -188v-42
q90 -96 158 -96h38q275 0 314 294l-26 86q-143 304 -470 304zM530 970l14 42q215 326 418 326h78q103 0 262 -106q102 0 210 -420l-14 -210q-145 -548 -444 -548h-40l-78 12q-406 211 -406 904z" />
    <glyph glyph-name="seven" unicode="7" 
d="M1832 2888l-1066 -30q-442 0 -550 -464l12 -72q192 -288 416 -288l110 10q160 50 160 164v20l-12 12l-86 -12q-282 54 -282 310v20q0 45 74 104q136 124 696 124l50 -22q-37 -414 -478 -1070q-636 -858 -636 -1596q-103 -41 -110 -62v-22l12 -10q36 0 36 -20l184 20h294
q246 0 246 42q-208 169 -208 278v82q35 148 134 370l746 1216q174 322 294 782q0 57 -36 114z" />
    <glyph glyph-name="eight" unicode="8" 
d="M1392 2896q-318 0 -672 -282q-278 -344 -278 -640q0 -107 104 -450v-42q-406 -451 -406 -744v-22q0 -107 510 -512q294 -216 626 -252l196 10q350 0 464 420q-65 283 -382 712q-418 439 -418 482v32l12 10q730 682 730 974v42q-140 262 -486 262zM708 2330l12 74
q305 398 544 398h174q208 -68 208 -168v-32q0 -200 -694 -774h-36q-163 211 -208 418v84zM406 758q0 302 278 514q134 -67 268 -272q660 -627 660 -776q-43 -146 -430 -146q-267 0 -498 198q-278 154 -278 482z" />
    <glyph glyph-name="nine" unicode="9" 
d="M1054 2920l-86 -10q-760 -186 -760 -914q0 -339 224 -524q348 -210 522 -210l286 32h38q0 -372 -236 -808q-283 -400 -510 -400h-62q-162 33 -162 168v32q0 119 248 346l-74 64h-12q-239 0 -386 -306l62 -230q210 -168 398 -168h50q562 0 958 756q209 417 286 1144
l-12 52v84l-26 284q-234 608 -746 608zM556 2060q0 124 88 440q224 304 422 304h88l38 -30q106 0 160 -956v-20l-12 -210q0 -165 -260 -222h-224q-300 138 -300 694z" />
    <glyph glyph-name="colon" unicode=":" horiz-adv-x="1114" 
d="M622 332l-48 2h-60q-96 -42 -138 -168q43 -118 138 -202q196 0 256 102v70q10 23 10 54q-27 136 -136 136q-19 -9 -22 6zM646 1992l-48 2h-60q-96 -42 -138 -168q43 -118 138 -202q196 0 256 102v70q10 22 10 54q-27 136 -136 136q-19 -9 -22 6z" />
    <glyph glyph-name="semicolon" unicode=";" horiz-adv-x="1114" 
d="M498 1898q-96 -42 -138 -168q43 -118 138 -202q196 0 256 102v100l-196 168h-60zM474 412q-118 -70 -118 -134q0 -44 236 -286q0 -92 -196 -318v-34h20l58 34q186 135 276 538q-90 200 -236 200h-40z" />
    <glyph glyph-name="semicolon" unicode="&#x37e;" horiz-adv-x="1114" 
d="M498 1898q-96 -42 -138 -168q43 -118 138 -202q196 0 256 102v100l-196 168h-60zM474 412q-118 -70 -118 -134q0 -44 236 -286q0 -92 -196 -318v-34h20l58 34q186 135 276 538q-90 200 -236 200h-40z" />
    <glyph glyph-name="less" unicode="&#x3c;" 
d="M1888 2650l-392 -202q-600 -349 -1398 -1054l40 -50q536 -470 1670 -1116q42 0 94 76v76l-652 380q-322 176 -636 508q0 34 68 102q267 261 636 494q503 296 530 430v116l40 228v12z" />
    <glyph glyph-name="equal" unicode="=" 
d="M1806 1964q-61 -64 -232 -64h-286q-271 0 -562 -32l-456 54h-22q-78 0 -84 -44l32 -288l-10 -64l20 -22h10q83 86 128 86h180l456 20h444q327 -18 414 -52h22l10 32l-10 42v12q0 320 -54 320zM1806 1342q-61 -64 -232 -64h-286q-271 0 -562 -32l-456 54h-22
q-78 0 -84 -44l32 -288l-10 -64l20 -22h10q83 86 128 86h180l456 20h444q327 -18 414 -52h22l10 32l-10 42v12q0 320 -54 320z" />
    <glyph glyph-name="greater" unicode="&#x3e;" 
d="M104 146l392 202q613 358 1398 1054l-40 50q-533 470 -1670 1116q-41 0 -94 -76v-76l652 -380q322 -173 636 -508q0 -34 -68 -102q-267 -258 -636 -494q-500 -293 -530 -430v-116l-40 -228v-12z" />
    <glyph glyph-name="question" unicode="?" horiz-adv-x="1600" 
d="M750 2904h-30q-680 -114 -680 -514q0 -93 182 -142q112 0 316 122l-22 104l-70 -42h-50q-72 0 -72 72v10q0 174 386 246h132l102 -10q242 -78 242 -738q0 -494 -232 -494h-92q-231 73 -356 216h-30q-50 -272 -50 -524v-410l-62 -266l22 -32q374 39 374 82v22
q-132 156 -132 298q18 584 62 584h20q239 -92 314 -92q99 0 204 40q314 158 314 730q0 322 -244 554q-231 184 -548 184zM568 226q-121 0 -162 -154q36 -72 80 -72q86 0 152 144q-9 82 -70 82z" />
    <glyph glyph-name="at" unicode="@" horiz-adv-x="4038" 
d="M2306 3070q-689 0 -1112 -310q-1068 -831 -1068 -1816v-162q0 -163 114 -460q247 -463 670 -648q237 -138 770 -198q1010 0 1624 548q598 646 598 1368v98q-187 818 -528 1046q-492 534 -1068 534zM482 1230q0 766 642 1342q308 232 626 262h114q587 0 1026 -424
q642 -621 642 -1218l-44 -534q-33 -311 -356 -622q-218 -251 -768 -362h-314q-493 0 -856 224q-712 487 -712 1332zM2172 2516l-374 -52q-132 0 -132 -122v-60l8 -54h36q162 144 232 144h16q0 -39 -256 -742q-399 -1116 -498 -1272q-141 -46 -170 -68v-16l18 -30l152 8h514
l28 14l-10 24q-160 42 -160 114l18 120q201 728 284 728l508 14q168 -624 168 -802v-8l-8 -60q0 -17 -116 -100v-6q6 -24 72 -24h168l116 -6l98 6h70v24l-26 30q-117 0 -222 250q-57 270 -160 620q0 51 -152 570q-99 642 -222 756zM1878 1388q205 632 276 674h10
q90 -186 186 -666v-16l-178 -8h-276z" />
    <glyph glyph-name="A" unicode="A" horiz-adv-x="2532" 
d="M1464 2914l-478 -68q-170 0 -170 -158v-80l12 -68h44q207 186 296 186h24q0 -43 -330 -964q-508 -1447 -638 -1654q-187 -62 -216 -88v-20l22 -40l194 10h660l34 20l-12 30q-204 57 -204 146l22 158q257 946 366 946l648 20q216 -810 216 -1044v-10l-12 -80
q0 -21 -148 -128v-8q9 -30 92 -30h216l148 -10l124 10h92v30l-34 38q-148 0 -284 326q-72 343 -206 806q0 62 -192 740q-126 836 -286 984zM1090 1446q260 820 352 878h12q116 -251 238 -868v-18l-228 -10h-352z" />
    <glyph glyph-name="B" unicode="B" horiz-adv-x="2328" 
d="M78 2936h-10q-108 0 -108 -242v-42q0 -75 36 -84h34q137 232 238 232h34l12 -10l14 -200l-14 -946l26 -1480v-10h-26q-139 0 -200 64q-39 146 -72 146h-12q-48 0 -48 -284v-52l156 -52q1266 18 1266 52q842 210 842 746v158q0 147 -130 366q-134 273 -498 442v10
q226 250 226 494q0 385 -368 576q-202 116 -1398 116zM742 2790v10l380 -22q342 -96 342 -608q0 -187 -152 -378q-109 -94 -534 -94q-72 0 -72 230l24 840v10zM742 1560l532 22q318 0 414 -650v-84q-93 -578 -236 -578q0 -108 -722 -126v262z" />
    <glyph glyph-name="C" unicode="C" horiz-adv-x="1968" 
d="M932 2896q-254 -15 -496 -160q-436 -301 -436 -1484v-106q0 -136 84 -424q316 -722 860 -722q190 0 460 42q472 209 472 350l-74 74h-22q-390 -296 -776 -296h-36q-48 0 -192 96q-149 187 -170 382q-110 230 -182 1240q102 892 592 892h108q244 0 508 -234h14
q311 272 314 296v32l-12 12l-316 -64h-180z" />
    <glyph glyph-name="D" unicode="D" horiz-adv-x="2368" 
d="M72 2912q-54 0 -72 -42v-20l10 -10q193 0 318 -448l-10 -332l20 -1300l-10 -52h-134l-10 12l-62 -64v-30q53 -88 186 -188l10 -384v-10q0 -74 286 -74q92 18 92 84l-10 10v136h30q458 -250 676 -250q245 0 452 156q450 543 450 1382q0 708 -368 1154q-280 238 -522 238
q-138 0 -318 -114q-375 -290 -410 -290h-20v312q0 124 -154 124h-430zM646 2278q434 434 654 458h72q175 0 390 -374q142 -385 142 -604v-156q0 -196 -50 -540q-222 -966 -554 -966h-40q-152 0 -420 146q-206 73 -206 322l22 1080v10z" />
    <glyph glyph-name="E" unicode="E" horiz-adv-x="2360" 
d="M538 2904h-172q-366 -156 -366 -268v-32l34 -10q186 124 230 124h34l12 -176l-12 -1344l-34 -568q0 -547 -196 -600q0 -42 276 -42l1158 12l344 -32l58 10q366 0 366 248q-6 146 -58 146h-10q-263 -217 -470 -238h-242q-497 0 -814 20q-34 0 -34 268v62q0 486 34 1076
q0 134 116 134h480l46 -10l80 -114h24l22 146v144q0 54 -34 62q-47 0 -184 -104l-458 10l-58 12q-32 0 -56 826v20l22 22h24l102 -22q567 -402 676 -402l58 10q346 313 436 548v20h-46q-160 -238 -298 -238h-126l-68 12q-572 268 -896 268z" />
    <glyph glyph-name="F" unicode="F" horiz-adv-x="1886" 
d="M316 2962q-272 0 -488 -318l12 -10q330 222 488 222q72 0 72 -306l-24 -700l36 -1016v-296q0 -381 -274 -530v-22l12 -10l142 10h370q358 0 358 54q0 21 -94 42q-110 0 -110 286v190l-22 964l12 286q127 52 264 52h94q130 0 370 -52q40 0 46 64q-18 122 -46 158l-190 -64
h-228q-227 0 -334 64l24 572l24 22h24q444 -360 512 -360q125 0 252 94q440 488 440 562h-24l-72 -22q-190 -274 -344 -274h-132l-202 52q-703 286 -824 286h-144z" />
    <glyph glyph-name="G" unicode="G" horiz-adv-x="2290" 
d="M906 2928q0 -13 -108 -22q-372 0 -644 -302l22 -18h32q300 196 344 196h10l-226 -374q-214 -582 -214 -1042q0 -299 86 -612q24 -198 300 -480q354 -230 644 -230q393 0 686 314h22v-114l22 -448v-94q0 -363 -118 -416l-312 -104v-10l86 -22l76 10q622 144 622 666
l-22 1312l32 354q0 46 -182 52h-86q-415 -62 -654 -62h-22q-62 0 -128 42q-71 143 -98 146h-20l-22 -168l10 -124q0 -110 150 -146l98 20q456 186 610 186h12l-44 -862q0 -98 -128 -178q-139 -218 -408 -218h-214l-140 42q-514 289 -514 1612q0 378 118 626q104 322 138 322
h32q176 0 462 -250q275 -332 398 -332q67 0 202 52q344 347 398 612v22h-22l-10 -10q-157 -302 -332 -302h-66l-64 12q-648 342 -814 342z" />
    <glyph glyph-name="H" unicode="H" horiz-adv-x="2204" 
d="M1924 2838q-306 -54 -306 -102q70 -58 70 -230q0 -776 -50 -776h-828q-50 672 -50 896v50q0 41 58 102v20l-68 10h-128l-118 10q-276 -222 -356 -222h-148v-32l10 -10q0 -68 316 -68h10l10 -858l-10 -656q0 -916 -168 -916q-70 -6 -70 -30v-10q0 -47 316 -62l504 72v10
q-108 96 -108 192l28 866l-20 442l810 22h10l-30 -718v-494q0 -172 70 -482q124 -245 354 -454l30 10v10q-148 344 -148 514v30q0 2304 80 2572l-10 60l10 60q0 25 88 92v20q0 27 -158 60z" />
    <glyph glyph-name="I" unicode="I" horiz-adv-x="936" 
d="M750 2846l-72 -10q-516 0 -516 -80q31 -52 72 -70q96 0 96 -982q-42 -1295 -74 -1542q0 -37 -116 -150q25 -50 52 -50q126 50 232 50h200q47 0 222 -110h10q0 52 -136 200q-64 0 -64 872v310l22 1042v30q0 193 20 260l136 180q-23 41 -84 50z" />
    <glyph glyph-name="J" unicode="J" horiz-adv-x="1034" 
d="M926 2864q-642 0 -642 -70l110 -70q64 0 64 -512v-320q0 -1511 -174 -1886l-284 -582v-30h18q312 303 542 622q151 224 202 642q51 0 72 1996q0 89 120 170z" />
    <glyph glyph-name="K" unicode="K" horiz-adv-x="2246" 
d="M1496 2896q-78 -24 -78 -40l44 -42q166 0 166 -276q0 -365 -242 -646q-570 -378 -682 -378h-12v972q0 310 -32 348v12l-154 -22l-220 32q-286 -9 -286 -62q330 -276 330 -388v-318q0 -1472 -34 -1710q0 -239 -220 -346v-32l22 -18h88l144 -10l154 10h252q57 0 66 30v10
q-20 40 -54 40q-88 55 -88 256v286q24 676 66 676q382 273 572 338h10q518 -263 518 -654v-176q-126 -483 -452 -788q19 -50 78 -50h22q714 18 714 82v10q-189 85 -242 204q188 486 188 686q-33 262 -100 378q-167 314 -560 492l10 40q518 347 518 666q-60 254 -110 254
q0 74 -396 134z" />
    <glyph glyph-name="L" unicode="L" horiz-adv-x="2042" 
d="M644 2864l-48 -30l-546 10l-58 -10v-20q22 -40 48 -40q134 -95 134 -362l-28 -2156q0 -74 -144 -200q0 -54 96 -60l432 -20l1122 30q316 0 316 192v40q0 85 -28 130h-10q-322 -220 -922 -220q-322 0 -460 30q-66 0 -66 1408q36 1128 76 1128q105 58 134 110v20l-18 20
h-30z" />
    <glyph glyph-name="M" unicode="M" horiz-adv-x="2450" 
d="M108 2946q-86 0 -86 -64h6q0 -118 124 -118q102 0 102 -362q-30 -2060 -72 -2060q0 -200 -182 -310v-22l8 -10q109 -12 122 -32l116 10h110l260 -10q66 21 66 42q-31 80 -132 172q-24 0 -42 918v52q0 416 28 982l30 -10q176 -219 442 -716q79 -138 224 -490h8
q99 265 332 768q258 481 450 694h22l-8 -182v-64l16 -938v-544l-16 -214q-57 -230 -130 -438v-10l130 32l298 -12l14 22q0 20 -72 86q-108 0 -108 1494v950l14 32q129 98 268 256v32l-160 42q-132 -33 -174 -84q-171 -64 -536 -716q-348 -682 -376 -694q-426 708 -486 780
q-401 736 -610 736z" />
    <glyph glyph-name="N" unicode="N" horiz-adv-x="2238" 
d="M154 2920q-154 -121 -154 -200l20 -22h8q33 0 68 32h10q232 -71 232 -158l48 -1618q-21 -834 -58 -834l-96 -64v-22l48 -84l78 42l346 -10h164q77 0 98 52q0 20 -106 64q-66 0 -108 1248l10 104v530l10 42v10q30 0 252 -264q378 -556 626 -1216q186 -592 252 -592h20
q62 0 86 64l20 2326q42 138 202 518l-20 20h-328q-126 -6 -126 -42v-10q136 -59 136 -350l-20 -930l30 -772h-20l-10 12q-98 294 -270 644l-734 994q-282 486 -694 486h-20z" />
    <glyph glyph-name="O" unicode="O" horiz-adv-x="2050" 
d="M1136 2880l-118 -40q-460 0 -852 -676q-192 -504 -192 -1032l96 -500q44 -279 298 -520q0 -63 460 -144h52q217 0 416 52q317 163 490 470q182 546 182 878q0 272 -64 592q-93 490 -352 746q-120 126 -416 174zM432 1132q0 761 54 890q120 415 192 490q0 103 362 184h86
q76 0 116 -40q126 0 192 -236q56 0 128 -910l-10 -366q0 -736 -192 -880q-55 -164 -468 -164h-54q-288 72 -288 154q-118 0 -118 786v92z" />
    <glyph glyph-name="P" unicode="P" horiz-adv-x="1968" 
d="M1266 2846q-309 0 -884 -160h-110q-77 0 -238 140h-26l-8 -10l42 -232q54 -120 196 -120h110l26 -40q-18 -1630 -34 -1780q0 -481 -86 -564q-92 -49 -92 -70v-10q6 -19 42 -40q9 31 246 40h288l44 10v20l-10 10q-160 75 -160 212l24 1126l10 30h8q246 -60 382 -60h162
l68 10q331 90 440 220q196 309 196 534v30q0 288 -204 492q-236 212 -432 212zM646 1600l24 914q0 126 468 222h102l84 -10q272 -155 272 -634q0 -132 -42 -252q-81 -382 -602 -382h-34q-61 0 -272 142z" />
    <glyph glyph-name="Q" unicode="Q" horiz-adv-x="2172" 
d="M1196 2856q-559 0 -934 -546q-250 -497 -250 -1008v-122q0 -715 576 -1060q133 -124 434 -124q217 0 490 156h20l12 -72v-124q0 -387 184 -586q0 -94 500 -196q211 0 250 174q0 166 -130 278h-22l-10 -10l10 -124v-40q-21 -144 -130 -144h-66q-242 0 -368 988
q0 55 140 256q206 496 206 802v248q0 399 -250 792q-174 256 -662 462zM468 1314q0 508 98 894q114 494 412 494h164q109 0 282 -134q228 -381 228 -1204v-226q-21 -386 -76 -410h-22q-244 298 -434 298q-203 0 -260 -298v-22q136 -266 292 -266h12l32 30q-86 92 -86 164
q0 87 64 124h22l66 -10q260 -123 260 -248v-10q-129 -318 -326 -318h-282q-150 0 -218 62q-228 408 -228 720v360z" />
    <glyph glyph-name="R" unicode="R" horiz-adv-x="2032" 
d="M-42 2846q-24 0 -48 -174h10q0 -167 134 -234l214 10q54 0 66 -572l-38 -1162v-378q0 -33 -58 -132q-130 -80 -222 -184q0 -19 58 -40l646 20l106 -32q46 0 58 52h-8v20q-227 221 -252 326v908q0 52 202 52h98l144 -62q386 -138 386 -682v-226l-38 -570v-82
q66 -490 444 -490l86 10q242 114 242 256q0 214 -174 214l-68 -20q68 -103 68 -144v-30q0 -127 -96 -154h-38q-66 0 -156 276q-65 777 -106 970q0 463 -260 744v20q196 62 260 102q328 245 328 520v164q0 116 -28 214q-225 470 -608 470q-142 0 -376 -42
q-473 -122 -570 -122h-242q-72 49 -164 184zM662 2602q150 102 436 102h212l58 -12q290 -149 290 -550l-20 -184q-178 -500 -434 -500h-194q-265 0 -366 52l-10 234z" />
    <glyph glyph-name="S" unicode="S" horiz-adv-x="2204" 
d="M2052 2946l-58 -70q0 -248 -376 -320h-58l-94 10q-608 280 -904 280q-211 -30 -280 -60q-182 -106 -236 -250v-10h24q180 180 340 180h118q0 -19 -270 -250q-159 -153 -234 -548l34 -160q154 -280 376 -280l188 40q478 260 692 260h70q280 -131 280 -430v-150l-22 -220
q-83 -375 -188 -498q-162 -360 -586 -360h-24q-114 0 -222 40q-186 0 -270 470q0 210 70 368q0 30 -24 30h-22l-72 -30q-184 -81 -304 -328q63 -267 176 -380q0 -100 574 -280q453 0 762 90q610 269 610 1078l-12 180q-143 550 -610 550h-58q-390 -90 -680 -90h-200
q-94 15 -94 40q-164 0 -164 290l12 138q147 360 400 360h10l82 -20q611 -400 798 -400q176 0 316 170q80 0 164 450q0 110 -34 110z" />
    <glyph glyph-name="T" unicode="T" horiz-adv-x="2238" 
d="M1494 2838q-1422 -24 -1422 -40q-72 0 -72 -352q24 -282 64 -282h18q42 167 108 262q95 262 378 262h198q75 0 134 -142l-18 -684l10 -222v-322l-10 -986q0 -132 -134 -332v-10q0 -40 288 -40h26q370 0 370 40q0 26 -72 122q-73 0 -82 934q18 1170 36 1350q0 252 108 312
h172q241 -42 342 -152q142 -252 206 -322h10l36 30l-10 352l18 182l-62 30l-576 10h-64z" />
    <glyph glyph-name="U" unicode="U" horiz-adv-x="2000" 
d="M2010 2846v-10q-408 0 -408 -50v-10q20 -34 64 -50q86 0 86 -540q0 -1202 -96 -1478q-192 -540 -710 -540h-42l-76 10q-248 85 -248 610q24 987 66 1758l10 70q140 104 140 130q-20 70 -76 70l-32 -10q-688 -30 -688 -60q182 -161 182 -460v-670l-32 -1038q0 -52 76 -180
q274 -430 656 -430h108q595 0 848 710q71 0 86 1938q36 52 216 170q-78 60 -130 60z" />
    <glyph glyph-name="V" unicode="V" horiz-adv-x="2140" 
d="M518 2838l-496 -10v-10h-22v-10l200 -162q221 -870 498 -1582q382 -1064 444 -1064q73 70 306 548q634 1244 634 1774q0 210 -126 384q-45 132 -360 132q-82 0 -96 -40v-20q11 -26 138 -92q180 -150 180 -668q0 -249 -106 -538q-227 -580 -380 -710h-22l-274 720
q-296 976 -296 1136v50l10 50q128 51 128 72q-17 40 -74 40h-286z" />
    <glyph glyph-name="W" unicode="W" horiz-adv-x="2450" 
d="M578 2872l-578 -42v-50q120 -54 144 -102v-62l-82 -2586l52 -20q203 0 720 698q336 513 382 554l536 -760q415 -502 576 -502l52 20v42l-82 2584l10 52q126 60 134 82v40l-578 42q-60 -21 -60 -42l122 -102q64 0 94 -1794v-278l-10 -10h-12q-298 262 -422 492
q-268 370 -268 420q27 249 300 770v30q-24 62 -144 62h-12l-60 -20l10 -154v-30q-34 -178 -176 -442q-78 81 -186 452v30l10 154l-60 20h-12q-120 0 -144 -60v-32q270 -529 300 -748v-10q0 -66 -216 -360q-192 -318 -474 -564l-22 20v268q0 571 52 1620q0 173 164 276
q0 24 -60 42z" />
    <glyph glyph-name="X" unicode="X" horiz-adv-x="2442" 
d="M1034 2798q-868 -12 -868 -30v-40q199 -54 346 -222q239 -377 432 -916q68 -92 68 -122v-20l-112 -200q-262 -589 -610 -1118q0 -25 -290 -222v-10l88 -20l634 80v20q-156 132 -156 192q0 47 102 272q404 806 444 806h22l12 -10q466 -851 466 -1108l-12 -40
q-110 -58 -122 -82v-20l12 -10l500 10h56l300 -10v10h22v30q0 34 -122 52q-215 117 -278 332q-147 180 -300 594q-322 575 -322 674v10l10 60l422 706q104 140 346 282v20l-22 30q-646 -30 -646 -80l34 -40q144 -27 144 -52v-30q-18 -90 -44 -90q-306 -588 -344 -594
q-37 19 -312 604l22 80q0 30 222 192v10z" />
    <glyph glyph-name="Y" unicode="Y" horiz-adv-x="1518" 
d="M1742 2790v-10q-524 -60 -524 -98v-10q0 -26 116 -50q78 -6 78 -70q0 -103 -164 -336q-315 -504 -398 -504h-10q-17 6 -242 396q-340 524 -340 554v30q126 12 126 38t-86 50v-10l-78 -10q-562 -6 -562 -50v-18l10 -10q129 -35 338 -208q329 -529 572 -1040l-10 -208
l-8 -800q0 -356 -98 -406q0 -50 184 -50h20l252 10l48 -20l48 50v10q-154 103 -154 386q29 768 58 1058q203 305 484 812q167 321 378 464v20q0 18 -38 30z" />
    <glyph glyph-name="Z" unicode="Z" horiz-adv-x="2434" 
d="M658 2838l-92 -30q-372 -300 -372 -512v-10q21 -29 352 -156l20 30q-100 121 -100 310q0 90 122 96h120q226 0 374 -58q302 -48 302 -68q-142 -113 -374 -348q-386 -423 -644 -892q-250 -464 -374 -1094v-48q0 -70 90 -88l142 50q140 310 444 310h222q100 -24 100 -50
q64 0 596 -532q345 -378 594 -378l182 48q212 167 212 310q0 239 -212 388h-10q-141 0 -252 -222q43 -146 90 -146l182 96h40q46 -22 52 -48q-66 -136 -202 -136h-102q-50 0 -130 40q-241 54 -758 580q-239 398 -442 398q-114 0 -264 -106h-30v18q144 630 666 1260
q543 457 808 648q338 179 362 234q0 40 -110 58l-102 -20q-456 -146 -666 -146h-232q-56 0 -242 60q-326 154 -362 154z" />
    <glyph glyph-name="bracketleft" unicode="[" horiz-adv-x="1516" 
d="M1210 2768q0 113 -138 128h-310q-148 0 -148 -74l-10 -268v-718q0 -1871 100 -1904l308 -22h98q120 0 120 118v22q-26 64 -70 64l-178 -12q-90 0 -90 610q-20 0 -20 664v224q6 1156 50 1156l258 -10l30 10v12z" />
    <glyph glyph-name="backslash" unicode="\" horiz-adv-x="1138" 
d="M200 2848q-267 30 -364 72h-12l-20 -30q182 -164 218 -352q234 -873 738 -2250q46 -106 46 -154l-46 -82v-10q0 -42 138 -42h132l112 20v22q-158 176 -158 196q-128 279 -296 784q-159 389 -284 774q-258 744 -258 898v40l54 82v32z" />
    <glyph glyph-name="bracketright" unicode="]" horiz-adv-x="1516" 
d="M468 2904q-138 -15 -138 -128v-12l30 -10l258 10q44 0 50 -1156v-224q0 -664 -20 -664q0 -610 -90 -610l-178 12q-41 0 -70 -64v-22q0 -118 120 -118h98l308 22q100 32 100 1904v718l-10 268q0 74 -148 74h-310z" />
    <glyph glyph-name="asciicircum" unicode="^" 
d="M996 2438l-28 -20q-340 -582 -810 -1666q0 -19 54 -40l10 10q296 12 296 48q339 885 550 1216h28l306 -578q241 -583 296 -598h46q45 0 54 30v10q-666 1476 -802 1588z" />
    <glyph glyph-name="underscore" unicode="_" horiz-adv-x="2048" 
d="M0 -200v-120h2048v120h-2048z" />
    <glyph glyph-name="grave" unicode="`" horiz-adv-x="2048" 
d="M180 2838q-151 74 -222 74q-30 0 -78 -102q0 -108 1118 -700h16l16 10v28q-214 134 -850 690z" />
    <glyph glyph-name="a" unicode="a" horiz-adv-x="1564" 
d="M798 1496q-136 0 -136 -180v-126q-666 -600 -666 -1120v-64l234 -32q411 0 802 274h26q50 -12 110 -136l-86 -86v-20l50 -10l48 10h50l296 20v22q-249 198 -334 422q0 50 124 74l172 -10v10q-100 212 -246 328h-12q-60 -210 -124 -210q-80 71 -258 590v128l86 74v10
q0 32 -136 32zM748 830h50q148 -290 148 -348v-12l-12 -42q-334 -316 -530 -316h-38l-24 20v86l12 52q0 76 394 560z" />
    <glyph glyph-name="b" unicode="b" horiz-adv-x="1722" 
d="M116 2888q-116 -24 -116 -42v-10l64 -72q66 0 66 -2394q0 -152 -78 -374q10 -32 102 -32h350l154 20v22q-78 78 -78 114v10h26q318 -124 736 -124q185 0 388 176v10l-26 22h-26l-194 -42h-38v20q154 308 154 490v72q-144 614 -592 614h-104q-117 0 -336 -144h-38l-14 332
v84l40 1102l102 104v10l-296 22h-116zM542 1046q0 136 206 136q402 0 402 -364v-178q0 -475 -208 -540h-64q-336 168 -336 270v676z" />
    <glyph glyph-name="c" unicode="c" horiz-adv-x="1422" 
d="M1334 1494l-836 -54q-498 -177 -498 -714v-206l14 -98q223 -422 646 -422h160q102 0 162 22q410 120 410 238h-14q-192 -108 -426 -108h-72q-79 0 -250 64q-162 93 -162 466q0 550 324 682q178 0 190 -162h30q366 240 366 270z" />
    <glyph glyph-name="d" unicode="d" horiz-adv-x="1612" 
d="M1064 2842q-91 0 -138 -62v-20q0 -13 92 -62l-46 -1384v-10h-10q-161 122 -286 122q-122 0 -242 -30q-389 -117 -434 -790l12 -154q151 -410 548 -410h34q103 0 378 112h12v-10l-12 -52q-114 -54 -114 -70q10 -32 92 -32h298l194 -10q0 30 22 30h58l12 -10l10 10
q-15 44 -56 62q-92 49 -92 288v154l12 954l-12 276l46 462q0 444 114 594q-42 42 -184 42h-308zM354 822l12 102q111 308 366 308l172 -32q114 0 114 -554l-12 -246q0 -184 -286 -256h-44q-322 0 -322 554v124z" />
    <glyph glyph-name="e" unicode="e" horiz-adv-x="1534" 
d="M1450 1494q-62 -20 -278 -32l-528 10q-158 -18 -204 -44q-440 -175 -440 -740v-56q0 -90 102 -348q151 -284 674 -284q425 0 630 284l-74 44q-314 -208 -482 -208h-74q-44 0 -190 76q-102 72 -102 350v108q0 28 88 34h58q107 0 220 -34l28 34v76q0 82 -44 152
q-192 -76 -262 -76h-44l-60 44v76q105 424 338 424h58q137 0 308 -174q322 200 322 240v34z" />
    <glyph glyph-name="f" unicode="f" horiz-adv-x="1068" 
d="M484 2842q-145 -115 -366 -632q154 -554 154 -1252v-296l-48 -264q-64 -285 -224 -368q0 -15 58 -30l366 10h142q92 0 200 30v42l-58 70q-64 0 -94 1152l164 40h118l70 -40h12l24 20v164l-24 122h-12q-151 -112 -330 -112q-58 0 -94 498v224q0 137 82 204h24l272 -194h24
q180 37 400 358v50h-12q-244 -172 -354 -172h-34l-106 30q-242 121 -320 346h-34z" />
    <glyph glyph-name="g" unicode="g" horiz-adv-x="1454" 
d="M1146 1510l-206 -22v-20q46 -52 46 -118v-96h-34q-184 160 -354 160l-78 -10q-514 -132 -514 -684v-32l12 -138q156 -576 580 -576q269 0 446 204h22l12 -54v-342q0 -240 -138 -426l-432 86q-165 0 -262 -118v-10q117 -9 364 -214l12 10q752 177 752 544v320l-102 1376
l68 106v22q0 26 -68 32h-126zM360 668l22 256q87 330 308 330h92q90 0 204 -96q0 -249 68 -842v-10q0 -72 -296 -150h-114q-233 0 -284 394v118z" />
    <glyph glyph-name="h" unicode="h" horiz-adv-x="1250" 
d="M226 2834q-226 0 -226 -92l76 -104l106 -2558l-64 -72q6 -21 54 -42l128 20h226q80 0 86 32l-64 62q-54 0 -54 1072v42h54l64 -10q322 -227 322 -588l-76 -548q0 -92 150 -92h66q82 0 106 52v62q-6 30 -86 30h-52v42q160 388 160 608v186q-72 444 -364 444
q-93 0 -344 -62q-22 97 -22 248v154q0 372 54 876q0 156 172 156v10q0 30 -226 72h-246z" />
    <glyph glyph-name="i" unicode="i" horiz-adv-x="800" 
d="M448 1998q-99 0 -162 -150q66 -138 162 -138q92 0 138 170q-65 118 -138 118zM286 1422q-136 0 -136 -34l74 -84l-12 -310v-856q0 -40 -62 -96v-20q157 -22 410 -22h112l26 22l-64 52q-62 0 -62 386v426q0 470 76 470q74 0 74 22q0 32 -174 44h-262z" />
    <glyph glyph-name="j" unicode="j" horiz-adv-x="796" 
d="M426 1950q-104 0 -146 -140v-30q6 -28 114 -70q136 77 136 130q0 68 -104 110zM550 1460h-10l-10 -10l-208 -10q-176 0 -176 -60q53 0 62 -1098v-350q-42 -450 -208 -450h-52q-68 0 -178 110h-30q-21 -3 -42 -50v-30q145 -260 344 -260q108 25 186 100q364 504 364 720
l-30 598l10 420q0 256 114 310q0 25 -136 60z" />
    <glyph glyph-name="k" unicode="k" horiz-adv-x="1422" 
d="M68 2882l-22 -22q112 -203 112 -288v-362l-56 -1814v-278q0 -38 -102 -128q0 -24 148 -42q430 18 430 54q-114 60 -114 192v490q0 81 284 160l136 -86q182 -188 182 -340v-108q0 -116 -92 -288q0 -42 68 -42q318 0 318 54l-34 32h-80l-56 10q102 264 102 330
q0 266 -294 566q226 232 226 416q0 96 -420 96q-44 0 -68 -42v-10l204 -86v-44q0 -231 -430 -404h-34l-12 10l58 1856l68 64q0 32 -126 32h-68q-212 0 -328 22z" />
    <glyph glyph-name="l" unicode="l" horiz-adv-x="722" 
d="M430 2842l-430 -52v-32q100 0 100 -1036v-650l22 -586v-136q0 -279 -78 -408l34 -10q0 14 88 32l210 -12l230 32h12q0 46 -56 64q-110 0 -110 2480v74q0 68 66 146v32q-44 62 -88 62z" />
    <glyph glyph-name="m" unicode="m" horiz-adv-x="2148" 
d="M856 1494h-10q-240 0 -414 -198l-36 30q-42 116 -268 116h-64l-64 -10v-32q166 -86 166 -522v-262l8 -418q-30 -75 -110 -146q173 -32 452 -32l26 12l-72 94v512q0 524 36 584q47 136 414 136q110 -68 110 -314q0 -477 -202 -982q0 -42 82 -42q506 0 506 54v10
q-143 66 -192 166v12q74 423 74 512v270q0 102 -46 252v10q0 43 164 52h112q164 -125 164 -450q0 -393 -156 -834q30 -64 130 -64h100l46 -10l28 10l10 10q266 72 266 94v12l-10 10q-192 96 -192 166q64 358 64 628q0 166 -110 324q-205 220 -442 220q-141 0 -220 -64h-38
q-126 84 -312 84z" />
    <glyph glyph-name="n" unicode="n" horiz-adv-x="1644" 
d="M1034 1518q-215 0 -560 -124h-16l-348 80q-141 -43 -228 -124v-12q0 -42 288 -78q70 0 76 -540l-16 -202v-294q0 -94 -226 -180v-10q12 -34 90 -34h106l546 22v22q-136 54 -136 350l16 798q30 168 212 168h60q243 0 288 -236v-134q0 -310 -258 -946q0 -44 274 -44h318
l76 12q0 38 -46 78q-164 65 -182 90v22q198 510 198 754v34l-16 146q0 274 -516 382z" />
    <glyph glyph-name="o" unicode="o" horiz-adv-x="1526" 
d="M624 1510q-102 0 -194 -52q-430 -271 -430 -744q0 -80 108 -332q271 -382 644 -382q614 0 710 724v52q0 403 -300 640q-136 51 -464 94h-74zM366 848q0 296 74 382q72 176 280 176h76q344 -162 344 -486v-330q-96 -476 -290 -476h-44q-180 0 -246 42q-194 118 -194 486
v206z" />
    <glyph glyph-name="p" unicode="p" horiz-adv-x="1486" 
d="M412 1556q-366 -228 -468 -228v-12l82 -52q142 0 142 -124l-20 -978q0 -623 -142 -688v-10h40q102 24 102 42q143 0 254 186q52 0 82 750q-25 0 -52 532v82q192 312 346 312h72q142 0 184 -582v-136q0 -270 -204 -270h-132q-64 0 -184 84l-20 -22v-20q300 -240 528 -240
q66 6 144 74q264 270 264 540v52q0 183 -30 270q-138 428 -448 428q-200 0 -500 -312h-20l-10 52v52l10 166z" />
    <glyph glyph-name="q" unicode="q" horiz-adv-x="1770" 
d="M1158 1652q-39 0 -78 -210h-22q-205 90 -446 144q-62 0 -212 -78q-300 -282 -300 -586v-22l12 -222q174 -552 512 -552q60 0 390 144h34l10 -12q37 -307 68 -376q272 -320 578 -320q34 0 34 22l-66 66q-212 118 -212 322v518l10 720l12 10q219 95 256 144v22
q0 38 -134 44q-274 48 -424 222h-22zM512 690v122q36 606 190 630h88q174 0 290 -178v-32l-22 -786q-142 -154 -244 -154h-134q-168 144 -168 398z" />
    <glyph glyph-name="r" unicode="r" horiz-adv-x="1076" 
d="M166 1502h-126l-10 -10l58 -164v-928q0 -236 -88 -424v-12l10 -10l118 32h126q226 0 226 34v10q-68 121 -68 240v76l-10 262l58 328q251 358 422 358h106l10 -10l30 10v22l-10 12q-184 107 -216 164h-8l-314 -296h-40l-20 22v56q0 54 80 196l-20 22z" />
    <glyph glyph-name="s" unicode="s" horiz-adv-x="1162" 
d="M462 1572q-377 0 -452 -406q0 -80 84 -224q12 -79 356 -214q298 -113 298 -504l-132 -32h-70q-159 32 -226 96q-24 236 -84 236h-12l-428 -406v-12l12 -10l250 64h36q380 -160 464 -160q101 0 248 42q262 98 262 332v44q0 113 -36 224q-114 266 -452 266q-247 0 -344 236
v32q15 40 108 64q101 0 332 -52q440 102 440 234q0 150 -238 150v-22l84 -74v-32l-36 -32h-72q-341 160 -392 160z" />
    <glyph glyph-name="t" unicode="t" horiz-adv-x="934" 
d="M174 2014q-116 0 -174 -58q0 -14 34 -14q50 0 50 -144v-72q0 -274 -60 -1180v-6q0 -143 118 -282q132 -258 432 -258h32q242 48 242 108q0 22 -16 22h-8l-84 -58h-50q-111 0 -224 58q-100 82 -100 502v232l8 244q0 158 74 158h92q76 0 250 -58h8l8 22l-8 238v6h-24
q0 -78 -292 -78h-74l-8 86v294q0 156 108 210v6q0 22 -92 22h-242z" />
    <glyph glyph-name="u" unicode="u" horiz-adv-x="1352" 
d="M22 1510l-22 -22q78 -66 78 -138v-728l24 -226q144 -396 508 -396h10q186 0 338 128q203 -118 316 -118l46 12v10q-24 42 -68 42q-136 79 -136 548v10l12 524q0 215 146 300q0 38 -146 44l-236 -32v-22q90 -87 90 -440v-514l-12 -138q-210 -246 -304 -246
q-204 0 -204 438v428l12 246q0 166 136 248v20l-46 12l-124 -12h-112z" />
    <glyph glyph-name="v" unicode="v" horiz-adv-x="1414" 
d="M1250 1526q-280 -30 -280 -74v-20q270 -69 270 -232v-126q0 -94 -22 -138q-160 -485 -344 -694h-12q-101 113 -396 916v52q0 108 172 232v20l-334 42q-230 0 -398 -114q0 -21 96 -42q211 -161 506 -1138q0 -210 268 -210h12q98 0 140 42q440 691 440 1042v94
q0 209 -118 348z" />
    <glyph glyph-name="w" unicode="w" horiz-adv-x="2196" 
d="M308 1534q-76 -42 -308 -96v-32l10 -12q194 -96 194 -172q-64 -375 -64 -642q0 -211 176 -408q216 -150 382 -150q142 0 224 64h36q0 -44 288 -86h38q247 0 418 204l38 -32q42 -118 270 -118h64l66 10v32q-168 90 -168 536v248l-8 450q51 116 110 140q0 36 -456 42
l-26 -10l74 -96v-504q0 -377 -20 -548q0 -214 -436 -214q-112 73 -112 322q0 486 204 1008q0 42 -64 42q-530 0 -530 -54v-10q148 -65 194 -172v-10q-74 -453 -74 -526v-278q0 -92 46 -258v-10q0 -42 -166 -54h-112q-168 132 -168 460q0 402 158 858q-27 66 -130 66h-102z
" />
    <glyph glyph-name="x" unicode="x" horiz-adv-x="1462" 
d="M280 1542l-72 -10q-160 0 -160 -306v-44q0 -49 38 -62h12l12 10q128 212 206 212h26l36 -22q194 -127 268 -412v-20l-24 -138q-197 -428 -402 -560h-38l26 138l-26 20q-73 -47 -182 -274v-22q0 -37 170 -52q230 0 402 286q164 377 184 380h12q255 -666 500 -666
q146 33 146 84q-70 147 -182 296l-330 708v52q48 190 208 190h84l122 -30l50 10v32q-166 136 -282 136h-194q-15 -115 -98 -210h-24q-325 274 -488 274z" />
    <glyph glyph-name="y" unicode="y" horiz-adv-x="1502" 
d="M322 1494q-344 -6 -344 -54v-10l24 -22h110q94 0 100 -32v-22l-100 -528l26 -206q133 -410 528 -410l294 22l24 -22v-86l-24 -194q-190 -322 -356 -322h-122l-86 64q-36 184 -74 184q-32 0 -50 -76l24 -130q108 -280 406 -280h134q86 0 136 22q332 173 332 410v10
l-38 528q0 555 38 1024q0 86 134 86v34l-62 10q-564 -12 -564 -76v-10q50 0 50 -22q134 0 134 -970v-22q-52 -76 -172 -76l-134 34q-196 118 -196 452q0 329 134 646l-12 34z" />
    <glyph glyph-name="z" unicode="z" horiz-adv-x="1266" 
d="M90 1596l-20 -22v-328q0 -56 30 -68q155 272 420 272h40q158 0 158 -34q-36 -123 -458 -926l-260 -474h10l10 -12h10l140 46h150l120 -12l488 -192l60 12q110 155 110 326q0 59 -30 68q-85 -136 -240 -136l-130 12l-70 -12l-178 46v22q180 525 768 1344v22q-3 26 -50 46
l-160 -22l-200 10l-618 -34z" />
    <glyph glyph-name="braceleft" unicode="{" 
d="M1330 3196l-28 26h-246q-242 0 -296 -422q0 -135 178 -1028v-54q0 -101 -158 -316v-26q158 -191 158 -344l-118 -922q0 -495 254 -568q171 -66 256 -66l40 40v26q0 25 -168 118q-78 93 -78 264q0 168 50 568v198q0 274 -218 632l-68 80v12q296 451 296 686l-110 608v78
q24 330 158 330h10l68 -26v14z" />
    <glyph glyph-name="bar" unicode="|" 
d="M854 3154v-3990h320v3990h-320z" />
    <glyph glyph-name="braceright" unicode="}" 
d="M730 3222l-28 -26l20 -92v-14l68 26h10q134 0 158 -330v-78l-110 -608q0 -230 296 -686v-12l-68 -80q-218 -363 -218 -632v-198q50 -376 50 -568q0 -171 -78 -264q-168 -93 -168 -118v-26l40 -40q88 0 256 66q254 72 254 568l-118 922q0 150 158 344v26
q-158 219 -158 316v54q178 878 178 1028q-54 422 -296 422h-246z" />
    <glyph glyph-name="asciitilde" unicode="~" 
d="M1816 1892q-28 0 -28 -90q-66 -352 -244 -352l-72 8q-808 368 -898 368q-213 0 -344 -220l-82 -392l46 -32q36 0 36 56q152 352 398 352h92q88 0 280 -132q379 -334 490 -334q61 15 144 82q218 346 218 596z" />
    <glyph glyph-name="exclamdown" unicode="&#xa1;" horiz-adv-x="1344" 
d="M616 2l102 -10h30q147 0 180 392q0 621 -220 1980l-10 10h-102l-20 -20v-12l10 -348q-120 -684 -120 -1388q0 -436 150 -604zM536 2840q0 -71 110 -126q75 0 102 126q0 53 -92 106q-120 -42 -120 -106z" />
    <glyph glyph-name="cent" unicode="&#xa2;" horiz-adv-x="2278" 
d="M1726 2978q-258 -39 -258 -106q0 -220 -246 -736q0 -148 -248 -148q-640 -252 -640 -758q0 -301 394 -490q-158 -568 -270 -788v-10q0 -17 60 -32q184 33 222 64q0 372 186 756q267 0 604 170q542 362 542 458l-12 64h-24q-69 0 -260 -170q-491 -355 -788 -394h-14v22
q0 72 74 340q195 608 236 608h24q66 -24 160 -160q52 0 124 202v10h-14l-98 -74q-56 0 -160 128v42l62 160q219 671 406 768v20zM754 1146q0 125 24 170q132 522 308 522h12q0 -87 -136 -394q-126 -432 -172 -458q-36 0 -36 118v42z" />
    <glyph glyph-name="sterling" unicode="&#xa3;" 
d="M430 2888v-10q-258 -48 -258 -300q0 -129 198 -288q237 -117 264 -156q162 -405 162 -568v-10q-179 -17 -264 -50l-60 60h-18q-110 -125 -110 -196v-20l16 -20h18l120 52h316q61 0 214 -640q146 -307 146 -352v-10q-506 -238 -660 -238h-120q-94 0 -94 84v20l10 10
q256 57 256 82l-34 32q-462 -18 -462 -62q126 -330 368 -330h60q145 0 316 52q358 206 394 206h34q136 -151 358 -310q157 54 172 82q129 0 162 310q0 251 -282 290q-50 0 -222 -104h-18l-42 52q-196 663 -196 794v32h290q41 0 76 -62h10q81 0 180 268l-36 30h-8l-8 -10
q-109 -82 -444 -82h-120l-120 516v40l8 12q456 0 710 278q143 81 248 392q-17 52 -60 52l-394 20l-34 -30v-10q248 -115 248 -186l-8 -62q-243 -330 -650 -330h-86l-42 10q-132 424 -240 526q0 68 -264 134zM352 2558q15 124 60 124q160 -212 172 -320v-42l-10 -10
q-222 84 -222 228v20zM1472 360q24 64 222 82h44q102 -24 102 -154q0 -156 -76 -156h-10q-137 0 -282 206v22z" />
    <glyph glyph-name="currency" unicode="&#xa4;" 
d="M400 2306q-221 -96 -236 -128v-50q272 -143 272 -268v-10q-178 -157 -178 -346q30 -192 72 -228q0 -83 212 -316l-10 -60q-178 -220 -178 -248q0 -65 178 -128l46 20q104 276 202 356l272 -40l320 90h48l34 -20q223 -356 284 -356q85 0 214 98v20q-258 258 -332 406v20
q130 177 130 336q0 183 -176 466v10l82 80q130 0 130 108q-179 158 -248 158l-60 -40q-75 -201 -142 -256q-246 78 -378 78l-272 -30q-54 0 -84 30q-149 248 -202 248zM720 1682q12 130 48 130h36q130 0 296 -80q224 -33 224 -248v-128q0 -207 -178 -308h-94
q-332 235 -332 516v118z" />
    <glyph glyph-name="yen" unicode="&#xa5;" horiz-adv-x="2524" 
d="M748 2462h-320q-310 0 -310 -62l228 -204q472 -442 702 -778q72 -42 72 -290l-52 -10h-164q-308 0 -424 -212q0 -64 30 -70h12q400 176 526 176h42l20 -18v-362h-290l-62 44h-10q-268 -184 -268 -264l42 -36h10l40 8q161 116 466 116h72v-256q0 -209 -104 -248v-8
q0 -24 332 -54h72q244 9 268 54v26q-62 22 -62 34q-114 0 -114 452v8h186l74 -52h10q39 23 268 308v28l-10 8h-10q-193 -108 -506 -168l-22 18v328q0 20 62 26h196l146 -18h30l186 204v16l-30 28h-22q-147 -98 -516 -98h-30q-23 0 -32 80q0 117 362 654q225 367 362 432
l196 106v28l-124 18h-280l-196 -18v-36q131 -47 186 -106q0 -64 -124 -220q-223 -381 -424 -594q-76 0 -434 548q-206 248 -226 310v26q144 54 144 72v8z" />
    <glyph glyph-name="brokenbar" unicode="&#xa6;" 
d="M854 742v-1578h320v1578h-320zM854 3156v-1578h320v1578h-320z" />
    <glyph glyph-name="section" unicode="&#xa7;" 
d="M1290 2882q-114 0 -178 -26q-454 -186 -454 -460q0 -189 276 -618v-14q-78 -176 -488 -526q-178 -72 -178 -132q33 -120 162 -276q280 -310 358 -472q470 -545 470 -776q-24 -132 -226 -132h-98q-65 26 -98 78v158l-32 26h-16q-114 -87 -114 -210v-40q81 -328 584 -328
h98q486 240 486 448q0 258 -518 656q-310 199 -310 264v12q511 424 862 540v52q-314 224 -488 382q-324 174 -324 750l16 184q146 316 422 316h16q115 0 228 -146v-118l-196 -196v-14h50q324 156 324 276l-32 66q-273 276 -602 276zM576 1014q208 172 244 172
q264 288 308 288q87 0 308 -236q-210 -126 -600 -474h-32l-228 212v38z" />
    <glyph glyph-name="dieresis" unicode="&#xa8;" horiz-adv-x="2048" 
d="M1386 2716q-180 -117 -180 -168q0 -225 236 -258h42l124 136v16q0 130 -222 274zM526 2692q-124 -85 -124 -152q57 -242 180 -242q83 0 180 136v16q0 117 -236 242z" />
    <glyph glyph-name="copyright" unicode="&#xa9;" horiz-adv-x="3348" 
d="M1930 2906q-546 0 -876 -256q-842 -683 -842 -1492v-132q0 -135 90 -378q193 -382 528 -532q190 -116 606 -164q798 0 1278 450q472 532 472 1124v82q-144 670 -416 858q-386 440 -840 440zM492 1394q0 628 506 1104q241 190 494 214h90q460 0 808 -348
q504 -510 504 -1002l-34 -438q-27 -253 -280 -512q-173 -206 -606 -296h-246q-390 0 -674 184q-562 397 -562 1094zM1604 2006q0 -20 -78 -20q-282 -252 -282 -572q0 -169 46 -286q144 -358 448 -358q385 0 752 460l-44 -10q-313 -286 -574 -286h-100l-44 10
q-226 115 -226 460v10q0 450 168 450h24l224 -102q34 6 34 80v12q0 122 -46 122h-10l-90 -20h-46z" />
    <glyph glyph-name="ordfeminine" unicode="&#xaa;" horiz-adv-x="1296" 
d="M762 2790l-240 -32q-86 0 -86 -76v-38l8 -32h22q100 88 148 88h12q0 -25 -166 -458q-258 -697 -320 -788q-93 -30 -108 -42v-8l12 -20l96 4h332l16 10l-6 14q-102 30 -102 70l10 76q132 450 184 450l326 10q108 -387 108 -498v-4l-6 -38q0 -12 -74 -62v-4q7 -14 46 -14
h108l74 -4l62 4h46v14l-18 18q-73 0 -142 156q-39 177 -102 384q0 28 -96 352q-66 399 -144 468zM574 2092q133 392 176 418h6q60 -117 120 -414v-8l-114 -6h-176z" />
    <glyph glyph-name="guillemotleft" unicode="&#xab;" horiz-adv-x="1888" 
d="M1466 1636q-82 0 -116 -34l-384 -606v-12q102 -129 576 -492q49 0 58 34v22l-58 80q-346 355 -346 378l28 92q356 449 356 504v12zM860 1624v-10q-232 -33 -232 -104q0 -82 -432 -538v-12q22 -38 230 -160l492 -400l28 12v10q0 77 -452 562v12q394 502 394 606v12z" />
    <glyph glyph-name="logicalnot" unicode="&#xac;" 
d="M212 1694v-406l-48 -154l36 -14q0 21 98 42q0 72 1264 168h12v-280q0 -92 -146 -336v-28l36 -14l170 98q292 57 292 84v14q-63 126 -86 126l14 518q0 58 -50 70l-170 -14h-960q-373 0 -424 126h-38z" />
    <glyph glyph-name="registered" unicode="&#xae;" horiz-adv-x="3348" 
d="M2054 2912h-244q-633 -90 -1126 -478q-562 -343 -562 -1360v-22q0 -103 44 -222q0 -216 232 -478q433 -394 728 -394h520q806 126 806 212q278 127 540 490q276 525 276 966l-22 192q-198 680 -332 680q-177 237 -860 414zM476 1276q0 528 408 1116q482 404 916 404h132
q136 0 586 -288q364 -388 364 -796v-150q0 -706 -354 -1072q-298 -416 -816 -416h-232q-351 30 -684 330q-320 386 -320 830v42zM1822 2168q-102 0 -540 -138h-56q-137 116 -176 116l-34 -42q0 -174 198 -276q78 -18 78 -106v-350l-10 -478l-112 -54v-22q6 -20 56 -42
l122 10h54l144 -20q56 9 56 32l-100 266v350l210 -22q154 0 154 -128v-20l-56 -340l22 -128q139 -208 354 -298q82 0 88 32q-65 80 -120 86q-100 55 -100 308l10 202q0 90 -76 286q0 20 110 44q188 143 188 308q-33 151 -78 202q-219 222 -386 222zM1490 1530h-10l10 276
q0 192 100 192h34q298 -72 298 -254v-32q0 -172 -156 -214h-154z" />
    <glyph glyph-name="macron" unicode="&#xaf;" horiz-adv-x="1340" 
d="M1250 2988q-45 -48 -176 -48h-216q-196 0 -424 -24l-344 40h-16q-58 0 -64 -32l24 -216l-8 -48l16 -16h8q61 64 96 64h136l344 16h336q246 -15 312 -40h16l8 24l-8 32v8q0 240 -40 240z" />
    <glyph glyph-name="degree" unicode="&#xb0;" horiz-adv-x="1348" 
d="M650 2968l-234 -62q-242 -142 -358 -548l32 -188q193 -422 450 -422h110l186 16q452 281 452 640q0 426 -638 564zM540 2750h218q96 -21 126 -408l-16 -78q0 -390 -328 -390q-108 69 -108 218v172q0 108 108 486z" />
    <glyph glyph-name="plusminus" unicode="&#xb1;" 
d="M1156 2446l-86 -50h-254l-74 -10v-30q0 -20 32 -20q158 -42 158 -158v-486q0 -70 -254 -70q-404 0 -498 50h-10l10 -128l-10 -200l10 -58h22q30 0 42 68q0 70 688 70h12q0 -360 52 -556l-20 -58l-604 -100h-170l-10 -30l10 -60l-10 -128q6 -50 30 -50h12q18 0 64 70
q884 128 1176 128h200q53 0 150 -88h30l12 28l-12 10v130l22 138l-32 30h-20q-73 -88 -478 -88h-222v654l212 10h318l64 -20q79 -158 94 -158h12l10 10l-10 108l10 150v108l-10 50q-134 -70 -382 -70h-340q-32 256 -32 586q0 83 118 168v40z" />
    <glyph glyph-name="twosuperior" unicode="&#xb2;" 
d="M928 2986l-152 -38q-134 -67 -134 -168l6 -32q63 -138 150 -138q63 13 80 32q0 33 -22 58l-30 -26q-28 0 -28 32v14q0 80 164 80h96q188 -54 188 -190v-10q0 -88 -140 -356q-164 -279 -250 -380h-6q-124 46 -180 46h-18q-142 0 -178 -210v-16q24 -154 156 -154
q43 0 130 62q81 108 96 108l22 -12q258 -222 402 -222l96 16q140 80 140 132q0 105 -236 186q-28 -3 -28 -16v-10l6 -6q96 -36 96 -100q0 -58 -102 -58q-166 0 -330 200q0 14 156 254q151 196 276 572q0 71 -16 116q-102 234 -410 234zM576 1652q48 110 110 110h40
q43 0 46 -16v-4q-40 -62 -120 -118h-32q-41 0 -44 16v12z" />
    <glyph glyph-name="threesuperior" unicode="&#xb3;" 
d="M904 2976h-76q-230 -73 -230 -166q0 -100 188 -136q43 0 90 44v16l-138 -6q-37 0 -50 20v16q24 100 132 100h120q216 -78 216 -196q0 -177 -162 -216q-222 -24 -222 -46v-16q336 -125 452 -186q174 -144 174 -268q0 -88 -28 -130q-42 -178 -250 -178l-76 6
q-160 0 -264 116q0 62 26 120q78 39 78 46v10l-42 10l-42 -10l-70 10l-42 -4q-84 -24 -84 -96l8 -40q76 -218 550 -218l70 10q320 153 320 418l-20 62q-55 176 -258 302q-182 64 -182 72q266 155 266 256l-8 56q-72 222 -446 222z" />
    <glyph glyph-name="acute" unicode="&#xb4;" horiz-adv-x="2048" 
d="M1370 2888q-74 0 -210 -56l-200 -268q-354 -378 -354 -462l28 -16h26q256 227 500 374q253 225 300 362q-57 60 -90 66z" />
    <glyph glyph-name="mu" unicode="&#xb5;" horiz-adv-x="1902" 
d="M1690 2404q-296 0 -296 -50v-26l24 -42q75 0 132 -356l-16 -728v-540q0 -249 -58 -348q-70 -176 -310 -176q-178 0 -280 84q-146 125 -146 202q-59 0 -92 982q0 258 42 600q0 251 140 348q0 27 -66 42q0 -27 -378 -42l-138 16q-121 -6 -148 -26v-8l114 -144
q29 -172 100 -1286q56 -566 56 -1124v-280q0 -194 -32 -278v-8l16 -26l98 42l156 -8q196 6 196 34v8q-114 24 -114 34q-93 0 -114 862v10l8 8h8q170 -170 360 -170q404 0 524 204h16v-34q0 -56 -56 -118v-18q6 -26 48 -26h214l24 18q-82 121 -82 152v1886q0 134 90 212
q74 18 74 50q0 53 -114 68z" />
    <glyph glyph-name="paragraph" unicode="&#xb6;" horiz-adv-x="2196" 
d="M962 2880q-488 0 -680 -112q-224 -236 -224 -426v-90q0 -264 240 -426q0 -48 496 -72q48 0 48 -152l16 -1176h-8q-78 -344 -112 -344q-96 -24 -96 -52v-20q0 -44 224 -50q75 30 168 30h48l128 -30l48 30q0 68 -96 92q-64 0 -64 1652q12 902 32 902q0 62 256 62l296 -10
l24 -10l24 -1998v-10q0 -430 -72 -538q-115 -54 -120 -70v-20q6 -32 64 -32h192q208 0 208 42q-142 136 -160 294v2180l8 172q74 0 152 -52q66 -156 88 -172l32 30l-16 132l16 184q-3 32 -48 50l-232 -10h-304zM322 2252q0 166 88 324q65 172 416 172l16 -20v-274l-8 -558
l-296 52q-183 0 -216 272v32z" />
    <glyph glyph-name="periodcentered" unicode="&#xb7;" horiz-adv-x="1016" 
d="M498 1668h-12q-248 -151 -248 -386q0 -116 196 -170q324 99 324 294q-143 262 -260 262z" />
    <glyph glyph-name="periodcentered" unicode="&#x2219;" horiz-adv-x="1016" 
d="M498 1668h-12q-248 -151 -248 -386q0 -116 196 -170q324 99 324 294q-143 262 -260 262z" />
    <glyph glyph-name="cedilla" unicode="&#xb8;" horiz-adv-x="2048" 
d="M1078 58q-123 -6 -190 -56l-78 -376l22 -34q197 134 368 134h22q146 0 146 -144v-122q-155 -200 -280 -200h-88q-78 0 -202 100h-10l-12 -10q18 -140 302 -200q446 90 446 178q83 0 134 320q-101 310 -334 310l-168 -22h-34v34q0 82 -44 88z" />
    <glyph glyph-name="onesuperior" unicode="&#xb9;" 
d="M976 2986l-12 -10q-96 -168 -182 -196q-152 -24 -152 -34v-6q51 -54 158 -84l128 24h12l6 -14l-6 -938q0 -54 -110 -110v-4q0 -10 28 -16l54 6q29 0 34 -16l48 10h152l52 10l52 -4l18 4v10l-36 30q-64 0 -64 992q0 204 18 300q-35 46 -82 46h-116z" />
    <glyph glyph-name="ordmasculine" unicode="&#xba;" horiz-adv-x="1436" 
d="M716 2992l-234 -62q-242 -142 -358 -548l32 -188q193 -422 450 -422h110l186 16q452 281 452 640q0 426 -638 564zM606 2774h218q96 -21 126 -408l-16 -78q0 -390 -328 -390q-108 69 -108 218v172q0 108 108 486z" />
    <glyph glyph-name="guillemotright" unicode="&#xbb;" horiz-adv-x="1888" 
d="M486 1610q-31 34 -116 34l-114 -22v-12q0 -51 356 -504l28 -92q0 -26 -346 -378l-58 -80v-22q12 -34 58 -34q474 363 576 492v12zM976 1622v10l-28 -10v-12q3 -104 394 -606v-12q-452 -488 -452 -562v-10l28 -12l492 400q212 124 230 160v12q-432 456 -432 538
q0 71 -232 104z" />
    <glyph glyph-name="onequarter" unicode="&#xbc;" horiz-adv-x="2998" 
d="M588 2862l-30 -32q0 -164 -204 -278v-22l20 -20h18q38 0 128 62h30l8 -186l10 -902v-10l-10 -12q-96 -24 -96 -50v-12q6 -30 78 -30h68l78 20h88l186 22v40q-98 0 -98 488v476l-20 290q0 146 -98 146h-106zM2252 2862q-269 -52 -392 -52h-20l-136 20l-20 -20l48 -72v-22
q0 -60 -136 -382q-473 -930 -832 -1732l-224 -424q0 -100 -206 -166q12 -62 166 -62l40 10q508 30 508 52l-78 94v154q0 72 128 426l440 974l528 984q48 112 244 166q-17 52 -58 52zM2692 1484l-118 -52h-88l-186 30l-30 -10l30 -92v-104l-10 -436q-168 -104 -196 -104h-8
v64l28 278v188q-54 206 -196 206q-156 -36 -156 -144q24 -156 128 -156l78 42v20l-68 62v10q23 64 78 64h10l18 -22v-62q0 -36 -28 -72v-32q0 -104 -118 -724q0 -59 48 -74l30 10q251 302 324 302h18v-332q0 -286 -106 -342v-10q0 -42 116 -42h324q50 0 88 32l-10 30l-30 10
q-126 0 -126 74v50q0 277 28 560h30l78 -40q61 0 88 72l-20 42q-176 61 -176 72v42q0 129 30 258q0 215 126 290v32z" />
    <glyph glyph-name="onehalf" unicode="&#xbd;" horiz-adv-x="2998" 
d="M2164 2846q-232 0 -328 -72l8 -102q0 -67 -54 -154q-244 -679 -380 -900q-306 -594 -808 -1476q0 -18 -124 -112v-20q0 -18 54 -42q48 21 230 30q232 -9 328 -40l44 10v42q-98 37 -98 92q0 218 258 758q590 1241 710 1454q69 261 318 480v22q-3 30 -70 30h-88zM798 2826
l-204 -32q-35 -200 -124 -286q-36 0 -36 -20v-32l44 -10l98 10h8l-16 -952q-125 -66 -134 -92v-20q0 -18 88 -42l152 22h18q186 0 282 -32l28 10v12l-28 40q-150 0 -150 112l26 1168l10 30q-12 114 -62 114zM2118 1412q-250 0 -292 -286q36 -174 124 -174q116 0 152 72v10
l-18 20h-80v40q0 114 142 144h70q222 -63 222 -174v-72q-132 -490 -222 -532l-292 112l-116 -30q-160 -121 -160 -276q0 -72 28 -134q0 -92 150 -92q92 0 276 154h44q151 -154 266 -154h62q181 0 230 164q0 102 -150 276h-28v-40q54 -99 54 -164v-10h-18q-42 0 -240 174
q202 335 214 552v10q-132 410 -418 410zM1764 254q0 82 80 82h88q80 -18 80 -50q-25 -50 -186 -62h-62v30z" />
    <glyph glyph-name="threequarters" unicode="&#xbe;" horiz-adv-x="2998" 
d="M2436 2864l-196 -42l-502 12l-66 -12v-30q94 -44 94 -62v-60q0 -117 -410 -934q-546 -1128 -654 -1260q-201 -472 -382 -472v-32q0 -15 46 -30q0 30 252 42l318 -22q46 14 46 32v30q-112 30 -112 52v20l130 266q638 1175 942 1886q172 379 308 492q224 60 224 94h-10
l-18 20zM748 2792q-216 0 -288 -318q0 -130 130 -184q112 44 112 122l-74 -20v62q0 112 84 112h46q122 -12 122 -102v-62q0 -49 -76 -122v-32q140 -185 140 -246q0 -276 -130 -276h-140l-36 40v32q0 75 130 184v10l-48 10h-8q-93 0 -150 -224q0 -106 206 -176l112 32
q242 108 242 368v52q0 151 -158 276v22q45 62 64 184q-54 256 -224 256h-56zM2484 1438q-150 -50 -224 -50l-102 10l-38 -10l38 -154l-20 -380q-6 -184 -148 -184h-10q0 85 56 440q-30 258 -140 258h-10q-105 0 -120 -134l28 -42h28l28 82l8 12h38q56 -29 56 -154
q0 -209 -168 -656l46 -52h38q156 102 206 102h36v-72l-18 -184q-36 -202 -102 -256v-30l28 -12q0 17 130 32l224 -20l46 40l-46 62v318l8 276l10 10q72 0 214 -92l10 10v10q0 147 -214 174q0 332 120 626l-18 20h-18z" />
    <glyph glyph-name="questiondown" unicode="&#xbf;" horiz-adv-x="1496" 
d="M832 0h30q680 114 680 514q0 94 -182 142q-114 0 -316 -122l22 -104l70 42h50q72 0 72 -72v-10q0 -171 -386 -246h-132l-102 10q-242 82 -242 738q0 494 232 494h92q230 -72 356 -216h30q50 259 50 524v410l62 266l-22 32q-374 -36 -374 -82v-22q132 -153 132 -298
q-15 -584 -62 -584h-20q-229 92 -314 92q-107 0 -204 -40q-314 -157 -314 -730q0 -316 244 -554q235 -184 548 -184zM1014 2678q120 0 162 154q-33 72 -80 72q-86 0 -152 -144q12 -82 70 -82z" />
    <glyph glyph-name="Agrave" unicode="&#xc0;" horiz-adv-x="2516" 
d="M1464 2914l-478 -68q-170 0 -170 -158v-80l12 -68h44q207 186 296 186h24q0 -43 -330 -964q-508 -1447 -638 -1654q-187 -62 -216 -88v-20l22 -40l194 10h660l34 20l-12 30q-204 57 -204 146l22 158q257 946 366 946l648 20q216 -810 216 -1044v-10l-12 -80
q0 -21 -148 -128v-8q9 -30 92 -30h216l148 -10l124 10h92v30l-34 38q-148 0 -284 326q-72 343 -206 806q0 62 -192 740q-126 836 -286 984zM1090 1446q260 820 352 878h12q116 -251 238 -868v-18l-228 -10h-352zM988 3348q-63 40 -100 40q-10 0 -34 -56q0 -56 502 -378h6
l8 6v14q-82 61 -382 374z" />
    <glyph glyph-name="Aacute" unicode="&#xc1;" horiz-adv-x="2524" 
d="M1464 2914l-478 -68q-170 0 -170 -158v-80l12 -68h44q207 186 296 186h24q0 -43 -330 -964q-508 -1447 -638 -1654q-187 -62 -216 -88v-20l22 -40l194 10h660l34 20l-12 30q-204 57 -204 146l22 158q257 946 366 946l648 20q216 -810 216 -1044v-10l-12 -80
q0 -21 -148 -128v-8q9 -30 92 -30h216l148 -10l124 10h92v30l-34 38q-148 0 -284 326q-72 343 -206 806q0 62 -192 740q-126 836 -286 984zM1090 1446q260 820 352 878h12q116 -251 238 -868v-18l-228 -10h-352zM1852 3370q-34 0 -100 -40q-289 -304 -382 -374v-14l8 -6h6
q502 320 502 378q-21 56 -34 56z" />
    <glyph glyph-name="Acircumflex" unicode="&#xc2;" horiz-adv-x="2540" 
d="M1410 3534q-125 -125 -144 -178q-111 -261 -188 -332v-6q31 -56 56 -56q99 22 116 44q116 217 166 270h6q124 -338 178 -338l38 44v6q-55 81 -128 282q-69 264 -88 264h-12zM1458 2932l-478 -68q-170 0 -170 -158v-80l12 -68h44q207 186 296 186h24q0 -43 -330 -964
q-508 -1447 -638 -1654q-187 -62 -216 -88v-20l22 -40l194 10h660l34 20l-12 30q-204 57 -204 146l22 158q257 946 366 946l648 20q216 -810 216 -1044v-10l-12 -80q0 -21 -148 -128v-8q9 -30 92 -30h216l148 -10l124 10h92v30l-34 38q-148 0 -284 326q-72 343 -206 806
q0 62 -192 740q-126 836 -286 984zM1084 1464q260 820 352 878h12q116 -251 238 -868v-18l-228 -10h-352z" />
    <glyph glyph-name="Atilde" unicode="&#xc3;" horiz-adv-x="2524" 
d="M1762 3436q-14 0 -14 -56q-33 -220 -122 -220l-36 4q-403 230 -450 230q-107 0 -172 -136l-42 -246l24 -20q18 0 18 36q77 220 198 220h46q46 0 142 -84q190 -208 244 -208q32 9 72 52q110 214 110 372zM1464 2914l-478 -68q-170 0 -170 -158v-80l12 -68h44
q207 186 296 186h24q0 -43 -330 -964q-508 -1447 -638 -1654q-187 -62 -216 -88v-20l22 -40l194 10h660l34 20l-12 30q-204 57 -204 146l22 158q257 946 366 946l648 20q216 -810 216 -1044v-10l-12 -80q0 -21 -148 -128v-8q9 -30 92 -30h216l148 -10l124 10h92v30l-34 38
q-148 0 -284 326q-72 343 -206 806q0 62 -192 740q-126 836 -286 984zM1090 1446q260 820 352 878h12q116 -251 238 -868v-18l-228 -10h-352z" />
    <glyph glyph-name="Adieresis" unicode="&#xc4;" horiz-adv-x="2524" 
d="M1612 3378q-174 -102 -174 -146q0 -196 226 -226h42l118 120v14q0 113 -212 238zM1104 3344q-118 -76 -118 -134q54 -210 172 -210q80 0 174 118v14q0 104 -228 212zM1464 2914l-478 -68q-170 0 -170 -158v-80l12 -68h44q207 186 296 186h24q0 -43 -330 -964
q-508 -1447 -638 -1654q-187 -62 -216 -88v-20l22 -40l194 10h660l34 20l-12 30q-204 57 -204 146l22 158q257 946 366 946l648 20q216 -810 216 -1044v-10l-12 -80q0 -21 -148 -128v-8q9 -30 92 -30h216l148 -10l124 10h92v30l-34 38q-148 0 -284 326q-72 343 -206 806
q0 62 -192 740q-126 836 -286 984zM1090 1446q260 820 352 878h12q116 -251 238 -868v-18l-228 -10h-352z" />
    <glyph glyph-name="Aring" unicode="&#xc5;" horiz-adv-x="2532" 
d="M1464 2922l-478 -68q-170 0 -170 -158v-80l12 -68h44q207 186 296 186h24q0 -43 -330 -964q-508 -1447 -638 -1654q-187 -62 -216 -88v-20l22 -40l194 10h660l34 20l-12 30q-204 57 -204 146l22 158q257 946 366 946l648 20q216 -810 216 -1044v-10l-12 -80
q0 -21 -148 -128v-8q9 -30 92 -30h216l148 -10l124 10h92v30l-34 38q-148 0 -284 326q-72 343 -206 806q0 62 -192 740q-126 836 -286 984zM1090 1454q260 820 352 878h12q116 -251 238 -868v-18l-228 -10h-352zM1408 3536l-120 -30q-122 -67 -182 -258l16 -88
q97 -200 230 -200h56l94 8q230 131 230 302q0 200 -324 266zM1352 3434h110q49 -12 64 -194l-8 -36q0 -184 -166 -184q-56 34 -56 102v82q0 43 56 230z" />
    <glyph glyph-name="AE" unicode="&#xc6;" horiz-adv-x="3228" 
d="M1518 2936q-908 -30 -908 -92q-110 0 -134 -306l12 -30h32q257 254 288 254h44l-364 -1660q-127 -484 -234 -674q-33 -193 -254 -366v-22q12 -30 66 -30h344l354 10v10l12 10v22q-156 72 -156 142q0 120 56 276q156 794 222 794h22l266 -10l66 20q80 0 122 -30l-12 -1060
l-22 -174l78 -10h1042l576 -10q110 134 110 266v50q0 54 -44 72l-134 -112q-138 -144 -796 -144q-224 0 -388 62l-34 1284v30l22 62l498 10h222l12 -10l88 -112q23 6 44 50l-22 124l12 162l-12 30l-176 -60l-622 10l-44 10q-54 0 -54 744l10 102h34q380 -356 532 -356h54
q366 114 366 632l-12 30h-22q-151 -224 -298 -224h-134l-154 20zM1252 2752l88 -10l34 -1244q0 -18 -378 -30l-66 30q0 104 78 326q156 928 244 928z" />
    <glyph glyph-name="Ccedilla" unicode="&#xc7;" horiz-adv-x="2106" 
d="M998 2912q-998 0 -998 -1686q12 -181 60 -382q60 -307 318 -538q271 -232 706 -310q18 -300 48 -300q226 104 402 104q146 0 158 -134v-114q-24 -134 -230 -134h-134l-220 52q-61 0 -110 -52v-20h12l12 -12q168 -61 536 -82h12l172 10q292 0 292 238q-51 362 -268 362
l-402 -32q-50 0 -50 62v84q223 27 280 72q452 299 452 382q0 57 -50 72q-67 -43 -96 -92q-423 -300 -804 -300l-122 32q-187 66 -280 268q-194 503 -194 920v590l12 124q54 297 96 372q150 350 440 350h72q261 0 560 -320h24q264 231 378 300l-48 42h-38
q-251 -124 -352 -124l-74 10q-330 186 -426 186h-146z" />
    <glyph glyph-name="Egrave" unicode="&#xc8;" horiz-adv-x="2302" 
d="M538 2904h-172q-366 -156 -366 -268v-32l34 -10q186 124 230 124h34l12 -176l-12 -1344l-34 -568q0 -547 -196 -600q0 -42 276 -42l1158 12l344 -32l58 10q366 0 366 248q-6 146 -58 146h-10q-263 -217 -470 -238h-242q-497 0 -814 20q-34 0 -34 268v62q0 486 34 1076
q0 134 116 134h480l46 -10l80 -114h24l22 146v144q0 54 -34 62q-47 0 -184 -104l-458 10l-58 12q-32 0 -56 826v20l22 22h24l102 -22q567 -402 676 -402l58 10q346 313 436 548v20h-46q-160 -238 -298 -238h-126l-68 12q-572 268 -896 268zM718 3304q-63 40 -100 40
q-10 0 -34 -56q0 -56 502 -378h6l8 6v14q-82 61 -382 374z" />
    <glyph glyph-name="Eacute" unicode="&#xc9;" horiz-adv-x="2302" 
d="M1336 3388q-34 0 -100 -40q-289 -304 -382 -374v-14l8 -6h6q502 320 502 378q-21 56 -34 56zM538 2904h-172q-366 -156 -366 -268v-32l34 -10q186 124 230 124h34l12 -176l-12 -1344l-34 -568q0 -547 -196 -600q0 -42 276 -42l1158 12l344 -32l58 10q366 0 366 248
q-6 146 -58 146h-10q-263 -217 -470 -238h-242q-497 0 -814 20q-34 0 -34 268v62q0 486 34 1076q0 134 116 134h480l46 -10l80 -114h24l22 146v144q0 54 -34 62q-47 0 -184 -104l-458 10l-58 12q-32 0 -56 826v20l22 22h24l102 -22q567 -402 676 -402l58 10q346 313 436 548
v20h-46q-160 -238 -298 -238h-126l-68 12q-572 268 -896 268z" />
    <glyph glyph-name="Ecircumflex" unicode="&#xca;" horiz-adv-x="2302" 
d="M1048 3504q-125 -125 -144 -178q-111 -261 -188 -332v-6q31 -56 56 -56q99 22 116 44q116 217 166 270h6q124 -338 178 -338l38 44v6q-55 81 -128 282q-69 264 -88 264h-12zM538 2904h-172q-366 -156 -366 -268v-32l34 -10q186 124 230 124h34l12 -176l-12 -1344
l-34 -568q0 -547 -196 -600q0 -42 276 -42l1158 12l344 -32l58 10q366 0 366 248q-6 146 -58 146h-10q-263 -217 -470 -238h-242q-497 0 -814 20q-34 0 -34 268v62q0 486 34 1076q0 134 116 134h480l46 -10l80 -114h24l22 146v144q0 54 -34 62q-47 0 -184 -104l-458 10
l-58 12q-32 0 -56 826v20l22 22h24l102 -22q567 -402 676 -402l58 10q346 313 436 548v20h-46q-160 -238 -298 -238h-126l-68 12q-572 268 -896 268z" />
    <glyph glyph-name="Edieresis" unicode="&#xcb;" horiz-adv-x="2302" 
d="M538 2904h-172q-366 -156 -366 -268v-32l34 -10q186 124 230 124h34l12 -176l-12 -1344l-34 -568q0 -547 -196 -600q0 -42 276 -42l1158 12l344 -32l58 10q366 0 366 248q-6 146 -58 146h-10q-263 -217 -470 -238h-242q-497 0 -814 20q-34 0 -34 268v62q0 486 34 1076
q0 134 116 134h480l46 -10l80 -114h24l22 146v144q0 54 -34 62q-47 0 -184 -104l-458 10l-58 12q-32 0 -56 826v20l22 22h24l102 -22q567 -402 676 -402l58 10q346 313 436 548v20h-46q-160 -238 -298 -238h-126l-68 12q-572 268 -896 268zM1310 3318q-174 -102 -174 -146
q0 -196 226 -226h42l118 120v14q0 113 -212 238zM802 3284q-118 -76 -118 -134q54 -210 172 -210q80 0 174 118v14q0 104 -228 212z" />
    <glyph glyph-name="Igrave" unicode="&#xcc;" horiz-adv-x="994" 
d="M750 2846l-72 -10q-516 0 -516 -80q31 -52 72 -70q96 0 96 -982q-42 -1295 -74 -1542q0 -37 -116 -150q25 -50 52 -50q126 50 232 50h200q47 0 222 -110h10q0 52 -136 200q-64 0 -64 872v310l22 1042v30q0 193 20 260l136 180q-23 41 -84 50zM146 3350q-63 40 -100 40
q-10 0 -34 -56q0 -56 502 -378h6l8 6v14q-82 62 -382 374z" />
    <glyph glyph-name="Iacute" unicode="&#xcd;" horiz-adv-x="980" 
d="M750 2846l-72 -10q-516 0 -516 -80q31 -52 72 -70q96 0 96 -982q-42 -1295 -74 -1542q0 -37 -116 -150q25 -50 52 -50q126 50 232 50h200q47 0 222 -110h10q0 52 -136 200q-64 0 -64 872v310l22 1042v30q0 193 20 260l136 180q-23 41 -84 50zM918 3390q-34 0 -100 -40
q-289 -304 -382 -374v-14l8 -6h6q502 320 502 378q-21 56 -34 56z" />
    <glyph glyph-name="Icircumflex" unicode="&#xce;" horiz-adv-x="980" 
d="M750 2846l-72 -10q-516 0 -516 -80q31 -52 72 -70q96 0 96 -982q-42 -1295 -74 -1542q0 -37 -116 -150q25 -50 52 -50q126 50 232 50h200q47 0 222 -110h10q0 52 -136 200q-64 0 -64 872v310l22 1042v30q0 193 20 260l136 180q-23 41 -84 50zM552 3518
q-125 -125 -144 -178q-111 -261 -188 -332v-6q31 -56 56 -56q99 22 116 44q116 217 166 270h6q124 -338 178 -338l38 44v6q-55 81 -128 282q-69 264 -88 264h-12z" />
    <glyph glyph-name="Idieresis" unicode="&#xcf;" horiz-adv-x="1010" 
d="M750 2846l-72 -10q-516 0 -516 -80q31 -52 72 -70q96 0 96 -982q-42 -1295 -74 -1542q0 -37 -116 -150q25 -50 52 -50q126 50 232 50h200q47 0 222 -110h10q0 52 -136 200q-64 0 -64 872v310l22 1042v30q0 193 20 260l136 180q-23 41 -84 50zM692 3332
q-174 -102 -174 -146q0 -196 226 -226h42l118 120v14q0 113 -212 238zM184 3298q-118 -76 -118 -134q54 -210 172 -210q80 0 174 118v14q0 104 -228 212z" />
    <glyph glyph-name="Eth" unicode="&#xd0;" horiz-adv-x="2736" 
d="M558 2928q-166 0 -196 -114q0 -20 186 -32q176 -101 176 -270v-94l-22 -822q0 -72 -474 -72q-109 0 -228 -280v-22l30 -10l642 52l20 -20l20 -510h-20l-92 32q-79 -24 -94 -64l196 -166q-9 -339 -40 -520q0 -34 144 -52l62 10q186 0 186 146l-10 104v52l10 10l30 -10
q495 -374 786 -374h40q249 0 486 228q300 411 300 822v386q0 782 -228 1142q-266 376 -588 376q-190 0 -330 -64q-441 -260 -476 -260l-20 22v176l-10 104q0 94 -342 94h-144zM1044 2398q254 218 546 218q704 0 704 -1092q0 -689 -136 -1050q-201 -384 -370 -384h-136
q-45 0 -82 40q-370 161 -568 344l10 156v500l10 124h52l228 -32q168 186 300 270v12l-22 30q-344 33 -402 52q0 -20 -104 -20q-24 0 -30 62v770z" />
    <glyph glyph-name="Ntilde" unicode="&#xd1;" horiz-adv-x="2164" 
d="M154 2920q-154 -121 -154 -200l20 -22h8q33 0 68 32h10q232 -71 232 -158l48 -1618q-21 -834 -58 -834l-96 -64v-22l48 -84l78 42l346 -10h164q77 0 98 52q0 20 -106 64q-66 0 -108 1248l10 104v530l10 42v10q30 0 252 -264q378 -556 626 -1216q186 -592 252 -592h20
q62 0 86 64l20 2326q42 138 202 518l-20 20h-328q-126 -6 -126 -42v-10q136 -59 136 -350l-20 -930l30 -772h-20l-10 12q-98 294 -270 644l-734 994q-282 486 -694 486h-20zM1638 3288q-14 0 -14 -56q-33 -220 -122 -220l-36 4q-403 230 -450 230q-107 0 -172 -136l-42 -246
l24 -20q18 0 18 36q77 220 198 220h46q46 0 142 -84q190 -208 244 -208q32 9 72 52q110 214 110 372z" />
    <glyph glyph-name="Ograve" unicode="&#xd2;" horiz-adv-x="2082" 
d="M1136 2880l-118 -40q-460 0 -852 -676q-192 -504 -192 -1032l96 -500q44 -279 298 -520q0 -63 460 -144h52q217 0 416 52q317 163 490 470q182 546 182 878q0 272 -64 592q-93 490 -352 746q-120 126 -416 174zM432 1132q0 761 54 890q120 415 192 490q0 103 362 184h86
q76 0 116 -40q126 0 192 -236q56 0 128 -910l-10 -366q0 -736 -192 -880q-55 -164 -468 -164h-54q-288 72 -288 154q-118 0 -118 786v92zM726 3322q-63 40 -100 40q-10 0 -34 -56q0 -56 502 -378h6l8 6v14q-82 61 -382 374z" />
    <glyph glyph-name="Oacute" unicode="&#xd3;" horiz-adv-x="2090" 
d="M1136 2880l-118 -40q-460 0 -852 -676q-192 -504 -192 -1032l96 -500q44 -279 298 -520q0 -63 460 -144h52q217 0 416 52q317 163 490 470q182 546 182 878q0 272 -64 592q-93 490 -352 746q-120 126 -416 174zM432 1132q0 761 54 890q120 415 192 490q0 103 362 184h86
q76 0 116 -40q126 0 192 -236q56 0 128 -910l-10 -366q0 -736 -192 -880q-55 -164 -468 -164h-54q-288 72 -288 154q-118 0 -118 786v92zM1556 3344q-34 0 -100 -40q-289 -304 -382 -374v-14l8 -6h6q502 320 502 378q-21 56 -34 56z" />
    <glyph glyph-name="Ocircumflex" unicode="&#xd4;" horiz-adv-x="2082" 
d="M1136 2880l-118 -40q-460 0 -852 -676q-192 -504 -192 -1032l96 -500q44 -279 298 -520q0 -63 460 -144h52q217 0 416 52q317 163 490 470q182 546 182 878q0 272 -64 592q-93 490 -352 746q-120 126 -416 174zM432 1132q0 761 54 890q120 415 192 490q0 103 362 184h86
q76 0 116 -40q126 0 192 -236q56 0 128 -910l-10 -366q0 -736 -192 -880q-55 -164 -468 -164h-54q-288 72 -288 154q-118 0 -118 786v92zM1108 3490q-125 -125 -144 -178q-111 -261 -188 -332v-6q31 -56 56 -56q99 22 116 44q116 217 166 270h6q124 -338 178 -338l38 44v6
q-55 81 -128 282q-69 264 -88 264h-12z" />
    <glyph glyph-name="Otilde" unicode="&#xd5;" horiz-adv-x="2090" 
d="M1136 2880l-118 -40q-460 0 -852 -676q-192 -504 -192 -1032l96 -500q44 -279 298 -520q0 -63 460 -144h52q217 0 416 52q317 163 490 470q182 546 182 878q0 272 -64 592q-93 490 -352 746q-120 126 -416 174zM432 1132q0 761 54 890q120 415 192 490q0 103 362 184h86
q76 0 116 -40q126 0 192 -236q56 0 128 -910l-10 -366q0 -736 -192 -880q-55 -164 -468 -164h-54q-288 72 -288 154q-118 0 -118 786v92zM1492 3380q-14 0 -14 -56q-33 -220 -122 -220l-36 4q-403 230 -450 230q-107 0 -172 -136l-42 -246l24 -20q18 0 18 36q77 220 198 220
h46q46 0 142 -84q190 -208 244 -208q32 9 72 52q110 214 110 372z" />
    <glyph glyph-name="Odieresis" unicode="&#xd6;" horiz-adv-x="2074" 
d="M1136 2880l-118 -40q-460 0 -852 -676q-192 -504 -192 -1032l96 -500q44 -279 298 -520q0 -63 460 -144h52q217 0 416 52q317 163 490 470q182 546 182 878q0 272 -64 592q-93 490 -352 746q-120 126 -416 174zM432 1132q0 761 54 890q120 415 192 490q0 103 362 184h86
q76 0 116 -40q126 0 192 -236q56 0 128 -910l-10 -366q0 -736 -192 -880q-55 -164 -468 -164h-54q-288 72 -288 154q-118 0 -118 786v92zM1318 3304q-174 -102 -174 -146q0 -196 226 -226h42l118 120v14q0 113 -212 238zM810 3270q-118 -76 -118 -134q54 -210 172 -210
q80 0 174 118v14q0 104 -228 212z" />
    <glyph glyph-name="multiply" unicode="&#xd7;" 
d="M1468 2104q-31 -141 -80 -202q-346 -343 -384 -340q-48 6 -332 344q-172 142 -154 294l-20 2q-40 -13 -178 -172l-4 -26l30 -12l12 8l60 -8q341 -347 440 -536q-12 -86 -324 -356q-137 -185 -310 -164l-2 -18q150 -204 186 -210l144 222q180 257 370 404l42 -6
q189 -161 398 -388q100 -61 124 -210l10 -2l12 8q117 33 186 162l2 18q-190 74 -380 296q-226 229 -220 268l2 8l394 348l228 94l-222 172z" />
    <glyph glyph-name="Oslash" unicode="&#xd8;" horiz-adv-x="2122" 
d="M1134 2888q-250 0 -504 -136q-357 -258 -462 -596q-168 -279 -168 -1140l52 -284q297 -742 946 -742h42q445 0 746 470q230 600 230 1224q0 205 -146 670q-312 534 -704 534h-32zM420 1204q0 948 190 1286q156 210 482 294h94q252 -66 252 -126q-44 -148 -94 -220
l-766 -1244q-84 -178 -148 -178zM504 482q0 47 52 188l672 1130q193 377 294 460q36 0 42 -576q-51 -1558 -420 -1558h-220q-357 0 -420 356z" />
    <glyph glyph-name="Ugrave" unicode="&#xd9;" horiz-adv-x="2000" 
d="M2010 2846v-10q-408 0 -408 -50v-10q20 -34 64 -50q86 0 86 -540q0 -1202 -96 -1478q-192 -540 -710 -540h-42l-76 10q-248 85 -248 610q24 987 66 1758l10 70q140 104 140 130q-20 70 -76 70l-32 -10q-688 -30 -688 -60q182 -161 182 -460v-670l-32 -1038q0 -52 76 -180
q274 -430 656 -430h108q595 0 848 710q71 0 86 1938q36 52 216 170q-78 60 -130 60zM808 3308q-63 40 -100 40q-10 0 -34 -56q0 -56 502 -378h6l8 6v14q-82 62 -382 374z" />
    <glyph glyph-name="Uacute" unicode="&#xda;" horiz-adv-x="2000" 
d="M2010 2846v-10q-408 0 -408 -50v-10q20 -34 64 -50q86 0 86 -540q0 -1202 -96 -1478q-192 -540 -710 -540h-42l-76 10q-248 85 -248 610q24 987 66 1758l10 70q140 104 140 130q-20 70 -76 70l-32 -10q-688 -30 -688 -60q182 -161 182 -460v-670l-32 -1038q0 -52 76 -180
q274 -430 656 -430h108q595 0 848 710q71 0 86 1938q36 52 216 170q-78 60 -130 60zM1590 3282q-34 0 -100 -40q-289 -304 -382 -374v-14l8 -6h6q502 320 502 378q-21 56 -34 56z" />
    <glyph glyph-name="Ucircumflex" unicode="&#xdb;" horiz-adv-x="2000" 
d="M2010 2846v-10q-408 0 -408 -50v-10q20 -34 64 -50q86 0 86 -540q0 -1202 -96 -1478q-192 -540 -710 -540h-42l-76 10q-248 85 -248 610q24 987 66 1758l10 70q140 104 140 130q-20 70 -76 70l-32 -10q-688 -30 -688 -60q182 -161 182 -460v-670l-32 -1038q0 -52 76 -180
q274 -430 656 -430h108q595 0 848 710q71 0 86 1938q36 52 216 170q-78 60 -130 60zM1180 3468q-125 -125 -144 -178q-111 -261 -188 -332v-6q31 -56 56 -56q99 22 116 44q116 217 166 270h6q124 -338 178 -338l38 44v6q-55 81 -128 282q-69 264 -88 264h-12z" />
    <glyph glyph-name="Udieresis" unicode="&#xdc;" horiz-adv-x="2000" 
d="M2010 2846v-10q-408 0 -408 -50v-10q20 -34 64 -50q86 0 86 -540q0 -1202 -96 -1478q-192 -540 -710 -540h-42l-76 10q-248 85 -248 610q24 987 66 1758l10 70q140 104 140 130q-20 70 -76 70l-32 -10q-688 -30 -688 -60q182 -161 182 -460v-670l-32 -1038q0 -52 76 -180
q274 -430 656 -430h108q595 0 848 710q71 0 86 1938q36 52 216 170q-78 60 -130 60zM1310 3318q-174 -102 -174 -146q0 -196 226 -226h42l118 120v14q0 113 -212 238zM802 3284q-118 -76 -118 -134q54 -210 172 -210q80 0 174 118v14q0 104 -228 212z" />
    <glyph glyph-name="Yacute" unicode="&#xdd;" horiz-adv-x="2172" 
d="M2088 2798v-10q-524 -60 -524 -98v-10q0 -26 116 -50q78 -6 78 -70q0 -103 -164 -336q-315 -504 -398 -504h-10q-17 6 -242 396q-340 524 -340 554v30q126 12 126 38t-86 50v-10l-78 -10q-562 -6 -562 -50v-18l10 -10q129 -35 338 -208q329 -529 572 -1040l-10 -208
l-8 -800q0 -356 -98 -406q0 -50 184 -50h20l252 10l48 -20l48 50v10q-154 103 -154 386q29 768 58 1058q203 305 484 812q167 321 378 464v20q0 18 -38 30zM1526 3194q-34 0 -100 -40q-289 -304 -382 -374v-14l8 -6h6q502 320 502 378q-21 56 -34 56z" />
    <glyph glyph-name="Thorn" unicode="&#xde;" horiz-adv-x="2638" 
d="M284 2830q-228 -27 -228 -70l128 -92q114 0 114 -558l-28 -820l14 -882v-20q0 -277 -284 -426l28 -20l170 40h540l142 -10v10q142 0 142 30v12q-226 93 -226 516v202q0 112 42 112h28q454 -112 908 -112q146 0 284 42q540 213 540 618q0 459 -412 728q-141 73 -540 142
q-284 -6 -794 -162h-28l42 274q39 364 228 364v22q-30 24 -186 60l-226 -30h-170zM838 1948q334 182 710 182h42l72 -10q312 -132 312 -546v-264l-72 -172q-175 -244 -326 -244h-42q-413 0 -724 122z" />
    <glyph glyph-name="germandbls" unicode="&#xdf;" horiz-adv-x="1722" 
d="M778 2634q-422 -33 -512 -226q-92 0 -128 -1416l10 -556l-10 -190q0 -190 -138 -244q0 -13 40 -28l560 8q36 0 80 28l-10 30q-178 33 -178 188q50 576 50 1878v38q60 302 226 302h68q148 -24 148 -132v-10q-12 -76 -38 -76q-194 -325 -218 -614v-8l10 -10
q0 -297 346 -462q442 -179 442 -434q0 -239 -58 -340q-217 -368 -394 -368h-30l-30 18q-24 190 -50 190q-196 -217 -196 -322q0 -116 216 -188q206 0 434 198q246 270 246 594q0 143 -98 482q-59 164 -384 452q-168 90 -168 388q0 66 168 414l-40 142q-191 274 -364 274z
" />
    <glyph glyph-name="agrave" unicode="&#xe0;" horiz-adv-x="1548" 
d="M422 1966q-63 40 -100 40q-10 0 -34 -56q0 -56 502 -378h6l8 6v14q-82 62 -382 374zM798 1496q-136 0 -136 -180v-126q-666 -600 -666 -1120v-64l234 -32q411 0 802 274h26q50 -12 110 -136l-86 -86v-20l50 -10l48 10h50l296 20v22q-249 198 -334 422q0 50 124 74
l172 -10v10q-100 212 -246 328h-12q-60 -210 -124 -210q-80 71 -258 590v128l86 74v10q0 32 -136 32zM748 830h50q148 -290 148 -348v-12l-12 -42q-334 -316 -530 -316h-38l-24 20v86l12 52q0 76 394 560z" />
    <glyph glyph-name="aacute" unicode="&#xe1;" horiz-adv-x="1542" 
d="M1270 1984q-34 0 -100 -40q-289 -304 -382 -374v-14l8 -6h6q502 320 502 378q-21 56 -34 56zM798 1496q-136 0 -136 -180v-126q-666 -600 -666 -1120v-64l234 -32q411 0 802 274h26q50 -12 110 -136l-86 -86v-20l50 -10l48 10h50l296 20v22q-249 198 -334 422
q0 50 124 74l172 -10v10q-100 212 -246 328h-12q-60 -210 -124 -210q-80 71 -258 590v128l86 74v10q0 32 -136 32zM748 830h50q148 -290 148 -348v-12l-12 -42q-334 -316 -530 -316h-38l-24 20v86l12 52q0 76 394 560z" />
    <glyph glyph-name="acircumflex" unicode="&#xe2;" horiz-adv-x="1548" 
d="M852 2184q-125 -125 -144 -178q-111 -261 -188 -332v-6q31 -56 56 -56q99 22 116 44q116 217 166 270h6q124 -338 178 -338l38 44v6q-55 81 -128 282q-69 264 -88 264h-12zM798 1496q-136 0 -136 -180v-126q-666 -600 -666 -1120v-64l234 -32q411 0 802 274h26
q50 -12 110 -136l-86 -86v-20l50 -10l48 10h50l296 20v22q-249 198 -334 422q0 50 124 74l172 -10v10q-100 212 -246 328h-12q-60 -210 -124 -210q-80 71 -258 590v128l86 74v10q0 32 -136 32zM748 830h50q148 -290 148 -348v-12l-12 -42q-334 -316 -530 -316h-38l-24 20v86
l12 52q0 76 394 560z" />
    <glyph glyph-name="atilde" unicode="&#xe3;" horiz-adv-x="1788" 
d="M1236 1988q-14 0 -14 -56q-33 -220 -122 -220l-36 4q-403 230 -450 230q-107 0 -172 -136l-42 -246l24 -20q18 0 18 36q77 220 198 220h46q46 0 142 -84q190 -208 244 -208q32 9 72 52q110 214 110 372zM798 1496q-136 0 -136 -180v-126q-666 -600 -666 -1120v-64
l234 -32q411 0 802 274h26q50 -12 110 -136l-86 -86v-20l50 -10l48 10h50l296 20v22q-249 198 -334 422q0 50 124 74l172 -10v10q-100 212 -246 328h-12q-60 -210 -124 -210q-80 71 -258 590v128l86 74v10q0 32 -136 32zM748 830h50q148 -290 148 -348v-12l-12 -42
q-334 -316 -530 -316h-38l-24 20v86l12 52q0 76 394 560z" />
    <glyph glyph-name="adieresis" unicode="&#xe4;" horiz-adv-x="1548" 
d="M1030 2014q-174 -102 -174 -146q0 -196 226 -226h42l118 120v14q0 113 -212 238zM522 1980q-118 -76 -118 -134q54 -210 172 -210q80 0 174 118v14q0 104 -228 212zM798 1496q-136 0 -136 -180v-126q-666 -600 -666 -1120v-64l234 -32q411 0 802 274h26q50 -12 110 -136
l-86 -86v-20l50 -10l48 10h50l296 20v22q-249 198 -334 422q0 50 124 74l172 -10v10q-100 212 -246 328h-12q-60 -210 -124 -210q-80 71 -258 590v128l86 74v10q0 32 -136 32zM748 830h50q148 -290 148 -348v-12l-12 -42q-334 -316 -530 -316h-38l-24 20v86l12 52
q0 76 394 560z" />
    <glyph glyph-name="aring" unicode="&#xe5;" horiz-adv-x="1556" 
d="M786 2148l-120 -30q-122 -67 -182 -258l16 -88q97 -200 230 -200h56l94 8q230 131 230 302q0 200 -324 266zM730 2046h110q49 -12 64 -194l-8 -36q0 -184 -166 -184q-56 34 -56 102v82q0 43 56 230zM798 1496q-136 0 -136 -180v-126q-666 -600 -666 -1120v-64l234 -32
q411 0 802 274h26q50 -12 110 -136l-86 -86v-20l50 -10l48 10h50l296 20v22q-249 198 -334 422q0 50 124 74l172 -10v10q-100 212 -246 328h-12q-60 -210 -124 -210q-80 71 -258 590v128l86 74v10q0 32 -136 32zM748 830h50q148 -290 148 -348v-12l-12 -42
q-334 -316 -530 -316h-38l-24 20v86l12 52q0 76 394 560z" />
    <glyph glyph-name="ae" unicode="&#xe6;" horiz-adv-x="2472" 
d="M748 830h50q148 -290 148 -348v-12l-12 -42q-334 -316 -530 -316h-38l-24 20v86l12 52q0 76 394 560zM1520 26q136 -26 282 -26q425 0 630 284l-74 44q-314 -208 -482 -208h-74q-44 0 -190 76q-102 72 -102 350v108q0 28 88 34h58q107 0 220 -34l28 34v76q0 82 -44 152
q-192 -76 -262 -76h-44l-60 44v76q105 424 338 424h58q137 0 308 -174q322 200 322 240v34l-44 10q-62 -20 -278 -32l-528 10q-158 -18 -204 -44q-400 -158 -436 -646q-77 159 -182 470v128l86 74v10q0 32 -136 32t-136 -180v-126q-666 -600 -666 -1120v-64l234 -32
q411 0 802 274h26q50 -12 110 -136l-86 -86v-20l50 -10l48 10h50z" />
    <glyph glyph-name="ccedilla" unicode="&#xe7;" horiz-adv-x="1360" 
d="M1272 1494l-788 -54q-470 -178 -470 -714v-206q0 -249 346 -454q180 -54 180 -86l-14 -76q27 -54 110 -54h28l70 32q40 0 40 -20v-34l-14 -10q-54 0 -54 -22q-124 0 -346 66q-70 -24 -70 -142v-22l14 -10q57 0 124 64h42l290 -64v10q222 0 222 120t-152 162l-96 -10h-14
v32h68q95 0 152 22q388 119 388 238h-14q-180 -108 -400 -108h-70q-71 0 -236 64q-152 91 -152 464q0 550 304 682q168 0 180 -162h28q346 239 346 270z" />
    <glyph glyph-name="egrave" unicode="&#xe8;" horiz-adv-x="1446" 
d="M496 2044q-63 40 -100 40q-10 0 -34 -56q0 -56 502 -378h6l8 6v14q-82 61 -382 374zM1450 1494q-62 -20 -278 -32l-528 10q-158 -18 -204 -44q-440 -175 -440 -740v-56q0 -90 102 -348q151 -284 674 -284q425 0 630 284l-74 44q-314 -208 -482 -208h-74q-44 0 -190 76
q-102 72 -102 350v108q0 28 88 34h58q107 0 220 -34l28 34v76q0 82 -44 152q-192 -76 -262 -76h-44l-60 44v76q105 424 338 424h58q137 0 308 -174q322 200 322 240v34z" />
    <glyph glyph-name="eacute" unicode="&#xe9;" horiz-adv-x="1446" 
d="M1304 2052q-34 0 -100 -40q-289 -304 -382 -374v-14l8 -6h6q502 320 502 378q-21 56 -34 56zM1450 1494q-62 -20 -278 -32l-528 10q-158 -18 -204 -44q-440 -175 -440 -740v-56q0 -90 102 -348q151 -284 674 -284q425 0 630 284l-74 44q-314 -208 -482 -208h-74
q-44 0 -190 76q-102 72 -102 350v108q0 28 88 34h58q107 0 220 -34l28 34v76q0 82 -44 152q-192 -76 -262 -76h-44l-60 44v76q105 424 338 424h58q137 0 308 -174q322 200 322 240v34z" />
    <glyph glyph-name="ecircumflex" unicode="&#xea;" horiz-adv-x="1656" 
d="M898 2206q-125 -125 -144 -178q-111 -261 -188 -332v-6q31 -56 56 -56q99 22 116 44q116 217 166 270h6q124 -338 178 -338l38 44v6q-55 81 -128 282q-69 264 -88 264h-12zM1450 1494q-62 -20 -278 -32l-528 10q-158 -18 -204 -44q-440 -175 -440 -740v-56
q0 -90 102 -348q151 -284 674 -284q425 0 630 284l-74 44q-314 -208 -482 -208h-74q-44 0 -190 76q-102 72 -102 350v108q0 28 88 34h58q107 0 220 -34l28 34v76q0 82 -44 152q-192 -76 -262 -76h-44l-60 44v76q105 424 338 424h58q137 0 308 -174q322 200 322 240v34z" />
    <glyph glyph-name="edieresis" unicode="&#xeb;" horiz-adv-x="1648" 
d="M960 1958q-174 -102 -174 -146q0 -196 226 -226h42l118 120v14q0 113 -212 238zM452 1924q-118 -76 -118 -134q54 -210 172 -210q80 0 174 118v14q0 104 -228 212zM1450 1494q-62 -20 -278 -32l-528 10q-158 -18 -204 -44q-440 -175 -440 -740v-56q0 -90 102 -348
q151 -284 674 -284q425 0 630 284l-74 44q-314 -208 -482 -208h-74q-44 0 -190 76q-102 72 -102 350v108q0 28 88 34h58q107 0 220 -34l28 34v76q0 82 -44 152q-192 -76 -262 -76h-44l-60 44v76q105 424 338 424h58q137 0 308 -174q322 200 322 240v34z" />
    <glyph glyph-name="igrave" unicode="&#xec;" horiz-adv-x="798" 
d="M116 2534q-63 40 -100 40q-10 0 -34 -56q0 -56 502 -378h6l8 6v14q-82 62 -382 374zM478 1982q-99 0 -162 -150q66 -138 162 -138q92 0 138 170q-65 118 -138 118zM316 1406q-136 0 -136 -34l74 -84l-12 -310v-856q0 -40 -62 -96v-20q157 -22 410 -22h112l26 22l-64 52
q-62 0 -62 386v426q0 470 76 470q74 0 74 22q0 32 -174 44h-262z" />
    <glyph glyph-name="iacute" unicode="&#xed;" horiz-adv-x="814" 
d="M822 2546q-34 0 -100 -40q-289 -304 -382 -374v-14l8 -6h6q502 320 502 378q-21 56 -34 56zM448 2012q-99 0 -162 -150q66 -138 162 -138q92 0 138 170q-65 118 -138 118zM286 1436q-136 0 -136 -34l74 -84l-12 -310v-856q0 -40 -62 -96v-20q157 -22 410 -22h112l26 22
l-64 52q-62 0 -62 386v426q0 470 76 470q74 0 74 22q0 32 -174 44h-262z" />
    <glyph glyph-name="icircumflex" unicode="&#xee;" horiz-adv-x="790" 
d="M486 2660q-125 -125 -144 -178q-111 -261 -188 -332v-6q31 -56 56 -56q99 22 116 44q116 217 166 270h6q124 -338 178 -338l38 44v6q-55 81 -128 282q-69 264 -88 264h-12zM448 1998q-99 0 -162 -150q66 -138 162 -138q92 0 138 170q-65 118 -138 118zM286 1422
q-136 0 -136 -34l74 -84l-12 -310v-856q0 -40 -62 -96v-20q157 -22 410 -22h112l26 22l-64 52q-62 0 -62 386v426q0 470 76 470q74 0 74 22q0 32 -174 44h-262z" />
    <glyph glyph-name="idieresis" unicode="&#xef;" horiz-adv-x="782" 
d="M606 2534q-174 -102 -174 -146q0 -196 226 -226h42l118 120v14q0 113 -212 238zM98 2500q-118 -76 -118 -134q54 -210 172 -210q80 0 174 118v14q0 104 -228 212zM448 1998q-99 0 -162 -150q66 -138 162 -138q92 0 138 170q-65 118 -138 118zM286 1422q-136 0 -136 -34
l74 -84l-12 -310v-856q0 -40 -62 -96v-20q157 -22 410 -22h112l26 22l-64 52q-62 0 -62 386v426q0 470 76 470q74 0 74 22q0 32 -174 44h-262z" />
    <glyph glyph-name="eth" unicode="&#xf0;" horiz-adv-x="1478" 
d="M282 2526q-92 -101 -178 -294v-10l10 -12l116 12q113 0 218 -132q-147 -196 -312 -358v-12q250 -193 250 -228v-12q-386 -323 -386 -740v-32q0 -184 146 -436q158 -194 510 -272q222 0 396 66q386 215 386 686v152q0 85 -52 206q-131 357 -666 970q98 196 302 196v10
l-220 218h-10l-84 -54q-112 -196 -176 -196h-22l-146 130l-72 142h-10zM416 1502v186q102 272 198 272h12l30 -22q244 -283 250 -392zM334 762q0 271 62 414q101 262 510 262h42q84 -96 84 -316v-404q-99 -598 -198 -598h-136q-60 0 -176 44q-188 103 -188 554v44z" />
    <glyph glyph-name="ntilde" unicode="&#xf1;" horiz-adv-x="1612" 
d="M1286 2152q-14 0 -14 -56q-33 -220 -122 -220l-36 4q-403 230 -450 230q-107 0 -172 -136l-42 -246l24 -20q18 0 18 36q77 220 198 220h46q46 0 142 -84q190 -208 244 -208q32 9 72 52q110 214 110 372zM1034 1518q-215 0 -560 -124h-16l-348 80q-141 -43 -228 -124v-12
q0 -42 288 -78q70 0 76 -540l-16 -202v-294q0 -94 -226 -180v-10q12 -34 90 -34h106l546 22v22q-136 54 -136 350l16 798q30 168 212 168h60q243 0 288 -236v-134q0 -310 -258 -946q0 -44 274 -44h318l76 12q0 38 -46 78q-164 65 -182 90v22q198 510 198 754v34l-16 146
q0 274 -516 382z" />
    <glyph glyph-name="ograve" unicode="&#xf2;" horiz-adv-x="1518" 
d="M356 2004q-63 40 -100 40q-10 0 -34 -56q0 -56 502 -378h6l8 6v14q-82 61 -382 374zM624 1510q-102 0 -194 -52q-430 -271 -430 -744q0 -80 108 -332q271 -382 644 -382q614 0 710 724v52q0 403 -300 640q-136 51 -464 94h-74zM366 848q0 296 74 382q72 176 280 176h76
q344 -162 344 -486v-330q-96 -476 -290 -476h-44q-180 0 -246 42q-194 118 -194 486v206z" />
    <glyph glyph-name="oacute" unicode="&#xf3;" horiz-adv-x="1518" 
d="M1212 2042q-34 0 -100 -40q-289 -304 -382 -374v-14l8 -6h6q502 320 502 378q-21 56 -34 56zM624 1510q-102 0 -194 -52q-430 -271 -430 -744q0 -80 108 -332q271 -382 644 -382q614 0 710 724v52q0 403 -300 640q-136 51 -464 94h-74zM366 848q0 296 74 382
q72 176 280 176h76q344 -162 344 -486v-330q-96 -476 -290 -476h-44q-180 0 -246 42q-194 118 -194 486v206z" />
    <glyph glyph-name="ocircumflex" unicode="&#xf4;" horiz-adv-x="1518" 
d="M762 2234q-125 -125 -144 -178q-111 -261 -188 -332v-6q31 -56 56 -56q99 22 116 44q116 217 166 270h6q124 -338 178 -338l38 44v6q-55 81 -128 282q-69 264 -88 264h-12zM624 1510q-102 0 -194 -52q-430 -271 -430 -744q0 -80 108 -332q271 -382 644 -382
q614 0 710 724v52q0 403 -300 640q-136 51 -464 94h-74zM366 848q0 296 74 382q72 176 280 176h76q344 -162 344 -486v-330q-96 -476 -290 -476h-44q-180 0 -246 42q-194 118 -194 486v206z" />
    <glyph glyph-name="otilde" unicode="&#xf5;" horiz-adv-x="1518" 
d="M1144 2084q-14 0 -14 -56q-33 -220 -122 -220l-36 4q-403 230 -450 230q-107 0 -172 -136l-42 -246l24 -20q18 0 18 36q77 220 198 220h46q46 0 142 -84q190 -208 244 -208q32 9 72 52q110 214 110 372zM624 1510q-102 0 -194 -52q-430 -271 -430 -744q0 -80 108 -332
q271 -382 644 -382q614 0 710 724v52q0 403 -300 640q-136 51 -464 94h-74zM366 848q0 296 74 382q72 176 280 176h76q344 -162 344 -486v-330q-96 -476 -290 -476h-44q-180 0 -246 42q-194 118 -194 486v206z" />
    <glyph glyph-name="odieresis" unicode="&#xf6;" horiz-adv-x="1518" 
d="M924 1998q-174 -102 -174 -146q0 -196 226 -226h42l118 120v14q0 113 -212 238zM416 1964q-118 -76 -118 -134q54 -210 172 -210q80 0 174 118v14q0 104 -228 212zM624 1510q-102 0 -194 -52q-430 -271 -430 -744q0 -80 108 -332q271 -382 644 -382q614 0 710 724v52
q0 403 -300 640q-136 51 -464 94h-74zM366 848q0 296 74 382q72 176 280 176h76q344 -162 344 -486v-330q-96 -476 -290 -476h-44q-180 0 -246 42q-194 118 -194 486v206z" />
    <glyph glyph-name="divide" unicode="&#xf7;" 
d="M1026 2210q-140 0 -140 -116q18 -204 152 -204q114 63 114 174q0 113 -126 146zM1802 1730q-202 -190 -394 -190h-802q-263 0 -420 160h-12l-26 -508q12 -102 38 -102h26l64 44q0 112 1132 232h164q93 0 256 -160q38 0 50 262q-15 262 -64 262h-12zM1014 1062
q-85 0 -180 -146v-44q0 -120 128 -160q108 0 166 218q0 54 -90 132h-24z" />
    <glyph glyph-name="oslash" unicode="&#xf8;" horiz-adv-x="1494" 
d="M926 1518q-544 0 -690 -214q-167 -161 -236 -516l22 -136q147 -616 624 -652h108q172 0 280 34q420 210 420 730v46q0 176 -108 404q-280 304 -420 304zM398 540v326q48 540 334 540h98q118 -12 118 -68v-34q0 -39 -518 -820h-20zM496 224q0 74 128 214q309 520 400 608
h10q32 0 32 -202v-472l-22 -68q-85 -260 -322 -260h-22q-78 0 -204 180z" />
    <glyph glyph-name="ugrave" unicode="&#xf9;" horiz-adv-x="1336" 
d="M404 2022q-63 40 -100 40q-10 0 -34 -56q0 -56 502 -378h6l8 6v14q-82 61 -382 374zM22 1510l-22 -22q78 -66 78 -138v-728l24 -226q144 -396 508 -396h10q186 0 338 128q203 -118 316 -118l46 12v10q-24 42 -68 42q-136 79 -136 548v10l12 524q0 215 146 300
q0 38 -146 44l-236 -32v-22q90 -87 90 -440v-514l-12 -138q-210 -246 -304 -246q-204 0 -204 438v428l12 246q0 166 136 248v20l-46 12l-124 -12h-112z" />
    <glyph glyph-name="uacute" unicode="&#xfa;" horiz-adv-x="1328" 
d="M1200 2062q-34 0 -100 -40q-289 -304 -382 -374v-14l8 -6h6q502 320 502 378q-21 56 -34 56zM22 1510l-22 -22q78 -66 78 -138v-728l24 -226q144 -396 508 -396h10q186 0 338 128q203 -118 316 -118l46 12v10q-24 42 -68 42q-136 79 -136 548v10l12 524q0 215 146 300
q0 38 -146 44l-236 -32v-22q90 -87 90 -440v-514l-12 -138q-210 -246 -304 -246q-204 0 -204 438v428l12 246q0 166 136 248v20l-46 12l-124 -12h-112z" />
    <glyph glyph-name="ucircumflex" unicode="&#xfb;" horiz-adv-x="1320" 
d="M766 2266q-125 -125 -144 -178q-111 -261 -188 -332v-6q31 -56 56 -56q99 22 116 44q116 217 166 270h6q124 -338 178 -338l38 44v6q-55 81 -128 282q-69 264 -88 264h-12zM22 1510l-22 -22q78 -66 78 -138v-728l24 -226q144 -396 508 -396h10q186 0 338 128
q203 -118 316 -118l46 12v10q-24 42 -68 42q-136 79 -136 548v10l12 524q0 215 146 300q0 38 -146 44l-236 -32v-22q90 -87 90 -440v-514l-12 -138q-210 -246 -304 -246q-204 0 -204 438v428l12 246q0 166 136 248v20l-46 12l-124 -12h-112z" />
    <glyph glyph-name="udieresis" unicode="&#xfc;" horiz-adv-x="1320" 
d="M914 2076q-174 -102 -174 -146q0 -196 226 -226h42l118 120v14q0 113 -212 238zM406 2042q-118 -76 -118 -134q54 -210 172 -210q80 0 174 118v14q0 104 -228 212zM22 1510l-22 -22q78 -66 78 -138v-728l24 -226q144 -396 508 -396h10q186 0 338 128q203 -118 316 -118
l46 12v10q-24 42 -68 42q-136 79 -136 548v10l12 524q0 215 146 300q0 38 -146 44l-236 -32v-22q90 -87 90 -440v-514l-12 -138q-210 -246 -304 -246q-204 0 -204 438v428l12 246q0 166 136 248v20l-46 12l-124 -12h-112z" />
    <glyph glyph-name="yacute" unicode="&#xfd;" horiz-adv-x="1428" 
d="M1200 2024q-34 0 -100 -40q-289 -304 -382 -374v-14l8 -6h6q502 320 502 378q-21 56 -34 56zM322 1494q-344 -6 -344 -54v-10l24 -22h110q94 0 100 -32v-22l-100 -528l26 -206q133 -410 528 -410l294 22l24 -22v-86l-24 -194q-190 -322 -356 -322h-122l-86 64
q-36 184 -74 184q-32 0 -50 -76l24 -130q108 -280 406 -280h134q86 0 136 22q332 173 332 410v10l-38 528q0 555 38 1024q0 86 134 86v34l-62 10q-564 -12 -564 -76v-10q50 0 50 -22q134 0 134 -970v-22q-52 -76 -172 -76l-134 34q-196 118 -196 452q0 329 134 646l-12 34z
" />
    <glyph glyph-name="thorn" unicode="&#xfe;" horiz-adv-x="1436" 
d="M156 2896q-124 -27 -124 -72l68 -94q62 0 62 -570l-14 -840l8 -902v-20q0 -283 -156 -436l16 -20l92 42h296l78 -10v10q76 0 76 30v10q-124 97 -124 530v206q0 114 24 114h16q246 -114 496 -114q78 0 156 42q294 219 294 632q0 472 -226 746q-74 74 -294 146
q-153 -6 -434 -166h-16l24 280q21 374 124 374v20q-17 27 -102 62l-124 -32h-92zM458 1994q186 186 388 186h24l38 -10q170 -134 170 -560v-268l-38 -176q-96 -250 -178 -250h-24q-227 0 -396 124z" />
    <glyph glyph-name="Ydieresis" unicode="&#xff;" horiz-adv-x="1436" 
d="M952 2022q-174 -102 -174 -146q0 -196 226 -226h42l118 120v14q0 113 -212 238zM444 1988q-118 -76 -118 -134q54 -210 172 -210q80 0 174 118v14q0 104 -228 212zM322 1494q-344 -6 -344 -54v-10l24 -22h110q94 0 100 -32v-22l-100 -528l26 -206q133 -410 528 -410
l294 22l24 -22v-86l-24 -194q-190 -322 -356 -322h-122l-86 64q-36 184 -74 184q-32 0 -50 -76l24 -130q108 -280 406 -280h134q86 0 136 22q332 173 332 410v10l-38 528q0 555 38 1024q0 86 134 86v34l-62 10q-564 -12 -564 -76v-10q50 0 50 -22q134 0 134 -970v-22
q-52 -76 -172 -76l-134 34q-196 118 -196 452q0 329 134 646l-12 34z" />
    <glyph glyph-name="dotlessi" unicode="&#x131;" horiz-adv-x="1002" 
d="M386 1958l-18 -14q-138 -241 -256 -276q-216 -33 -216 -48v-10q70 -76 224 -118l180 34h18l8 -20l-8 -1322q0 -75 -156 -156v-6q0 -13 40 -22l76 8q42 0 48 -22l68 14h216l72 14l74 -6l26 6v14l-50 42q-92 0 -92 1400q0 278 26 424q-49 64 -116 64h-164z" />
    <glyph glyph-name="circumflex" unicode="&#x2c6;" horiz-adv-x="2048" 
d="M1096 2904q-269 -160 -304 -222q-233 -325 -398 -414v-8q64 -70 118 -70q202 24 244 54q246 272 352 338h12q259 -422 374 -422l82 54v8q-122 104 -270 352q-147 330 -186 330h-24z" />
    <glyph glyph-name="caron" unicode="&#x2c7;" horiz-adv-x="2048" 
d="M792 2382q35 -59 304 -222h24q39 0 186 330q148 251 270 352v8l-82 54q-117 0 -374 -422h-12q-107 69 -352 338q-42 30 -244 54q-57 0 -118 -70v-8q165 -86 398 -414z" />
    <glyph glyph-name="firsttonechinese" unicode="&#x2c9;" horiz-adv-x="2048" 
d="M1470 2660q-36 -36 -142 -36h-174q-157 0 -340 -18l-276 30h-12q-46 0 -52 -24l20 -166l-8 -36l14 -12h6q51 48 78 48h108l276 12h270q202 -12 250 -30h14l6 18l-6 26v6q0 182 -32 182z" />
    <glyph glyph-name="breve" unicode="&#x2d8;" horiz-adv-x="2048" 
d="M744 2214l194 -58h12q330 0 544 286q132 129 132 228q-15 53 -60 74q-98 0 -98 -130q-84 -30 -120 -148q-197 -74 -278 -74q-377 0 -482 222q-33 138 -122 138q-50 -13 -72 -40v-18q102 -307 350 -480z" />
    <glyph glyph-name="dotaccent" unicode="&#x2d9;" horiz-adv-x="2048" 
d="M996 2740h-10q-190 -121 -190 -314q0 -96 150 -138q248 81 248 238q-107 214 -198 214z" />
    <glyph glyph-name="ring" unicode="&#x2da;" horiz-adv-x="2048" 
d="M978 2896l-142 -38q-146 -86 -218 -336l20 -116q117 -258 274 -258h66l114 10q276 174 276 392q0 262 -390 346zM912 2762h132q60 -12 78 -250l-10 -48q0 -238 -200 -238q-66 42 -66 132v106q0 67 66 298z" />
    <glyph glyph-name="ogonek" unicode="&#x2db;" horiz-adv-x="2048" 
d="M1026 34q-20 32 -122 -46q-264 -393 -56 -682l6 -8q75 -105 230 -150q223 -9 390 170q26 59 0 94q-29 47 -100 16q-225 -12 -316 112l-6 8q-102 144 -72 318q72 135 56 154z" />
    <glyph glyph-name="tilde" unicode="&#x2dc;" horiz-adv-x="2048" 
d="M1526 2834q-18 0 -18 -62q-39 -242 -150 -242l-44 6q-495 252 -550 252q-128 0 -212 -150l-50 -270l28 -22q22 0 22 38q96 242 244 242h58q55 0 172 -90q233 -230 300 -230q42 13 88 56q134 238 134 410z" />
    <glyph glyph-name="hungarumlaut" unicode="&#x2dd;" horiz-adv-x="2048" 
d="M1114 2914q-61 0 -178 -54l-170 -262q-302 -368 -302 -448l24 -16h22q219 222 426 364q211 217 254 352q-46 58 -76 64zM1552 2906q-60 0 -180 -54l-170 -260q-300 -366 -300 -450l24 -16h22q216 219 424 364q213 216 256 352q-46 57 -76 64z" />
    <glyph glyph-name="endash" unicode="&#x2013;" horiz-adv-x="2216" 
d="M112 838h1992v240h-1992v-240z" />
    <glyph glyph-name="emdash" unicode="&#x2014;" horiz-adv-x="4096" 
d="M0 838h4096v240h-4096v-240z" />
    <glyph glyph-name="quoteleft" unicode="&#x2018;" horiz-adv-x="1114" 
d="M570 2046q156 0 246 304v34l-130 152v186q0 118 58 304q-48 102 -72 102q-30 0 -30 -50q-165 -245 -288 -796v-50q108 -186 216 -186z" />
    <glyph glyph-name="quoteright" unicode="&#x2019;" horiz-adv-x="1114" 
d="M600 3128q-157 0 -246 -304v-34l130 -152v-186q0 -124 -58 -304q48 -102 72 -102q30 0 30 50q168 249 288 796v50q-105 186 -216 186z" />
    <glyph glyph-name="quotesinglbase" unicode="&#x201a;" horiz-adv-x="1114" 
d="M586 534q-157 0 -246 -304v-34l130 -152v-186q0 -124 -58 -304q48 -102 72 -102q30 0 30 50q168 249 288 796v50q-105 186 -216 186z" />
    <glyph glyph-name="quotedblleft" unicode="&#x201c;" horiz-adv-x="1820" 
d="M522 2046q156 0 246 304v34l-130 152v186q0 118 58 304q-48 102 -72 102q-30 0 -30 -50q-165 -245 -288 -796v-50q108 -186 216 -186zM1168 2046q156 0 246 304v34l-130 152v186q0 118 58 304q-48 102 -72 102q-30 0 -30 -50q-165 -245 -288 -796v-50q108 -186 216 -186z
" />
    <glyph glyph-name="quotedblright" unicode="&#x201d;" horiz-adv-x="1820" 
d="M1198 3128q-157 0 -246 -304v-34l130 -152v-186q0 -124 -58 -304q48 -102 72 -102q30 0 30 50q168 249 288 796v50q-105 186 -216 186zM552 3128q-157 0 -246 -304v-34l130 -152v-186q0 -124 -58 -304q48 -102 72 -102q30 0 30 50q168 249 288 796v50q-105 186 -216 186z
" />
    <glyph glyph-name="quotedblbase" unicode="&#x201e;" horiz-adv-x="1820" 
d="M1268 510q-157 0 -246 -304v-34l130 -152v-186q0 -124 -58 -304q48 -102 72 -102q30 0 30 50q168 249 288 796v50q-105 186 -216 186zM622 510q-157 0 -246 -304v-34l130 -152v-186q0 -124 -58 -304q48 -102 72 -102q30 0 30 50q168 249 288 796v50q-105 186 -216 186z
" />
    <glyph glyph-name="dagger" unicode="&#x2020;" 
d="M992 2926q-94 -38 -334 -690q182 -424 182 -492v-12l-258 12q-424 -84 -424 -132v-22q117 -120 364 -208l60 12h136l152 10v-44q0 -122 -182 -722l212 -438q123 -438 166 -438h32l256 876q-166 546 -166 634v56l16 10l196 -32q194 48 394 186v10q-200 176 -318 176
l-288 -32h-76v10q0 89 182 526q-234 744 -302 744z" />
    <glyph glyph-name="daggerdbl" unicode="&#x2021;" 
d="M1046 2772h-30q-266 -260 -346 -494l-496 -268v-40q250 -77 466 -196h14l76 30l30 -30l-90 -186q240 -264 240 -318v-30q0 -53 -164 -268l194 -330v-10l-60 10q-226 104 -270 104q-120 -52 -452 -258v-10q0 -42 496 -186h30l152 72h74v-10q-120 -147 -120 -196v-72
l-14 -10l120 -226q102 -298 136 -298h30l14 10l226 524v12q-120 153 -120 184v20h44l122 -40q556 152 556 206v10l-496 186h-16q-52 0 -150 -52h-16v52l90 266v10q-240 246 -240 288q0 166 196 392l-90 206v20h30l150 -42q309 141 406 238q-306 184 -360 184l-166 -40h-16
v10q0 38 122 258l-106 102q-132 204 -196 216zM700 2258h30l30 -20v-22h-30l-30 22v20z" />
    <glyph glyph-name="bullet" unicode="&#x2022;" horiz-adv-x="2048" 
d="M1028 2022h-32q-586 -319 -586 -830q0 -250 462 -364q772 209 772 630q-342 564 -616 564z" />
    <glyph glyph-name="ellipsis" unicode="&#x2026;" horiz-adv-x="4096" 
d="M2026 474q-208 0 -262 -306q0 -106 242 -170q206 60 206 204q0 189 -130 272h-56zM3590 474q-278 -30 -278 -238q0 -156 242 -204q242 0 242 154q-51 288 -206 288zM572 458q-280 -111 -280 -290v-16q106 -136 260 -136h76l112 102q-18 280 -168 340z" />
    <glyph glyph-name="guilsinglleft" unicode="&#x2039;" horiz-adv-x="1262" 
d="M1032 1580q-37 0 -196 -112q-255 -157 -608 -498v-18q162 -156 390 -318l372 -248q29 0 54 50q0 53 -104 106q-255 126 -480 360v6l140 150q360 258 414 324v54q0 78 24 144h-6z" />
    <glyph glyph-name="guilsinglright" unicode="&#x203a;" horiz-adv-x="1262" 
d="M436 1468q-159 112 -196 112h-6q24 -66 24 -144v-54q57 -66 414 -324l140 -150v-6q-222 -234 -480 -360q-104 -55 -104 -106q28 -50 54 -50l372 248q228 162 390 318v18q-345 336 -608 498z" />
    <glyph glyph-name="fraction" unicode="&#x2044;" horiz-adv-x="684" 
d="M1478 2850q-159 -42 -622 -72v-32l92 -80v-40q0 -154 -440 -890q-219 -399 -484 -768q-284 -501 -504 -778q0 -20 -270 -194v-22l192 -20h224q236 0 236 42v10l-78 80q0 43 78 154q865 1371 1258 2232q63 186 372 348l-34 30h-20z" />
    <glyph glyph-name="fraction" unicode="&#x2215;" horiz-adv-x="684" 
d="M1478 2850q-159 -42 -622 -72v-32l92 -80v-40q0 -154 -440 -890q-219 -399 -484 -768q-284 -501 -504 -778q0 -20 -270 -194v-22l192 -20h224q236 0 236 42v10l-78 80q0 43 78 154q865 1371 1258 2232q63 186 372 348l-34 30h-20z" />
    <glyph glyph-name="franc" unicode="&#x20a3;" horiz-adv-x="2582" 
d="M1044 2818q-307 0 -540 -236l20 -20h10q242 118 286 118h10v-98q31 0 82 -1570q0 -68 -714 -68h-10q-26 0 -62 -296l10 -30h20l52 58q0 83 704 158l20 -474q0 -172 -184 -314v-20q0 -38 174 -50l152 20h286l52 10v20l-72 58q-92 0 -92 712q0 48 72 48h142q304 0 378 -98
h30l52 276h-10v20h-22l-102 -40l-550 -10l-10 50v98l10 306q0 158 82 158l346 10l204 -20q34 0 52 148h-10l-12 60q0 30 -20 30h-10q-116 -70 -162 -70h-440q-15 24 -60 878v10l10 10q67 0 184 -88q460 -460 600 -524q338 0 572 720l-50 50h-22q-229 -326 -438 -326h-92
l-92 20q-594 306 -754 306h-82z" />
    <glyph glyph-name="afii08941" unicode="&#x20a4;" 
d="M360 2582q15 124 60 124q160 -212 172 -320v-42l-10 -10q-222 84 -222 228v20zM1480 384q24 64 222 82h44q102 -24 102 -154q0 -156 -76 -156h-10q-137 0 -282 206v22zM948 1106q-88 -4 -132 -8l-344 26h-16q-58 0 -64 -22l24 -144l-8 -34l16 -10h8q62 44 96 44h136
l322 10q33 -125 50 -202q146 -307 146 -352v-10q-506 -238 -660 -238h-120q-94 0 -94 84v20l10 10q256 57 256 82l-34 32q-462 -18 -462 -62q126 -330 368 -330h60q145 0 316 52q358 206 394 206h34q136 -151 358 -310q157 54 172 82q129 0 162 310q0 251 -282 290
q-50 0 -222 -104h-18l-42 52q-42 143 -110 388h76q245 -9 312 -28h16l8 18l-8 20v6q0 162 -40 162q-48 -32 -176 -32h-226q-48 195 -48 260v32h290q41 0 76 -62h10q81 0 180 268l-36 30h-8l-8 -10q-109 -82 -444 -82h-120l-120 516v40l8 12q456 0 710 278q143 81 248 392
q-17 52 -60 52l-394 20l-34 -30v-10q248 -115 248 -186l-8 -62q-243 -330 -650 -330h-86l-42 10q-132 424 -240 526q0 68 -264 134v-10q-258 -48 -258 -300q0 -129 198 -288q237 -117 264 -156q162 -405 162 -568v-10q-179 -17 -264 -50l-60 60h-18q-110 -125 -110 -196v-20
l16 -20h18l120 52h316q42 0 126 -300z" />
    <glyph glyph-name="peseta" unicode="&#x20a7;" horiz-adv-x="4056" 
d="M196 2882l-38 -206q0 -151 216 -214q46 0 46 -134l10 -768q-42 -1374 -74 -1374q0 -95 -104 -134v-20q0 -72 254 -72h46q146 0 234 50v32q-84 87 -84 122v1242q267 -64 460 -82l150 20q38 0 38 -226v-102l18 -32q58 26 58 62q167 236 328 236h74v-1240l-64 -82l8 -32
l28 12q424 36 424 60v10q0 30 -66 42q-56 0 -56 318v696l18 226h104q186 0 422 -164l74 -112h20q40 0 46 368l-84 22l-1126 -10l-28 10v20q234 273 234 512q0 128 -66 380q-201 440 -506 440q-192 0 -582 -60h-94q-115 0 -320 184h-18zM722 2616q150 60 422 60h28
q272 0 272 -656l-28 -318q-168 -246 -300 -246h-132q-119 0 -290 72zM3012 1446l-10 -10q-140 0 -206 -298q18 -63 46 -72h20q54 186 150 186h74l28 -20v-22q-224 -166 -224 -390q0 -147 160 -204l92 10q270 174 302 174h46q104 -42 104 -226v-122q0 -103 -56 -256
q-109 -196 -274 -196h-84q-33 16 -56 92q0 258 -140 258q-86 0 -122 -154l8 -52q96 -246 348 -246h272q432 153 432 492l-28 164q-108 338 -356 338l-366 -50q-114 6 -114 50v22q0 133 178 214h48l318 -82h20q228 0 282 154q0 71 -142 216h-28l-10 -10q-42 -256 -186 -256
l-58 10q-310 286 -468 286z" />
    <glyph glyph-name="Euro" unicode="&#x20ac;" 
d="M974 2928l-304 -98q-670 -349 -670 -1456v-68q0 -108 148 -624q0 -76 166 -336q346 -346 630 -346q148 0 444 128q232 140 404 140h18l158 -60v10l30 30q0 59 -246 266q-188 -257 -552 -386l-118 20q-158 0 -394 148q-304 442 -304 762v10q0 60 344 60h178l364 10
q148 0 206 188l-40 40h-28l-20 -20l-296 -10h-284l-424 -30v60q0 178 40 316q0 46 856 58q151 0 256 198v40l-30 10l-70 -30q0 -58 -904 -58l-70 -10v48q0 46 100 298q305 544 628 544h100q102 0 236 -70q144 -138 186 -138h20q159 131 256 258v8l-20 20h-20l-274 -138
l-40 20q0 74 -660 188z" />
    <glyph glyph-name="afii61352" unicode="&#x2116;" horiz-adv-x="4542" 
d="M600 2872q-174 -120 -174 -196l22 -22h10q34 0 76 32h10q260 -72 260 -156l54 -1580q-24 -816 -64 -816l-108 -62v-22l54 -82l86 42l390 -10h184q83 0 108 50q0 20 -120 62q-76 0 -118 1220l10 104v516l12 42v10q34 0 280 -258q427 -546 704 -1188q210 -580 280 -580h22
q70 0 98 62l22 2274q47 136 226 506l-22 20h-366q-142 -6 -142 -40v-10q152 -57 152 -342l-22 -910l32 -754h-20l-12 10q-112 293 -302 632l-822 970q-317 476 -780 476h-20zM3542 2830q-66 -6 -66 -20q-282 0 -530 -352q-56 0 -140 -496q0 -254 172 -486q248 -206 498 -206
h10q174 18 174 42q444 162 444 660q0 391 -152 570q-221 245 -410 288zM3130 1798v392q75 444 292 444l174 -30q216 -165 216 -580q0 -180 -44 -362q-78 -216 -390 -216h-54q-194 61 -194 352zM2990 1032q-131 0 -206 -72v-10l10 -10q24 -166 98 -166h22q69 52 184 52h714
q194 0 356 -42h12l10 52v52q0 144 -44 144h-1156z" />
    <glyph glyph-name="trademark" unicode="&#x2122;" horiz-adv-x="3126" 
d="M2928 2690q-125 -31 -312 -256q-163 -287 -192 -304h-24l-8 8q-285 480 -552 480q-113 0 -160 -64v-16l24 -8l80 16h32q56 -454 56 -904q0 -93 -32 -128q-56 -6 -56 -24q0 -12 40 -24l192 8l72 -8l56 16v16l-40 32q-26 0 -56 800l8 48q59 0 160 -208q122 -356 184 -400
l80 112q231 504 264 504h24l16 -112v-352q0 -300 -72 -336q-56 -56 -56 -88t200 -32h8q200 0 200 32v8l-64 64q-30 944 -56 944l16 32q96 15 96 32v32q0 44 -128 80zM1424 2602l-1392 -16q-26 -6 -32 -32q27 -304 56 -304q167 232 464 232h32q48 0 48 -384v-272
q0 -168 -24 -288q-72 -27 -72 -40q0 -36 208 -48l112 16l184 -8v40q-104 0 -104 888v144l8 8q80 -12 80 -24q429 -119 488 -224q17 0 32 48l-16 224q0 22 -72 40z" />
    <glyph glyph-name="partialdiff" unicode="&#x2202;" 
d="M1272 2634q-298 277 -298 316h-30l-10 -30q446 -712 446 -836v-40q-237 0 -564 -144q-448 -269 -604 -620q-80 -222 -80 -336q0 -520 238 -674q279 -264 506 -264h118q389 0 624 326q106 0 238 672v52q0 692 -584 1578zM1450 1860q46 0 70 -428q0 -1026 -506 -1304
q-40 -20 -110 -20h-118q-186 0 -268 326l-10 194v132q0 344 278 824q228 276 564 276h100z" />
    <glyph glyph-name="Delta" unicode="&#x2206;" horiz-adv-x="2162" 
d="M1060 2796q-6 30 -52 30q-29 0 -116 -434l-314 -1204q-225 -762 -268 -848q-160 -278 -160 -324v-10q0 -30 36 -30l1062 102h420l294 -42q108 15 108 42v10q0 25 -142 262q-438 1080 -564 1506zM1560 310v-20l-312 20l-786 -102h-8q0 36 124 354q332 1311 384 1436h10
q16 0 142 -416q116 -448 446 -1272z" />
    <glyph glyph-name="product" unicode="&#x220f;" horiz-adv-x="3030" 
d="M790 2920l-296 -14q-78 0 -78 -222q0 -704 66 -1820l-26 -982q0 -566 -362 -656q0 -54 64 -78q6 37 440 52l464 -12q78 12 78 38v26l-90 132q-93 0 -156 1506v274l52 1232l-14 262v14l1434 -14l52 -14l-40 -2264l14 -682l-14 -158q0 -166 -194 -262v-12q0 -28 66 -40
l244 26l452 -12l52 38l-26 40q-171 0 -232 158q-116 0 -116 2094l12 918l-38 340q0 92 -1808 92z" />
    <glyph glyph-name="summation" unicode="&#x2211;" horiz-adv-x="2412" 
d="M1628 2826l-1332 -26q-43 -12 -52 -52q114 -252 1224 -1668v-26q-162 -226 -214 -262q-695 -990 -1144 -1550v-14q0 -37 186 -52h586q1104 72 1104 104q280 86 280 340v12q-6 40 -106 40h-68q-74 0 -252 -184q0 -116 -1264 -116v26q0 58 92 156q360 576 666 990
q397 445 426 536l-40 90l-332 352q-639 812 -758 1096l26 26h120q699 0 932 -118q73 -170 372 -170h26q45 0 66 196v40q0 234 -518 234h-26z" />
    <glyph glyph-name="minus" unicode="&#x2212;" 
d="M1838 1580q-60 -48 -244 -48h-298q-272 0 -584 -24l-476 40h-22q-82 0 -88 -32l34 -216l-12 -48l22 -16h12q81 64 132 64h188l474 16h464q342 -15 430 -40h22l12 24l-12 32v8q0 240 -54 240z" />
    <glyph glyph-name="radical" unicode="&#x221a;" horiz-adv-x="2124" 
d="M1912 3338q-250 0 -316 -186q-303 -897 -858 -2826h-26q-44 57 -158 736q-96 456 -382 456q-172 -21 -172 -140q36 -246 92 -246l132 36q166 0 238 -666q77 -410 224 -502h26q187 0 290 106q505 1888 686 2416q0 274 198 466l158 -12l40 256q0 91 -172 106z" />
    <glyph glyph-name="infinity" unicode="&#x221e;" horiz-adv-x="2550" 
d="M556 2100q-93 -16 -152 -42q-254 -184 -254 -434q0 -47 32 -162q247 -548 630 -548q134 0 362 138q129 114 158 114l96 -54q285 -156 476 -174h70q63 15 222 132q204 330 204 512v18q0 190 -184 350q0 60 -312 102q-191 0 -496 -272q-177 -192 -196 -192h-14l-266 278
q-90 147 -376 234zM232 1690q0 42 14 66q0 92 146 122h24q231 0 650 -488v-12q-115 -170 -350 -170h-38q-95 0 -286 80q-160 151 -160 312v90zM1478 1336v12q348 420 662 420h38q128 0 146 -96q0 -159 -96 -306q-194 -176 -304 -176h-160q-227 64 -286 146z" />
    <glyph glyph-name="integral" unicode="&#x222b;" horiz-adv-x="1330" 
d="M1250 3418q-184 -112 -184 -152q-214 -208 -340 -626q-79 0 -298 -2336q-84 -528 -148 -528h-10l-148 56q-84 0 -122 -154q42 -250 140 -250q169 0 368 722q96 477 348 2100q162 805 228 820l70 -28q166 83 166 250v14q0 94 -70 112z" />
    <glyph glyph-name="approxequal" unicode="&#x2248;" 
d="M444 1960h-84q-160 -95 -242 -314l22 -122l126 26q348 216 420 216h94q57 0 398 -230l306 -228q260 200 388 556v12l-32 36l-62 -36q-154 -266 -284 -266l-84 12q-736 338 -966 338zM716 1404l-104 -24q-300 -270 -368 -472v-24q6 -25 52 -48q205 27 462 290h64l62 -12
q484 -254 536 -254q200 0 442 290v12l-32 48q-303 -180 -462 -180l-126 24q-416 350 -526 350z" />
    <glyph glyph-name="lessequal" unicode="&#x2264;" horiz-adv-x="2274" 
d="M1652 2322q-472 -424 -1006 -742l-504 -194v-22q12 -28 520 -118q575 -60 1274 -592h16q94 38 94 96q0 53 -268 226q-229 141 -724 334v12q85 76 316 172q660 468 660 656h-16q0 151 -362 172zM2030 180l-1762 -32q-77 0 -110 -172q12 -54 46 -54h32l94 22q0 64 1102 64
h346q104 0 284 -54q31 0 110 140v10l-16 12q-126 45 -126 64z" />
    <glyph glyph-name="greaterequal" unicode="&#x2265;" horiz-adv-x="2298" 
d="M662 654q481 430 1006 742l504 194v22q-11 28 -520 118q-571 60 -1274 592h-16q-94 -36 -94 -96q0 -51 268 -226q223 -137 724 -334v-12q-88 -76 -316 -172q-660 -468 -660 -656h16q0 -148 362 -172zM2046 148l-1762 32q0 -19 -126 -64l-16 -12v-10q79 -140 110 -140
q180 54 284 54h346q1102 0 1102 -64l94 -22h32q34 0 46 54q-30 172 -110 172z" />
    <glyph glyph-name="uniF001" unicode="&#xf001;" horiz-adv-x="2146" 
 />
    <glyph glyph-name="uniF001" unicode="&#xfb01;" horiz-adv-x="2146" 
 />
    <glyph glyph-name="uniF002" unicode="&#xf002;" horiz-adv-x="2162" 
 />
    <glyph glyph-name="uniF002" unicode="&#xfb02;" horiz-adv-x="2162" 
 />
  </font>
</defs>
</svg>
