<?xml version="1.0" standalone="no"?>
<!DOCTYPE svg PUBLIC "-//W3C//DTD SVG 1.1//EN" "http://www.w3.org/Graphics/SVG/1.1/DTD/svg11.dtd" >
<svg xmlns="http://www.w3.org/2000/svg" xmlns:xlink="http://www.w3.org/1999/xlink" version="1.1">
<metadata>
Created by FontForge 20201107 at Thu Feb 29 19:55:29 2024
 By 
Copyright (c) 2021 by 177Studio.com. All rights reserved.
</metadata>
<defs>
<font id="NewtonHowardFont-Regular" horiz-adv-x="1392" >
  <font-face 
    font-family="Newton Howard Font"
    font-weight="400"
    font-stretch="normal"
    units-per-em="2048"
    panose-1="2 0 5 6 2 0 0 2 0 4"
    ascent="1638"
    descent="-410"
    x-height="1219"
    cap-height="1217"
    bbox="-55 -662 3189 1886"
    underline-thickness="0"
    underline-position="0"
    unicode-range="U+000A-FB02"
  />
<missing-glyph horiz-adv-x="1099" 
d="M113 1434h874v-1434h-874v1434zM170 1393l379 -633l381 633h-760zM524 717l-368 614v-1231zM551 674l-379 -631h758zM575 717l371 -621v1239z" />
    <glyph glyph-name="uniF401" unicode="AA" horiz-adv-x="1822" 
d="M1235 0h-213v1700q33 -82 233 -514q477 -1045 596 -1301v-512q-194 415 -340 746q-34 75 -71.5 158t-96 210t-108.5 236v-723zM-31 -627v512q119 256 596 1301q208 448 234 514v-1700h-213v723q-454 -993 -617 -1350z" />
    <glyph glyph-name="uniF402" unicode="AB" horiz-adv-x="2437" 
d="M1155 1006l-98 213h874q113 0 198 -55.5t130 -147.5q35 -72 35 -152q0 -123 -78 -223q158 -86 168 -270v-11q0 -50 -15.5 -101t-46.5 -97.5t-73.5 -82.5t-102 -57.5t-127.5 -21.5h-401q-20 43 -98 213h499q39 0 69.5 15t46.5 39.5t23.5 54t0 59t-23.5 54t-46.5 39.5
t-69.5 15h-626q-15 34 -47 102.5t-48 102.5h703q82 58 82 162q0 68 -47 115q-41 35 -105 35h-776zM254 0h-234q11 24 269.5 586t292.5 633h233q15 -50 610 -1334v-512q-201 435 -371.5 813.5t-355.5 778.5q-52 -116 -93.5 -206.5t-62 -133t-34 -71t-18 -38.5t-7.5 -18
q-2 -6 -229 -498z" />
    <glyph glyph-name="uniF403" unicode="AD" horiz-adv-x="2564" 
d="M20 0q11 24 269.5 586t292.5 633h233q15 -50 610 -1334v-512q-201 435 -371.5 813.5t-355.5 778.5q-52 -116 -93.5 -206.5t-62 -133t-34 -71t-18 -38.5t-7.5 -18q-2 -6 -229 -498h-234zM1044 1219h846q166 0 309 -80t228.5 -221t85.5 -308q0 -168 -85.5 -309t-228.5 -221
t-309 -80h-284q0 1 -10.5 23.5t-35.5 75.5t-49 104l5 4h385q162 4 269 119.5t107 283.5q0 109 -48.5 200.5t-137.5 146.5t-201 55h-749q-22 46 -47 100t-36 78.5t-14 28.5z" />
    <glyph glyph-name="uniF404" unicode="AE" horiz-adv-x="2277" 
d="M20 0q11 24 269.5 586t292.5 633h233q15 -50 610 -1334v-512q-201 435 -371.5 813.5t-355.5 778.5q-52 -116 -93.5 -206.5t-62 -133t-34 -71t-18 -38.5t-7.5 -18q-2 -6 -229 -498h-234zM1280 709h825l-141 -211h-352q87 -192 131 -285h473l-143 -213h-467
q-78 172 -191 416zM1075 1153q-7 16 -15 32t-11.5 23.5t-4.5 10.5h1168l-62 -93q-13 -20 -31 -47.5t-30 -46t-18 -26.5h-928q-16 35 -40.5 87.5t-27.5 59.5z" />
    <glyph glyph-name="uniF405" unicode="AG" horiz-adv-x="2265" 
d="M254 0h-234q11 24 269.5 586t292.5 633h233q15 -50 610 -1334v-512q-201 435 -371.5 813.5t-355.5 778.5q-52 -116 -93.5 -206.5t-62 -133t-34 -71t-18 -38.5t-7.5 -18q-2 -6 -229 -498zM1516 82q-3 7 -27.5 59.5t-40.5 87.5q95 -53 207 -53h284v322h-319q11 17 31.5 46
t27.5 40q15 23 45.5 67.5t38.5 57.5h389v-709h-514q-44 0 -88 6q-3 4 -7 14t-12 28t-15 34zM1169 834q-34 69 -61 131q86 112 213 178.5t278 73.5q4 2 21 2h532l-139 -207h-375q-155 0 -266.5 -88t-136.5 -234q-51 108 -66 144z" />
    <glyph glyph-name="uniF406" unicode="AH" horiz-adv-x="2093" 
d="M1249 0h-213v1219h213v-510h518v510h213v-1219h-213v498h-518v-498zM-20 -115q53 113 595 1301q208 448 234 514v-1700h-213v723q-144 -315 -307.5 -674t-308.5 -676v512z" />
    <glyph glyph-name="uniF407" unicode="AK" horiz-adv-x="1990" 
d="M1243 0h-213v1217h213v-830l473 832h213q-59 -102 -117 -207q-126 -224 -223 -398q65 -141 193.5 -422t140.5 -307v-512q-107 234 -461 1014q-113 -206 -198 -350zM-27 -115q119 256 596 1301q208 448 234 514v-1700h-213v723q-454 -993 -617 -1350v512z" />
    <glyph glyph-name="uniF408" unicode="AM" horiz-adv-x="2205" 
d="M23 2q28 60 280.5 608.5t280.5 608.5h233q10 -33 608 -1334v-510q-169 367 -343 755.5t-382 834.5q-52 -116 -93.5 -206.5t-62 -133t-34 -71t-18 -38.5t-7.5 -18q-8 -20 -229 -496h-233zM1151 977q-84 183 -111 242h232q163 -352 258 -566q47 101 134 292t124 272h305
v-1215h-213v909q-81 -175 -192.5 -422t-157.5 -348q-301 664 -379 836z" />
    <glyph glyph-name="uniF409" unicode="AO" horiz-adv-x="2377" 
d="M20 0q11 24 269.5 586t292.5 633h233q15 -50 610 -1334v-512q-201 435 -371.5 813.5t-355.5 778.5q-52 -116 -93.5 -206.5t-62 -133t-34 -71t-18 -38.5t-7.5 -18q-2 -6 -229 -498h-234zM1124 932q92 148 238 229.5t319 81.5q179 0 328.5 -87.5t233.5 -232.5t84 -313
q0 -174 -85.5 -319t-231 -229t-318.5 -87q-63 0 -133 13q-14 28 -32 67.5t-44.5 98t-44.5 96.5q86 -64 209 -74q12 -2 39 -2q151 0 282 113l14 14q132 132 132 313q0 164 -117 292.5t-289 140.5q-4 0 -13.5 1t-13.5 1q-164 0 -288.5 -114.5t-141.5 -279.5q-25 55 -69 151
t-58 126z" />
    <glyph glyph-name="uniF410" unicode="AP" horiz-adv-x="2338" 
d="M254 0h-234q11 24 269.5 586t292.5 633h233q15 -50 610 -1334v-512q-201 435 -371.5 813.5t-355.5 778.5q-52 -116 -93.5 -206.5t-62 -133t-34 -71t-18 -38.5t-7.5 -18q-2 -6 -229 -498zM1028 1219h811q120 0 223.5 -58.5t164.5 -159t61 -219.5q0 -178 -131 -297.5
t-318 -119.5h-250v-365l-16 39q-15 31 -44.5 94t-74.5 160.5t-78 169.5v112h463q101 0 168.5 58t67.5 149q0 97 -70.5 160.5t-165.5 63.5h-713q-28 61 -61.5 133.5t-36.5 79.5z" />
    <glyph glyph-name="uniF411" unicode="AQ" horiz-adv-x="2377" 
d="M1264 721l-111 254l6 12q84 111 206 179.5t267 78.5q8 0 24.5 1t24.5 1q130 0 249 -50t206 -134.5t139 -202.5t52 -248q0 -153 -69 -286t-194 -224q18 -41 52 -115t45 -100v-522q-79 168 -289 643q-78 -25 -180 -28q-62 0 -109 8l-106 241q80 -42 170 -51q12 -2 36 -2
q50 0 107 17q-6 16 -18 41.5t-15 31.5l-33 70q72 39 193 86q6 -10 14 -28t20 -46t23 -51q137 134 140 319q0 162 -113.5 290t-282.5 145h-37q-151 0 -265 -94t-152 -236zM20 0q11 24 269.5 586t292.5 633h233q15 -50 610 -1334v-512q-201 435 -371.5 813.5t-355.5 778.5
q-52 -116 -93.5 -206.5t-62 -133t-34 -71t-18 -38.5t-7.5 -18q-2 -6 -229 -498h-234z" />
    <glyph glyph-name="uniF412" unicode="AS" horiz-adv-x="2119" 
d="M20 0q11 24 269.5 586t292.5 633h233q15 -50 610 -1334v-512q-201 435 -371.5 813.5t-355.5 778.5q-52 -116 -93.5 -206.5t-62 -133t-34 -71t-18 -38.5t-7.5 -18q-2 -6 -229 -498h-234zM1186 895v10q0 72 26 131q78 178 318 178h432q-24 -36 -70 -103t-69 -103l-2 -2
h-291q-48 0 -82.5 -22t-44.5 -62q-6 -15 -6 -33q0 -65 38 -102t95 -37h147q173 0 282 -108t109 -275q0 -164 -117 -265.5t-288 -101.5h-113q-7 17 -20.5 46.5t-35.5 77.5t-38 85h207q80 0 136 48.5t56 125.5t-55.5 125.5t-136.5 48.5h-33q-127 0 -145 6q-145 23 -222 118
t-77 214z" />
    <glyph glyph-name="uniF413" unicode="AT" horiz-adv-x="2029" 
d="M254 0h-234q11 24 269.5 586t292.5 633h233q15 -50 610 -1334v-512q-201 435 -371.5 813.5t-355.5 778.5q-52 -116 -93.5 -206.5t-62 -133t-34 -71t-18 -38.5t-7.5 -18q-2 -6 -229 -498zM1059 1153q-7 16 -15 32t-11.5 23.5t-4.5 10.5h981q-11 -17 -31.5 -47.5
t-23.5 -34.5q-74 -112 -88 -131h-277v-1006l-18 39q-17 36 -84.5 183.5t-110.5 240.5v543h-252q-45 99 -65 147z" />
    <glyph glyph-name="uniF414" unicode="AR" horiz-adv-x="2011" 
d="M20 0q11 24 269.5 586t292.5 633h233q15 -50 610 -1334v-512q-201 435 -371.5 813.5t-355.5 778.5q-52 -116 -93.5 -206.5t-62 -133t-34 -71t-18 -38.5t-7.5 -18q-2 -6 -229 -498h-234zM1081 1104q-2 4 -22 46.5t-31 68.5h485q120 0 223 -58.5t163.5 -159t60.5 -219.5
q0 -145 -87 -253.5t-226 -145.5q20 -41 55 -118.5t86 -190t86 -189.5v-512q-88 184 -310 674t-241 528h190q95 0 164.5 57t69.5 150q0 97 -70 160.5t-164 63.5h-387q-8 17 -23.5 51t-21.5 47z" />
    <glyph glyph-name="uniF415" unicode="CA" horiz-adv-x="2422" 
d="M1233 0h-236q5 10 266.5 577.5t295.5 639.5h233q17 -52 610 -1332v-512q-173 376 -346.5 762t-380.5 828q-42 -93 -79 -173t-62 -134.5t-33 -71.5l-28 -62q-10 -18 -12.5 -23.5l-7.5 -16.5t-18.5 -41t-34 -75.5t-65 -143t-102.5 -222.5zM51 610q0 169 84 307t227.5 216.5
t317.5 83.5h645q-3 -7 -35.5 -76.5t-60.5 -130.5h-531q-176 0 -293.5 -112.5t-117.5 -287.5q0 -122 59.5 -215t156 -140.5t212.5 -47.5h143q-27 -61 -59 -130t-35 -77h-68q-129 0 -246.5 45.5t-205.5 124.5t-140.5 194t-52.5 246z" />
    <glyph glyph-name="uniF416" unicode="CB" horiz-adv-x="2250" 
d="M1010 1217h737q112 0 198.5 -55.5t127.5 -139.5q36 -79 36 -166q0 -4 -0.5 -13.5t-1.5 -27.5t-2 -33q-3 -58 -73 -143q81 -42 122.5 -114t43.5 -154v-11q0 -64 -24 -126.5t-68.5 -115.5t-115 -85.5t-155.5 -32.5h-264q-15 28 -29 59q-4 8 -27.5 62.5t-41.5 91.5h362
q45 0 78.5 20.5t48.5 50.5t15 66t-15 66t-48.5 50.5t-78.5 20.5h-489q-15 34 -47 102.5t-48 102.5q9 0 27 1t25 1h481q25 0 31 -2q81 58 81 162q0 70 -47 117q-38 35 -102 35h-639q-87 185 -98 211zM51 610q0 169 84 307t227.5 216.5t317.5 83.5h94q23 -48 57 -124.5
t37 -82.5h-170q-176 0 -293.5 -112.5t-117.5 -287.5q0 -122 59.5 -215t156 -140.5t212.5 -47.5h526q3 -6 37 -82.5t57 -124.5h-639q-129 0 -246.5 45.5t-205.5 124.5t-140.5 194t-52.5 246z" />
    <glyph glyph-name="uniF417" unicode="CD" horiz-adv-x="2398" 
d="M1010 1217h716q167 0 309.5 -80t227 -220.5t84.5 -308.5t-84.5 -308t-227 -220t-309.5 -80h-155q-17 34 -27 57q-24 59 -69 150h251q165 0 275 116.5t110 284.5q0 167 -109 284.5t-276 117.5h-622q-63 135 -94 207zM104 365q-53 112 -53 245q0 169 84 307t227.5 216.5
t317.5 83.5h94q23 -48 57 -124.5t37 -82.5h-170q-176 0 -293.5 -112.5t-117.5 -287.5q0 -122 59.5 -215t156 -140.5t212.5 -47.5h526q3 -6 37 -82.5t57 -124.5h-639q-196 0 -356.5 99.5t-235.5 265.5z" />
    <glyph glyph-name="uniF418" unicode="CE" horiz-adv-x="2215" 
d="M31 610q0 169 84 307t227 216.5t317 83.5h95q23 -48 57 -124.5t37 -82.5h-170q-177 0 -294.5 -112.5t-117.5 -287.5q0 -122 59.5 -215t156 -140.5t212.5 -47.5h527q3 -6 37 -82.5t57 -124.5h-639q-129 0 -246.5 45.5t-205.5 124.5t-140.5 194t-52.5 246zM1354 414
l-135 293h825l-137 -207h-2l-2 -4h-353q69 -152 131 -283h473l-143 -213h-467q-45 97 -71.5 156.5t-118.5 257.5zM1014 1153q-12 26 -31 64h1167q-7 -10 -29 -43.5t-32 -49.5l-47 -69q-8 -13 -19.5 -29t-13.5 -20h-928q-12 27 -34.5 76.5t-32.5 70.5z" />
    <glyph glyph-name="uniF419" unicode="CM" horiz-adv-x="2430" 
d="M1096 -305q-21 -44 -71 -152.5t-79 -171.5v512q119 256 596 1301q1 3 5.5 15t8.5 18h222v-705q192 426 307 672q288 635 301 657v-485l-33 -74q-6 -14 -18.5 -40t-16.5 -36v-1206h-213v723q-85 -183 -180 -397q-29 -66 -80.5 -176.5t-68.5 -149.5h-211v723
q-362 -792 -469 -1028zM51 610q0 169 84 307t227.5 216.5t317.5 83.5h645q-9 -19 -96 -205h-531q-177 0 -294 -112.5t-117 -289.5q0 -122 59.5 -215t156 -140.5t212.5 -47.5h143q-27 -61 -59 -130t-35 -77h-68q-129 0 -246.5 45.5t-205.5 124.5t-140.5 194t-52.5 246z" />
    <glyph glyph-name="uniF420" unicode="CP" horiz-adv-x="2064" 
d="M104 365q-53 112 -53 245q0 169 84 307t227.5 216.5t317.5 83.5h594l-70 -103q-36 -55 -47 -72q-3 -7 -11 -18t-9 -14h-439q-176 0 -293.5 -112.5t-117.5 -287.5q0 -122 59.5 -215t156 -140.5t212.5 -47.5h295q-20 -32 -142 -207h-172q-196 0 -356.5 99.5t-235.5 265.5z
M1317 0h-213v575h463q101 0 167 57t66 148q0 98 -69.5 162t-163.5 64h-199q46 66 62 90q55 79 81 121h56q181 0 313.5 -128.5t132.5 -308.5q0 -178 -130 -298t-316 -120h-250v-362z" />
    <glyph glyph-name="uniF421" unicode="CR" horiz-adv-x="2353" 
d="M104 365q-53 112 -53 245q0 170 86 309t229.5 217t313.5 81h477q2 -3 13.5 -28.5t34.5 -77.5t46 -101h-553q-176 0 -293.5 -112.5t-117.5 -287.5q0 -122 59.5 -215t156 -140.5t212.5 -47.5h907q14 -32 37 -81.5t31 -68.5q17 -38 26 -57h-1020q-196 0 -356.5 99.5
t-235.5 265.5zM1370 1217h483q120 0 223.5 -58.5t164.5 -159t61 -219.5q0 -143 -88 -252.5t-227 -146.5q73 -156 227 -496v-512q-59 131 -192 419t-236 513t-121 270h188q98 0 167 55t69 150q0 98 -70.5 162t-165.5 64h-387q-14 29 -45.5 99.5t-50.5 111.5z" />
    <glyph glyph-name="uniF422" unicode="CS" horiz-adv-x="2091" 
d="M51 610q0 169 84 307t227.5 216.5t317.5 83.5h594l-70 -103q-36 -55 -47 -72q-3 -7 -11 -18t-9 -14h-439q-176 0 -293.5 -112.5t-117.5 -287.5q0 -122 59.5 -215t156 -140.5t212.5 -47.5h266l2 2h649q81 0 138 47.5t57 126.5q0 77 -56 124.5t-139 47.5q-18 0 -28 2l-29 4
q-98 16 -165 67t-101 124q-35 73 -35 149q0 66 29 135q77 178 319 178h311l-129 -190q-9 -15 -12 -18h-170q-57 0 -95 -32.5t-38 -86.5q0 -64 37.5 -100.5t95.5 -36.5h25q175 0 284 -109t109 -274q0 -164 -117.5 -265.5t-290.5 -101.5h-936q-129 0 -246.5 45.5t-205.5 124.5
t-140.5 194t-52.5 246z" />
    <glyph glyph-name="uniF423" unicode="CT" horiz-adv-x="2004" 
d="M104 365q-53 112 -53 245q0 165 81 301.5t220 217t307 88.5h1326q-10 -17 -30 -45t-26 -37q-78 -118 -86 -129h-278v-1006h-213v1006l-656 -2q-179 0 -294 -109.5t-115 -284.5q0 -122 59.5 -215t156 -140.5t212.5 -47.5h467q-28 -61 -61 -130.5t-36 -76.5h-389
q-196 0 -356.5 99.5t-235.5 265.5z" />
    <glyph glyph-name="uniF424" unicode="CV" horiz-adv-x="2744" 
d="M1317 1841q109 -235 221 -480.5t150 -326.5q34 -74 142.5 -310t215.5 -470q165 362 213 461l10 22q24 60 123 269h-405q-11 27 -16.5 38.5t-9.5 19t-22.5 47t-48.5 106.5h834q-3 -5 -59.5 -128t-138 -299t-160.5 -348t-139.5 -304t-63.5 -138h-234q-18 36 -115 247.5
t-250.5 547t-246.5 536.5v510zM104 365q-53 112 -53 245q0 170 86 309t229.5 217t313.5 81h477q2 -3 13.5 -28.5l34.5 -76.5t46 -100h-553q-177 0 -294 -112.5t-117 -289.5q0 -122 59.5 -215t156 -140.5t212.5 -47.5h907q14 -32 37 -81.5t31 -68.5q17 -38 26 -57h-1020
q-196 0 -356.5 99.5t-235.5 265.5z" />
    <glyph glyph-name="uniF425" unicode="CW" horiz-adv-x="3209" 
d="M1276 1337v504q291 -625 377 -807q18 -40 134.5 -286.5t227.5 -493.5q67 148 131 285l-102 221q-207 449 -211 457h235q301 -652 443 -963q188 413 213 461q5 10 11.5 23.5t16 35.5t37.5 84.5t68 147.5h-399l-19 36q-4 8 -8 16.5t-9.5 21.5t-22.5 50t-40 87h830
q-47 -101 -139.5 -301t-135.5 -293q-57 -127 -129.5 -283t-113.5 -244.5t-43 -95.5q9 -19 26.5 -57t26.5 -58v-514l-418 914q-31 -68 -63 -137.5t-49 -106t-19 -41.5h-234q-26 52 -622 1337zM20 610q0 170 86 309t229.5 217t313.5 81h477q2 -3 13.5 -28.5t35 -77t46.5 -99.5
h-553q-177 0 -294.5 -112.5t-117.5 -289.5q0 -122 59.5 -215t156 -140.5t212.5 -47.5h907q14 -32 37 -81.5t31 -68.5q10 -23 27 -57h-1020q-129 0 -247 45.5t-206 124.5t-140.5 194t-52.5 246z" />
    <glyph glyph-name="uniF426" unicode="CX" horiz-adv-x="2230" 
d="M51 610q0 170 86 309t229.5 217t313.5 81h199q31 -42 141 -205h-322q-179 0 -295 -113t-116 -289q0 -122 59.5 -215t156 -140.5t212.5 -47.5h549l266 389l-424 621h229l310 -453l163 240h-106l-139 213h618l-422 -621q27 -39 99 -145t112 -164q149 -223 397 -580v-334
l-722 1055l-152 -221h88l135 -207h-1020q-129 0 -246.5 45.5t-205.5 124.5t-140.5 194t-52.5 246z" />
    <glyph glyph-name="uniF427" unicode="CZ" horiz-adv-x="1904" 
d="M51 610q0 170 86 309t229.5 217t313.5 81h1204l-575 -1006h549q-10 -17 -30 -45t-26 -37q-78 -118 -86 -129h-758l584 1012h-264q-8 0 -102 -1t-185 -1h-293q-176 0 -293.5 -112.5t-117.5 -287.5q0 -122 59.5 -215t156 -140.5t212.5 -47.5h145q-30 -54 -71 -123.5
t-48 -83.5h-45q-129 0 -246.5 45.5t-205.5 124.5t-140.5 194t-52.5 246z" />
    <glyph glyph-name="uniF428" unicode="EA" horiz-adv-x="2320" 
d="M948 0q12 25 269.5 585.5t291.5 631.5h234q17 -52 610 -1332v-512q-173 376 -346.5 762t-380.5 828q-42 -93 -79 -173t-62 -134.5t-33 -71.5l-29 -62q-8 -15 -10.5 -19.5t-7.5 -16t-10.5 -23.5t-21.5 -48t-37 -83t-61.5 -135t-90.5 -197h-236zM715 0h-602v707h913
q-16 -36 -48.5 -105.5t-47.5 -105.5h-604v-283h487q-84 -178 -98 -213zM113 1006v211h1163q-33 -72 -98 -211h-1065z" />
    <glyph glyph-name="uniF429" unicode="EB" horiz-adv-x="2242" 
d="M1827 0h-879l37 80q24 55 62 133h780q45 0 78.5 20.5t48.5 50.5t15 66t-15 66t-48.5 50.5t-78.5 20.5h-653q88 192 94 207h510q24 0 30 -2q82 61 82 160q0 70 -49 119q-38 35 -102 35h-328l57 123.5t41 87.5h230q156 0 256.5 -103t105.5 -244v-12q0 -120 -78 -219
q82 -42 123 -113.5t43 -154.5v-11q0 -64 -24 -126.5t-68 -115.5t-114.5 -85.5t-155.5 -32.5zM715 0h-602v707h913q-16 -36 -48.5 -105.5t-47.5 -105.5h-604v-283h487q-84 -178 -98 -213zM1178 1006h-1065v211h1163q-33 -72 -98 -211z" />
    <glyph glyph-name="uniF430" unicode="EM" horiz-adv-x="2383" 
d="M897 -117q119 256 596 1301q1 3 5.5 15t8.5 18h222v-705q192 426 307 672q288 635 301 657v-485q-9 -19 -68 -150v-1206h-213v723q-85 -183 -180 -397q-28 -64 -78 -171t-72 -155h-210v723q-339 -745 -619 -1352v512zM113 713h913q-16 -36 -48.5 -106.5t-47.5 -106.5
h-604v-283h487q-84 -178 -98 -213h-602v709zM113 1010v213h1163l-35 -78q-51 -111 -63 -135h-1065z" />
    <glyph glyph-name="uniF431" unicode="EP" horiz-adv-x="1994" 
d="M1032 0v575h463q101 0 168.5 57t67.5 148q0 98 -70.5 162t-165.5 64h-223q23 33 61 90q63 89 82 121h80q120 0 223.5 -58.5t164.5 -159t61 -219.5q0 -178 -131 -298t-318 -120h-250v-362h-213zM809 0h-696v571h729l-142 -211h-374v-147h624q0 -2 -2 -4zM113 1217h1077
q-13 -19 -34.5 -50.5t-29.5 -42.5l-47 -69q-8 -13 -19 -29t-13 -20h-934v211z" />
    <glyph glyph-name="uniF432" unicode="ER" horiz-adv-x="1906" 
d="M922 1217h485q120 0 223.5 -58.5t164 -159t60.5 -219.5q0 -143 -88 -252.5t-227 -146.5q148 -317 232 -502v-506q-60 133 -193 419.5t-238 512.5t-122 270h188q98 0 166.5 55t68.5 150q0 98 -70 162t-165 64h-387q-2 4 -98 211zM113 571h895l49 -106q8 -17 24.5 -52
t24.5 -53h-780v-147h848q17 -36 38 -83.5t35.5 -79t24.5 -50.5h-1159v571zM113 1217h596q9 -14 98 -211h-694v211z" />
    <glyph glyph-name="uniF433" unicode="ES" horiz-adv-x="2179" 
d="M1069 895v18q0 62 25 123q42 94 126.5 136t192.5 42h608l-129 -190q-9 -15 -12 -18h-467q-56 0 -94.5 -32t-38.5 -87q0 -62 36.5 -99.5t96.5 -37.5h322q175 0 284 -109t109 -274q0 -164 -117.5 -265.5t-290.5 -101.5h-286q-2 4 -97 209h383q81 0 138 47.5t57 126.5
q0 77 -56 124.5t-139 47.5h-342q-98 16 -169 69.5t-104.5 123t-35.5 147.5zM113 0v731h821q16 -34 49 -105t49 -106h-706v-307h848q17 -36 38 -83.5t35.5 -79t24.5 -50.5h-1159zM807 1006h-694v211h596q9 -14 98 -211z" />
    <glyph glyph-name="uniF434" unicode="EV" horiz-adv-x="2297" 
d="M866 1333v508q105 -226 218.5 -473t154.5 -334q39 -86 148.5 -321t211.5 -459q165 362 213 461l11 22q24 60 123 269h-406q-11 26 -16.5 38t-10 19.5t-22.5 46.5t-49 107h835q-3 -6 -60 -129t-137.5 -298.5t-160 -348.5t-140 -303.5t-63.5 -137.5h-235q-8 17 -39 85.5
t-86 189t-105 229.5q-159 339 -385 829zM1272 0h-1159v707h833q7 -17 47 -105l49 -106h-716v-283h848q56 -114 98 -213zM113 1217h596q9 -14 98 -211h-694v211z" />
    <glyph glyph-name="uniF435" unicode="ET" horiz-adv-x="1703" 
d="M1051 1006h-938v211h1570q-11 -17 -31.5 -47.5t-23.5 -34.5q-78 -118 -86 -129h-278v-1006h-213v1006zM809 0h-696v707h729l-142 -211h-374v-283h624q0 -2 -2 -4z" />
    <glyph glyph-name="uniF436" unicode="EW" horiz-adv-x="2793" 
d="M864 1335v506q282 -614 414 -893q20 -44 128.5 -280t192.5 -414q43 96 132 285l-103 221q-207 449 -211 457h236q67 -142 126.5 -274.5t67.5 -149.5q19 -41 37 -78.5t80 -175.5q64 -137 131 -285q188 413 213 461q5 10 11.5 23.5t16 35.5t37.5 84.5t68 147.5h-401
q-12 28 -16.5 39t-8.5 18.5t-22.5 47.5t-48.5 106h829q-234 -507 -274 -594q-58 -127 -130 -283t-113.5 -244.5t-43.5 -95.5h-8q14 -26 57 -129v-502q-368 808 -412 910v4l-92 -195q-36 -74 -41 -88h-235q-23 47 -617 1335zM1272 0h-1159v707h833q7 -17 47 -105l49 -106
h-716v-283h848q56 -114 98 -213zM113 1217h596q9 -14 98 -211h-694v211z" />
    <glyph glyph-name="uniF437" unicode="EZ" horiz-adv-x="1916" 
d="M1548 1006h-1435v211h1783l-577 -1006h551q-18 -24 -21 -29q-1 -1 -43 -67q-44 -58 -77 -115h-758zM113 0v707h1032q-24 -40 -123 -211h-696v-283h534q-24 -42 -54.5 -95t-46.5 -80.5t-22 -37.5h-624z" />
    <glyph glyph-name="uniF438" unicode="FA" horiz-adv-x="1994" 
d="M604 0q28 61 280.5 609t280.5 608h234q6 -9 101 -217t253 -556.5t256 -560.5v-512q-201 435 -371.5 813.5t-355.5 778.5q-52 -116 -93.5 -206.5t-62 -133t-34 -71t-18 -38.5t-7.5 -18q-8 -20 -229 -496h-234zM113 0v707h569q-16 -32 -32 -68t-35 -78t-29 -65h-260v-496
h-213zM113 1217h819q-3 -7 -36.5 -79.5t-61.5 -133.5h-721v213z" />
    <glyph glyph-name="uniF439" unicode="FB" horiz-adv-x="1898" 
d="M604 0q33 72 98 211h781q39 0 69.5 15t46.5 39.5t23.5 54t0 59t-23.5 54t-46.5 39.5t-69.5 15h-654q15 34 47.5 102.5t47.5 102.5h538q82 58 82 162q0 68 -47 115q-38 35 -102 35h-328q72 160 98 213h230q156 0 256.5 -103t105.5 -244v-12q0 -117 -78 -219
q82 -46 123 -116.5t43 -153.5v-11q0 -64 -24 -127t-68 -115t-114.5 -84t-155.5 -32h-879zM326 0h-213v707h569q-16 -32 -32 -68t-35 -78t-29 -65h-260v-496zM113 1217h819q-3 -7 -36.5 -79.5t-61.5 -133.5h-721v213z" />
    <glyph glyph-name="uniF440" unicode="FM" horiz-adv-x="2035" 
d="M553 -117q119 256 596 1301q3 5 7 16.5t7 16.5h219v-705q52 116 157 343t151 329q57 126 132.5 289.5t122.5 264t48 103.5v-485q-13 -28 -37.5 -83t-30.5 -69v-1204h-213v721q-44 -93 -102.5 -221.5t-79.5 -173.5q-87 -197 -148 -326h-213v721q-144 -315 -307.5 -674
t-308.5 -676v512zM326 0h-213v707h569q-16 -32 -32 -68t-35 -78t-29 -65h-260v-496zM113 1217h819q-3 -7 -36.5 -79.5t-61.5 -133.5h-721v213z" />
    <glyph glyph-name="uniF441" unicode="FR" horiz-adv-x="1906" 
d="M975 1102q-2 4 -22 46.5t-31 68.5h485q120 0 223.5 -58.5t164 -159t60.5 -219.5q0 -145 -88 -253t-227 -146q23 -50 105.5 -231t121.5 -267v-512q-35 73 -85.5 184.5t-119 263.5t-108.5 240q-209 447 -235 516h188q98 0 166.5 55t68.5 150q0 97 -70 160.5t-165 63.5h-387
q-8 17 -23.5 51t-21.5 47zM326 0h-213v571h895l98 -213h-780v-358zM113 1217h596q5 -8 98 -213h-694v213z" />
    <glyph glyph-name="uniF442" unicode="FP" horiz-adv-x="1994" 
d="M1245 -2h-213v577h463q101 0 168.5 57t67.5 148q0 97 -70.5 160.5t-165.5 63.5h-223l61 92q12 19 31.5 46.5t32 46t18.5 28.5h80q120 0 223.5 -58.5t164.5 -159t61 -219.5q0 -178 -131 -298t-318 -120h-250v-364zM326 -2h-213v571h729l-142 -211h-374v-360zM1047 1004
h-934v213h1077q-57 -82 -64 -93q-13 -20 -31 -47.5t-30 -46t-18 -26.5z" />
    <glyph glyph-name="uniF443" unicode="FS" horiz-adv-x="2179" 
d="M1069 893v18q0 62 25 123q77 178 319 178h608l-102 -151q-23 -31 -27 -39q-9 -14 -10 -16h-469q-56 0 -94.5 -32t-38.5 -87q0 -62 36 -100.5t97 -38.5h322q175 0 284 -108t109 -275q0 -164 -117.5 -264.5t-290.5 -100.5h-286q-2 4 -97 209h383q81 0 138 47.5t57 124.5
t-56 125.5t-139 48.5h-342q-98 16 -169 68.5t-104.5 121.5t-35.5 148zM326 0h-213v731h821q16 -34 49 -105t49 -106h-706v-520zM113 1004v213h596q5 -8 98 -213h-694z" />
    <glyph glyph-name="uniF444" unicode="FT" horiz-adv-x="1703" 
d="M1051 1004h-938v213h1570q-11 -17 -31.5 -47.5t-23.5 -34.5q-11 -17 -29.5 -46t-32.5 -50t-24 -35h-278v-1004h-213v1004zM326 -2h-213v709h729l-142 -211h-374v-498z" />
    <glyph glyph-name="uniF445" unicode="FV" horiz-adv-x="2279" 
d="M866 1333v508q249 -536 733 -1587q165 362 213 461l11 22q9 23 123 267h-406q-12 27 -17 38t-8.5 19t-22.5 48.5t-50 107.5h835q-4 -9 -277 -603t-284 -616h-235q-8 17 -39 85.5t-86 189t-105 229.5q-240 511 -385 831zM326 -2h-213v709h827q37 -87 94 -211h-708v-498z
M113 1217h596q5 -8 98 -213h-694v213z" />
    <glyph glyph-name="uniF446" unicode="FW" horiz-adv-x="2775" 
d="M864 1841q282 -614 414 -893q20 -44 128.5 -280t192.5 -414q69 151 132 285l-103 221q-207 449 -211 457h236q45 -99 90.5 -200t68 -150.5t35.5 -75.5q107 -234 248 -537q188 413 213 461q5 11 12.5 28t38 83.5t82.5 177.5h-401q-40 91 -96 213h829q-234 -507 -274 -594
q-58 -127 -130 -283t-113.5 -244.5t-43.5 -95.5h-8q14 -26 57 -129v-502q-9 18 -41.5 90.5t-86 191t-93.5 206.5q-193 423 -193 428q-126 -277 -131 -285h-235q-56 112 -617 1333v508zM326 0h-213v707h827q11 -24 44.5 -98.5t51.5 -112.5h-710v-496zM113 1217h596
q5 -8 98 -213h-694v213z" />
    <glyph glyph-name="uniF447" unicode="FZ" horiz-adv-x="1515" 
d="M113 1217h1382l-575 -1006h548q-3 -4 -18 -29l-45 -67q-13 -18 -39 -59t-39 -56h-758l578 1006h-1034v211zM113 0v707h630q-17 -29 -37 -64t-44.5 -78.5t-38.5 -68.5h-297v-496h-213z" />
    <glyph glyph-name="uniF448" unicode="GA" horiz-adv-x="2795" 
d="M29 610q0 168 82 305t220 215.5t304 86.5q6 2 22 2h1088q-78 -171 -94 -207h-975q-177 0 -294.5 -112.5t-117.5 -289.5q0 -184 126.5 -309t301.5 -125h342q15 32 65 141t81 175q0 1 1 2t1 2v2h-525l32 48t26 38q15 23 45.5 67.5t38.5 57.5h714l-626 -1336v475
q58 127 69 152h-282q-133 0 -252.5 47.5t-205.5 128.5t-136.5 194t-50.5 240zM1419 0q15 33 271.5 591t289.5 628h234q15 -50 610 -1334v-512q-201 435 -371.5 813.5t-355.5 778.5q-52 -116 -93.5 -206.5t-62 -133t-34 -71t-18 -38.5t-7.5 -18q-11 -28 -227 -498h-236z" />
    <glyph glyph-name="uniF449" unicode="GB" horiz-adv-x="2637" 
d="M102 371q-51 111 -51 241q0 168 82.5 305t220.5 215.5t303 86.5h1110q-78 -171 -94 -207h-975q-176 0 -293.5 -112.5t-117.5 -287.5q0 -92 35 -174t93 -139t136.5 -90t163.5 -33h342q16 35 65 143t80 173q0 1 1 2t1 2v2h-524q10 16 57 86q15 23 45.5 67.5t38.5 57.5h715
l-627 -1336v475q33 73 70 152h-283q-200 0 -360.5 101.5t-233.5 269.5zM2220 0h-782l37 80q31 73 61 133h684q39 0 69.5 15t46.5 39.5t23.5 54t0 59t-23.5 54t-46.5 39.5t-69.5 15h-557q15 34 46.5 102.5t47.5 102.5h445q82 61 82 160q0 67 -50 117q-38 35 -102 35h-231
q82 183 98 213h133q112 0 198.5 -56t127.5 -141q36 -79 36 -166q0 -4 -0.5 -13.5t-1.5 -27.5t-2 -33q-3 -58 -73 -143q157 -81 168 -268v-11q0 -50 -15.5 -101t-46.5 -97.5t-73.5 -82.5t-102 -57.5t-127.5 -21.5z" />
    <glyph glyph-name="uniF450" unicode="GD" horiz-adv-x="2826" 
d="M51 610q0 168 82 305t220 215.5t304 86.5q6 2 23 2h1087q-78 -171 -94 -207h-975q-177 0 -294 -112.5t-117 -289.5q0 -184 126.5 -309t301.5 -125h342q16 35 65 143t80 173q0 1 1 2t1 2v2h-524q10 16 57 86q15 23 45.5 67.5t38.5 57.5h715l-627 -1336v475q33 73 70 152
h-283q-133 0 -252.5 47.5t-205.5 128.5t-136.5 194t-50.5 240zM1444 0q81 179 94 207h627q160 5 267.5 120.5t107.5 282.5t-109.5 284.5t-276.5 117.5h-245q51 110 94 207h151q124 0 238.5 -48t198.5 -129t134 -194t50 -238q0 -167 -85 -308t-227.5 -221.5t-308.5 -80.5
h-710z" />
    <glyph glyph-name="uniF451" unicode="GE" horiz-adv-x="2220" 
d="M51 610q0 166 81 302.5t219 216.5t306 88q6 2 23 2h98q2 -4 13.5 -29.5t34 -76.5t46.5 -101h-174q-177 0 -294 -112.5t-117 -289.5q0 -184 126.5 -309t301.5 -125h309q-39 86 -70 154t-43 94t-20 44.5t-14 29.5h-318q16 22 59 86q65 99 84 125h310q55 -118 100 -214.5
t65.5 -143t35.5 -79t20 -42.5t8 -15l6 -14q3 -15 148 -320v-508q-12 24 -55 117.5t-112.5 246t-121.5 263.5h-410q-133 0 -252.5 47.5t-205.5 128.5t-136.5 194t-50.5 240zM1225 709h825l-141 -211h-355q24 -51 68 -147t64 -138h473q0 -2 -2 -4l-140 -209h-467
q-124 273 -190 416zM1020 1153q-7 16 -15 32t-11.5 23.5t-4.5 10.5h1168l-62 -93q-73 -109 -82 -120h-926q-12 27 -34.5 76.5t-32.5 70.5z" />
    <glyph glyph-name="uniF452" unicode="GM" horiz-adv-x="2877" 
d="M1395 -117q80 172 295.5 646.5t298.5 656.5l16 33h219v-705q41 91 148.5 324.5t158.5 347.5q290 635 303 657v-487q-13 -28 -37.5 -83.5t-29.5 -66.5v-1206h-213v723q-46 -98 -105.5 -229.5t-76.5 -167.5q-25 -56 -148 -326h-213v723q-144 -315 -307.5 -674t-308.5 -676
v510zM51 610q0 168 82 305t220 215.5t304 86.5q6 2 23 2h1087q-78 -171 -94 -207h-975q-177 0 -294 -112.5t-117 -289.5q0 -184 126.5 -309t301.5 -125h342q18 38 62.5 136t84.5 186h-524q10 16 57 86q15 23 45.5 67.5t38.5 57.5h715l-612 -1336v523l49 104h-277
q-133 0 -252.5 47.5t-205.5 128.5t-136.5 194t-50.5 240z" />
    <glyph glyph-name="uniF453" unicode="GP" horiz-adv-x="2627" 
d="M51 610q0 168 82 305t220 215.5t304 86.5q6 2 23 2h1087q-78 -171 -94 -207h-975q-177 0 -294 -112.5t-117 -289.5q0 -184 126.5 -309t301.5 -125h342q18 38 62.5 136t84.5 186h-524q10 16 57 86q15 23 45.5 67.5t38.5 57.5h715l-612 -1336v523l49 104h-277
q-133 0 -252.5 47.5t-205.5 128.5t-136.5 194t-50.5 240zM1378 -627v500q289 609 330 702h422q92 0 155.5 48.5t75.5 128.5q2 6 2 30q0 97 -69.5 160.5t-163.5 63.5h-223q31 70 54 119t31.5 66.5t12.5 27.5h125q117 0 219.5 -57.5t164.5 -159t62 -220.5q0 -178 -130 -297.5
t-316 -119.5h-285q-5 -11 -211.5 -447.5t-255.5 -544.5z" />
    <glyph glyph-name="uniF454" unicode="GR" horiz-adv-x="1974" 
d="M51 610q0 166 81 302.5t219 216.5t306 88q6 2 23 2h98q2 -4 13.5 -29.5t34 -76.5t46.5 -101h-174q-177 0 -294 -112.5t-117 -289.5q0 -184 126.5 -309t301.5 -125h309q-39 86 -70 154t-43 94t-20 44.5t-14 29.5h-318q16 22 59 86q65 99 84 125h310q55 -118 100 -214.5
t65.5 -143t35.5 -79t20 -42.5t8 -15l6 -14q3 -15 148 -320v-508q-12 24 -55 117.5t-112.5 246t-121.5 263.5h-410q-133 0 -252.5 47.5t-205.5 128.5t-136.5 194t-50.5 240zM1044 1104q-2 4 -22 46.5t-31 68.5h484q120 0 223.5 -58.5t164 -159t60.5 -219.5q0 -145 -88 -253
t-227 -146q16 -33 92.5 -204.5t128.5 -282.5v-523q-44 93 -158 347t-153 341q-221 485 -232 514h189q94 0 164.5 57t70.5 150q0 97 -70 160.5t-165 63.5h-388q-33 74 -43 98z" />
    <glyph glyph-name="uniF455" unicode="GT" horiz-adv-x="2033" 
d="M82 371q-51 108 -51 239q0 166 81 302.5t219 216.5t306 88q6 2 22 2h267l-140 -207h-108q-176 0 -294 -112.5t-118 -289.5q0 -184 126.5 -309t301.5 -125h283v322h-318l32 48t26 38q15 23 45.5 67.5t38.5 57.5h389v-1012q-38 -51 -64 -96l-86 -129q-43 -61 -63 -93v621
h-301q-200 0 -360.5 101.5t-233.5 269.5zM1001 1006q11 17 31 45t27 39q62 94 88 129h885q-10 -17 -30 -45t-26 -37q-11 -17 -29.5 -46t-32.5 -50t-24 -35h-278v-1006h-213v1006h-398z" />
    <glyph glyph-name="uniF456" unicode="GV" horiz-adv-x="2326" 
d="M31 610q0 166 81 302.5t219 216.5t306 88q6 2 22 2h99q2 -4 13.5 -29.5t34 -76.5t46.5 -101h-174q-177 0 -294.5 -112.5t-117.5 -289.5q0 -184 126.5 -309t301.5 -125h310q-137 299 -148 322h-317q16 22 59 86q65 99 84 125h309q55 -118 100 -214.5t66 -142.5t36 -79
t20 -43t8 -15l6 -14q4 -18 147 -320v-508q-12 24 -55 117.5t-112.5 246t-121.5 263.5h-409q-133 0 -252.5 47.5t-205.5 128.5t-136.5 194t-50.5 240zM911 1335v508q372 -803 375 -809q20 -45 135 -290t226 -490q74 161 125 271.5t67 144.5t21 45q12 35 133 291h-406
q-40 91 -96 213h833q-4 -9 -139 -302t-277.5 -602.5t-144.5 -314.5h-233q-54 106 -619 1335z" />
    <glyph glyph-name="uniF457" unicode="GW" horiz-adv-x="2820" 
d="M1036 1063q-112 239 -127 272v508q81 -175 161.5 -351t127 -277.5t84.5 -180.5q132 -276 360 -780q65 145 132 287q-56 120 -130 283t-121 265t-61 130h234q88 -191 136 -296t59.5 -131t29.5 -65.5t67.5 -146.5t151.5 -326q74 161 125 271.5t67 144.5t21 45
q12 35 133 291h-401q-12 27 -17 38t-8.5 19t-22.5 48.5t-50 107.5h831l-22 -52q-48 -99 -179 -382.5t-243.5 -529.5t-116.5 -255h-4l55 -119v-508l-418 914q-29 -64 -62.5 -137.5t-49.5 -108.5t-19 -41h-233q-28 56 -490 1063zM31 610q0 166 81 302.5t219 216.5t306 88
q6 2 22 2h99q2 -4 13.5 -29.5t34 -76.5t46.5 -101h-174q-177 0 -294.5 -112.5t-117.5 -289.5q0 -184 126.5 -309t301.5 -125h310q-137 299 -148 322h-317q16 22 59 86q65 99 84 125h309q55 -118 100 -214.5t66 -142.5t36 -79t20 -43t8 -15l6 -14q4 -18 147 -320v-508
q-12 24 -55 117.5t-112.5 246t-121.5 263.5h-409q-133 0 -252.5 47.5t-205.5 128.5t-136.5 194t-50.5 240z" />
    <glyph glyph-name="uniF458" unicode="HA" horiz-adv-x="2093" 
d="M113 0v1219h213v-510h516v510h213v-1526q-13 -18 -32 -47.5t-24 -36.5q-4 -6 -13 -20t-13 -19q-15 -20 -65.5 -97.5t-65.5 -97.5v1123h-516v-498h-213zM1493 0h-213v1700q16 -32 236 -514q50 -109 278.5 -612.5t314.5 -688.5v-512q-194 415 -340 746q-34 75 -71.5 158
t-96 210t-108.5 236v-723z" />
    <glyph glyph-name="uniF459" unicode="HV" horiz-adv-x="2105" 
d="M326 0h-213v1219h213v-510h516v510h213v-1528q-7 -9 -62 -92q-5 -7 -15 -22.5t-15 -22.5q-6 -8 -14.5 -21t-20.5 -32.5t-21 -32.5l-35 -52q-12 -16 -30 -43v1125h-516v-498zM1282 1214h213v-722q296 651 619 1351v-512q-149 -322 -596 -1300q-57 -126 -116 -254
t-89 -192.5t-31 -67.5v1697z" />
    <glyph glyph-name="uniF460" unicode="HW" horiz-adv-x="2652" 
d="M1221 -141q14 29 38.5 84.5t28.5 64.5v1206h213v-722q46 98 105.5 229.5t76.5 167.5q80 180 148 325h213v-722q92 202 186.5 412t184 405.5t245.5 533.5v-512q-149 -322 -596 -1300q-1 -3 -5.5 -15t-8.5 -18h-219v704q-52 -115 -156.5 -341.5t-150.5 -329.5
q-57 -126 -132.5 -289.5t-122.5 -264.5t-48 -104v486zM113 0v1219h213v-510h516v510h213v-1530q-7 -9 -62 -92q-5 -7 -15 -23t-15 -23q-2 -3 -121 -180v1127h-516v-498h-213z" />
    <glyph glyph-name="uniF461" unicode="IA" horiz-adv-x="1372" 
d="M553 1700q1 -4 30.5 -68t88.5 -192.5t116 -253.5q64 -141 195 -428.5t232.5 -509.5t166.5 -363v-512q-4 10 -616 1352v-723h-213v1698zM113 0v1217h213v-1217h-213z" />
    <glyph glyph-name="uniF462" unicode="IV" horiz-adv-x="1372" 
d="M553 1214h213v-722q92 202 186.5 412t184 405.5t245.5 533.5v-512q-17 -36 -594 -1300q-57 -125 -116 -253.5t-88.5 -192.5t-30.5 -68v1697zM113 1217h213v-1217h-213v1217z" />
    <glyph glyph-name="uniF463" unicode="IW" horiz-adv-x="1914" 
d="M492 -627v486q14 29 38.5 85t28.5 64v1206h213v-722q85 183 180 397q46 104 150 325h213v-722q92 202 186 411t183.5 405t246.5 535v-512q-149 -322 -596 -1300q-1 -3 -5.5 -15t-8.5 -18h-219v704q-255 -555 -309 -671q-290 -639 -301 -658zM326 0h-213v1217h213v-1217z
" />
    <glyph glyph-name="uniF464" unicode="JA" horiz-adv-x="1767" 
d="M946 1700q4 -7 234 -514q477 -1045 596 -1301v-512q-194 415 -340 746q-33 75 -71.5 158.5t-97 211t-108.5 236.5v-723h-213v1698zM20 190h105q159 0 271 101t112 244v471h-287q7 12 55 84q54 81 89 129h356v-695q0 -150 -85 -271.5t-217.5 -186t-281.5 -64.5h-117v188z
" />
    <glyph glyph-name="uniF465" unicode="JV" horiz-adv-x="1767" 
d="M967 -440q-18 -40 -21 -43v1697h213v-722q510 1119 617 1351v-512q-17 -36 -594 -1300q-118 -261 -215 -471zM137 -2h-117v188h105q159 0 271 102t112 244v472h-287q2 4 55 83q60 90 89 130h356v-695q0 -150 -85 -272t-218 -187t-281 -65z" />
    <glyph glyph-name="uniF466" unicode="JW" horiz-adv-x="2310" 
d="M887 -141q14 29 38.5 85t28.5 64v1206h213v-722q47 101 109.5 237t73.5 160q96 217 147 325h213v-722q510 1119 617 1351v-512q-149 -322 -596 -1300q-6 -21 -15 -33h-219v704q-52 -115 -156.5 -341.5t-150.5 -329.5q-252 -557 -303 -658v486zM20 186h105q159 0 271 102
t112 244v472h-287q2 4 55 83q60 90 89 130h356v-695q0 -150 -85 -272t-218 -187t-281 -65h-117v188z" />
    <glyph glyph-name="uniF467" unicode="LB" horiz-adv-x="1581" 
d="M113 0v1214h213v-1003h837q39 0 69.5 15t46.5 39.5t23.5 54t0 59t-23.5 54t-46.5 39.5t-69.5 15h-645q21 28 119 179l18 28h459q5 0 15.5 -1t15.5 -1q82 58 82 162q0 70 -47 117q-38 35 -103 35h-561q2 3 19.5 28t44.5 64t45 67l34 52h418q111 0 197.5 -55.5
t126.5 -139.5q37 -81 37 -166q0 -4 -0.5 -13.5t-1.5 -27.5t-2 -33q-3 -55 -72 -143q156 -87 166 -270v-11q0 -64 -25 -127t-69.5 -115t-115.5 -84t-155 -32h-1050z" />
    <glyph glyph-name="uniF468" unicode="LD" horiz-adv-x="1689" 
d="M1018 1010h-516l139 207h377q124 0 238 -47.5t198 -128.5t134 -194t50 -239q0 -168 -84 -308t-226.5 -220t-309.5 -80h-266q55 81 67 100q67 97 70 107h129q168 0 276.5 116.5t108.5 284.5q0 167 -109 284.5t-276 117.5zM113 1214h213v-1003h336l-56 -84q-11 -17 -30 -45
t-32.5 -48t-21.5 -34h-409v1214z" />
    <glyph glyph-name="uniF469" unicode="LS" horiz-adv-x="1292" 
d="M113 1214h213v-1003l370 2h140q81 0 136.5 45.5t55.5 122.5t-55.5 125.5t-136.5 48.5q-13 0 -33.5 2.5t-26.5 3.5q-79 12 -139.5 49t-95 87t-51 109t-12 118.5t27.5 111.5q79 178 317 178h312l-37 -53q-11 -16 -33 -49.5t-33 -48.5l-26 -39q-8 -12 -13 -18h-170
q-57 0 -95 -32.5t-38 -86.5q0 -64 37.5 -100.5t95.5 -36.5h27q173 0 282 -109t109 -274q0 -164 -117 -265.5t-288 -101.5h-723v1214z" />
    <glyph glyph-name="uniF470" unicode="LR" horiz-adv-x="1308" 
d="M326 1217h485q181 0 313.5 -128.5t132.5 -308.5q0 -143 -88 -252.5t-227 -146.5q224 -480 238 -508v-502q-66 147 -193.5 420.5t-241 516.5t-124.5 267h190q96 0 164.5 55.5t68.5 149.5q0 97 -69.5 161.5t-163.5 64.5h-387q-14 25 -29 57.5t-35 78.5t-34 75zM113 0v1217
q8 -18 32.5 -72.5t38.5 -85.5q74 -167 142 -305v-543h247q45 -99 93 -193l8 -18h-561z" />
    <glyph glyph-name="uniF471" unicode="LV" horiz-adv-x="1699" 
d="M258 1339v502q197 -425 372 -793t371 -794q165 362 213 461l11 22q24 60 123 269h-404q-11 26 -16.5 38t-9.5 20t-22.5 47t-49.5 106h833q-3 -5 -59.5 -128t-138 -299t-160.5 -348t-139.5 -304t-63.5 -138h-233q-17 35 -117 249t-256.5 548.5t-253.5 541.5zM113 0v1217
q8 -18 32.5 -72.5t38.5 -85.5q74 -167 142 -305v-543h247q45 -99 93 -193l8 -18h-561z" />
    <glyph glyph-name="uniF472" unicode="LW" horiz-adv-x="2197" 
d="M397 1061q-112 239 -127 272v508q17 -36 731 -1587q69 151 132 285q-56 120 -130 283t-121 265t-61 130h234q87 -188 137 -297.5t61.5 -135.5t18 -41.5t23.5 -52t60 -128.5t144 -308q165 362 213 461l10 22q24 60 123 269h-401q-11 26 -16.5 38t-9.5 20t-22.5 47
t-49.5 106h831q-234 -507 -274 -594q-58 -127 -130 -283t-113.5 -244.5t-43.5 -95.5h-8q9 -22 28.5 -64t28.5 -63v-502l-416 914q-31 -68 -63 -137.5t-49 -106t-19 -41.5h-233q-12 30 -82.5 183t-196.5 424.5t-209 453.5zM113 1217q8 -18 32.5 -72.5t38.5 -85.5
q74 -167 142 -305v-543h247q45 -99 93 -193l8 -18h-561v1217z" />
    <glyph glyph-name="uniF473" unicode="MA" horiz-adv-x="2394" 
d="M131 -305q-43 -93 -147 -324v512q119 256 596 1301q7 23 14 33h219v-705q52 115 156.5 342t150.5 330q247 546 303 657v-485q-13 -27 -35.5 -79.5t-31.5 -72.5v-1204h-213v723q-46 -98 -105.5 -229.5t-76.5 -167.5q-87 -197 -148 -326h-213v723q-109 -238 -236.5 -518
t-232.5 -510zM1583 1698q1 -3 31 -67.5t89 -192.5t116 -254q64 -141 195 -428.5t232.5 -509.5t166.5 -363v-512q-73 157 -617 1352v-723h-213v1698z" />
    <glyph glyph-name="uniF474" unicode="MB" horiz-adv-x="2484" 
d="M45 1356v485q2 -4 48 -103.5t122.5 -264.5t132.5 -287q46 -104 151 -332t156 -342v707h219q12 -28 15 -33q328 -726 596 -1303v-512q-73 157 -617 1352v-723h-213q-100 219 -147 326q-17 36 -76.5 167.5t-105.5 229.5v-723h-213v1206q-59 131 -68 150zM1104 1217h874
q112 0 198.5 -55.5t127.5 -139.5q37 -81 37 -166q0 -4 -0.5 -13.5t-1.5 -27.5t-2 -33q-3 -57 -74 -143q158 -86 168 -270v-11q0 -64 -25 -127t-69.5 -115t-115.5 -84t-155 -32h-401q-6 11 -19.5 40.5t-36 78.5t-42.5 92h499q39 0 69.5 15t46.5 39.5t23.5 54t0 59t-23.5 54
t-46.5 39.5t-69.5 15h-626q-16 34 -47 102.5t-47 102.5h137q39 0 53 2h481q5 0 15.5 -1t15.5 -1q82 61 82 160q0 70 -49 119q-38 35 -103 35h-776q-94 203 -98 211z" />
    <glyph glyph-name="uniF475" unicode="MD" horiz-adv-x="2627" 
d="M49 1841q1 -3 48 -103.5t122.5 -264t132.5 -289.5q46 -103 150.5 -330t156.5 -342v705h220q3 -4 5 -9t4.5 -12t4.5 -12q477 -1045 596 -1301v-512q-200 442 -372.5 818.5t-244.5 533.5v-723h-213q-43 91 -147 326q-17 36 -76.5 167.5t-105.5 229.5v-723h-213v1204
q-6 14 -30.5 69t-37.5 83v485zM1108 1217h846q165 0 308 -80.5t228.5 -221.5t85.5 -307t-85 -307t-228 -222t-309 -81h-285q-4 7 -13 25.5t-14 29.5q-57 125 -67 148l4 4h375q111 0 199.5 54.5t137 146.5t48.5 202q0 168 -108.5 285t-276.5 117h-752q-24 50 -46.5 100
t-34 76.5t-13.5 30.5z" />
    <glyph glyph-name="uniF476" unicode="ME" horiz-adv-x="2334" 
d="M45 1841q1 -3 48 -103.5t122.5 -264t132.5 -289.5q46 -103 150.5 -330t156.5 -342v705h219q3 -5 15 -33q477 -1045 596 -1301v-512q-73 157 -617 1352v-723h-213q-43 91 -147 326q-17 36 -76.5 167.5t-105.5 229.5v-723h-213v1204q-6 14 -30.5 69t-37.5 83v485zM1473 414
l-136 293h828l-142 -211h-354q87 -192 131 -285h473l-143 -211h-467q-35 75 -49.5 107t-19 42.5t-35 76.5t-86.5 188zM1135 1153q-31 63 -31 64h1167q-7 -10 -29 -43.5t-32 -49.5q-63 -94 -82 -118h-928z" />
    <glyph glyph-name="uniF477" unicode="MM" horiz-adv-x="2926" 
d="M1503 1841q56 -111 303 -657q46 -102 151 -329t157 -343v705h219q6 -11 16 -33q300 -672 594 -1301v-512q-156 337 -246 535t-183 404.5t-187 412.5v-723h-213q-61 129 -148 326q-17 36 -76.5 167.5t-105.5 229.5v-723h-213v1204q-6 14 -30.5 69t-37.5 83v485zM-20 -117
q53 113 595 1301q6 21 15 33h219v-705q52 115 156.5 342t150.5 330q247 546 303 657v-485q-13 -27 -35.5 -79.5t-31.5 -72.5v-1204h-213v723q-47 -101 -109.5 -237t-73.5 -160q-104 -235 -147 -326h-213v723q-612 -1342 -616 -1352v512z" />
    <glyph glyph-name="uniF478" unicode="MP" horiz-adv-x="2430" 
d="M39 1841q1 -3 48 -103.5t122.5 -264t132.5 -289.5q46 -103 150.5 -330t156.5 -342v705h219q3 -5 15 -33q477 -1045 596 -1301v-512q-73 157 -617 1352v-723h-213q-43 91 -147 326q-11 24 -73.5 160t-109.5 237v-723h-213v1204q-9 20 -31.5 72.5t-35.5 79.5v485z
M1102 1217h831q181 0 314 -128.5t133 -308.5q0 -178 -130.5 -298t-316.5 -120h-250v-356q-160 333 -213 445v124h463q100 0 167 57.5t67 147.5q0 97 -70 161.5t-164 64.5h-731z" />
    <glyph glyph-name="uniF479" unicode="MR" horiz-adv-x="2068" 
d="M80 1282q-32 68 -35 74v485q1 -3 48 -103.5t122.5 -264t132.5 -289.5q46 -103 150.5 -330t156.5 -342v705h219q3 -5 15 -33q477 -1045 596 -1301v-512q-73 157 -617 1352v-723h-213q-43 91 -147 326q-17 36 -76.5 167.5t-105.5 229.5v-723h-213v1204q-5 14 -16.5 39.5
t-16.5 38.5zM1139 1102q-4 10 -24 50t-30 65h486q181 0 313.5 -128.5t132.5 -308.5q0 -143 -88 -252.5t-225 -146.5q24 -55 39 -88l55 -119q106 -233 133 -289v-514q-35 73 -85.5 184.5t-119 263.5t-108.5 240q-50 107 -104 225t-89.5 195t-44.5 96h191q96 0 164.5 55.5
t68.5 149.5q0 97 -69.5 161.5t-163.5 64.5h-387q-39 80 -45 96z" />
    <glyph glyph-name="uniF480" unicode="MV" horiz-adv-x="2019" 
d="M80 1282q-32 68 -35 74v485q1 -3 48 -103.5t122.5 -264t132.5 -289.5q46 -103 150.5 -330t156.5 -342v705h219q3 -5 15 -33q477 -1045 596 -1301v-512q-73 157 -617 1352v-723h-213q-43 91 -147 326q-17 36 -76.5 167.5t-105.5 229.5v-723h-213v1204q-5 14 -16.5 39.5
t-16.5 38.5zM1245 963q-31 69 -87.5 191t-80.5 175v512q154 -341 241.5 -533.5t187.5 -409t188 -409.5v723h213v-1697q-227 488 -662 1448z" />
    <glyph glyph-name="uniF481" unicode="MW" horiz-adv-x="2603" 
d="M39 1841q2 -4 48 -103.5t122.5 -264.5t132.5 -287q46 -104 151 -332t156 -342v707h219q12 -28 15 -33q328 -726 596 -1303v-512q-73 157 -617 1352v-723h-213q-100 219 -147 326q-11 24 -73.5 160t-109.5 237v-723h-213v1206q-7 15 -30.5 68.5t-36.5 81.5v485zM1180 1051
q-26 57 -69.5 150t-59.5 128v512q136 -303 616 -1352v723h213q68 -145 148 -325q17 -38 77 -169t105 -229v723h213v-1204q32 -76 67 -151v-486q-1 3 -48 104t-122.5 264.5t-132.5 289.5q-46 103 -150.5 329.5t-156.5 341.5v-704h-219q-7 10 -14 33q-326 709 -467 1022z" />
    <glyph glyph-name="uniF482" unicode="MO" horiz-adv-x="2457" 
d="M-23 -117q119 256 596 1301q6 21 15 33h219v-705q52 115 156.5 342t150.5 330q247 546 303 657v-485q-13 -27 -35.5 -79.5t-31.5 -72.5v-1204h-213v723q-47 -101 -109.5 -237t-73.5 -160q-104 -235 -147 -326h-213v723q-72 -157 -244.5 -533.5t-372.5 -818.5v512z
M1624 -2q-66 14 -137 47v238q104 -87 239 -99q12 -2 39 -2q160 0 283 111l14 16q131 131 131 312q0 107 -52 203.5t-146 159.5t-207 71q-4 0 -13.5 1t-13.5 1q-151 0 -274 -105v240q133 59 274 59q134 0 255 -51.5t206 -138t134.5 -202.5t49.5 -241q0 -130 -50 -247
t-135.5 -201t-202.5 -134t-246 -52h-17q-71 0 -131 14z" />
    <glyph glyph-name="uniF483" unicode="MQ" horiz-adv-x="2455" 
d="M-23 -117q119 256 596 1301q6 21 15 33h219v-705q52 115 156.5 342t150.5 330q247 546 303 657v-485q-13 -27 -35.5 -79.5t-31.5 -72.5v-1204h-213v723q-47 -101 -109.5 -237t-73.5 -160q-104 -235 -147 -326h-213v723q-72 -157 -244.5 -533.5t-372.5 -818.5v512z
M1487 279q105 -83 237 -95q6 0 18.5 -1t18.5 -1q41 0 107 15q-13 26 -34 73t-32 70q22 11 94 42.5t99 45.5q8 -19 57 -127q136 133 139 320q0 162 -113 289.5t-282 144.5h-10q-5 0 -14.5 1t-14.5 1q-151 0 -270 -101v238q101 46 223 55q6 2 23 2h24q173 0 321.5 -83.5
t237 -230t88.5 -319.5q0 -18 -2 -24q-4 -150 -73.5 -276t-188.5 -212q6 -12 96 -215v-522q-11 23 -112 252.5t-174 390.5q-78 -25 -183 -28h-16q-131 0 -264 59v236z" />
    <glyph glyph-name="uniF484" unicode="UA" horiz-adv-x="2199" 
d="M113 485v732h213v-732q0 -127 90.5 -215t218.5 -88q129 0 219 90.5t90 212.5v1076q14 21 50.5 76.5t49.5 72.5l41 62q40 61 72 104v-1391q0 -213 -152.5 -362.5t-369.5 -149.5q-141 0 -261 67.5t-190.5 185.5t-70.5 259zM1597 0h-213v1698q12 -21 236 -514
q300 -672 594 -1301v-512q-200 442 -372.5 818.5t-244.5 533.5v-723z" />
    <glyph glyph-name="uniF485" unicode="UM" horiz-adv-x="2746" 
d="M1323 1356v485q13 -22 301 -657q115 -246 307 -672v705h221q3 -5 15 -33q64 -141 195 -428.5t232.5 -509.5t166.5 -363v-512q-73 157 -617 1352v-723h-213q-240 537 -329 723v-723h-213v1206q-5 15 -17 40t-16 36zM113 485v732h213v-732q0 -127 90.5 -215t218.5 -88
q129 0 219 90.5t90 212.5v1076q14 21 50.5 76.5t49.5 72.5l41 62q40 61 72 104v-1391q0 -213 -152.5 -362.5t-369.5 -149.5q-141 0 -261 67.5t-190.5 185.5t-70.5 259z" />
    <glyph glyph-name="uniF486" unicode="UV" horiz-adv-x="2203" 
d="M113 487v730h213v-730q0 -127 90.5 -215t218.5 -88q129 0 219 90t90 213v1076q14 21 50.5 76.5t49.5 72.5l41 62q40 61 72 104v-1391q0 -213 -152.5 -362.5t-369.5 -149.5q-105 0 -201.5 39.5t-167 107.5t-112 163.5t-41.5 201.5zM1384 -483v1700h213v-723
q441 967 617 1349v-512q-304 -652 -594 -1300q-224 -493 -236 -514z" />
    <glyph glyph-name="uniF487" unicode="UW" horiz-adv-x="2750" 
d="M1354 -561q-31 -64 -33 -66v486q10 22 21.5 47t25 55.5t21.5 48.5v1204h213v-720q44 93 102.5 221.5t79.5 173.5q96 217 147 325h213v-720q93 203 187 411t184 404t246 534v-512q-17 -36 -594 -1300l-17 -33h-219v704q-52 -115 -156.5 -341.5t-150.5 -329.5
q-58 -128 -159 -349.5t-111 -242.5zM113 1221h213v-732q0 -126 90.5 -213.5t218.5 -87.5q129 0 219 89.5t90 211.5v1076q16 23 52 78.5t48 72.5q8 10 22.5 32t18.5 28q8 12 33.5 50t38.5 56v-1393q0 -140 -70 -257t-190 -184.5t-262 -67.5q-105 0 -201.5 39.5t-167 107
t-112 162.5t-41.5 200v732z" />
    <glyph glyph-name="uniF488" unicode="TA" horiz-adv-x="2004" 
d="M610 0q12 25 269.5 585.5t291.5 631.5h236q3 -11 99.5 -220.5t254 -551.5t258.5 -564v-510q-193 418 -368 809q-13 29 -132 284t-229 499q-53 -118 -93.5 -206t-62 -133.5t-34 -71t-19.5 -38.5t-8 -16q-11 -28 -227 -498h-236zM20 1006q11 17 31 45t27 39q50 76 88 127
h772q-3 -7 -35.5 -78.5t-60.5 -132.5h-242v-537q-154 -336 -213 -469v1006h-367z" />
    <glyph glyph-name="uniF489" unicode="TD" horiz-adv-x="1896" 
d="M709 0l69 102q15 22 32.5 48.5t27 41t10.5 15.5h377q165 0 275 116.5t110 284.5q0 169 -109 286.5t-276 117.5h-228l140 205h88q125 0 239 -47.5t198 -128.5t133.5 -194t49.5 -239q0 -168 -84 -308t-226.5 -220t-309.5 -80h-516zM20 1006q11 17 31 45t27 39q50 76 88 127
h797q-10 -17 -30 -45t-26 -37q-78 -118 -86 -129h-221v-1006h-213v1006h-367z" />
    <glyph glyph-name="uniF490" unicode="TE" horiz-adv-x="1712" 
d="M387 1006h-367q11 17 31 45t27 39q50 76 88 127h1483q-20 -27 -60 -87q-16 -24 -46 -68t-38 -56h-905v-1006h-213v1006zM813 0v707h729l-139 -205v-2q0 -1 -1 -2t-1 -2h-375v-283h625q0 -2 -2 -4l-140 -207v-2h-696z" />
    <glyph glyph-name="uniF491" unicode="TF" horiz-adv-x="1710" 
d="M387 1006h-367q11 17 31 45t27 39q50 76 88 127h1483q-20 -27 -60 -87q-16 -24 -46 -68t-38 -56h-905v-1006h-213v1006zM813 0v707h729l-139 -205v-2q0 -1 -1 -2t-1 -2h-375v-496h-213z" />
    <glyph glyph-name="uniF492" unicode="TM" horiz-adv-x="2045" 
d="M561 -629v512q65 141 166.5 363t232.5 509.5t195 428.5q1 3 5.5 15t8.5 18h222v-705q192 426 307 672q288 635 301 657v-485l-33 -74q-6 -14 -18.5 -40t-16.5 -36v-1206h-213v723q-79 -167 -327 -723h-213v723q-72 -157 -244.5 -533.5t-372.5 -818.5zM20 1006
q11 17 31 45t27 39q50 76 88 127h772q-3 -7 -35.5 -78.5t-60.5 -132.5h-242v-537q-154 -336 -213 -469v1006h-367z" />
    <glyph glyph-name="uniF493" unicode="TP" horiz-adv-x="1773" 
d="M813 575h463q101 0 167 57t66 148q0 98 -69.5 162t-163.5 64h-279q38 51 62 90q39 55 80 123h137q181 0 313.5 -130t132.5 -309q0 -178 -130 -298t-316 -120h-250v-362h-213v575zM20 1006q11 17 31 45t27 39q50 76 88 127h772l-141 -211h-197v-1006h-213v1006h-367z" />
    <glyph glyph-name="uniF494" unicode="TZ" horiz-adv-x="1718" 
d="M20 1006q11 17 31 45t27 39q50 76 88 127h1532l-576 -1006h551q-11 -17 -31.5 -47.5t-23.5 -34.5q-78 -118 -86 -129h-760l580 1006h-752v-1006h-213v1006h-367z" />
    <glyph glyph-name="uniF495" unicode="WA" horiz-adv-x="2398" 
d="M-10 1843q188 -411 345 -756.5t271 -594.5v722h213q68 -145 148 -325q24 -51 82.5 -180t99.5 -217v722h213v-1204q8 -18 21.5 -48.5t25 -55.5t21.5 -47v-486q-61 123 -304 658q-46 103 -150.5 329.5t-156.5 341.5v-704h-219q-3 5 -7 16.5t-7 16.5q-447 978 -596 1300v512
zM1585 2v1698q1 -1 18.5 -41t52.5 -116.5t73 -156.5l92 -200q300 -672 594 -1301v-512q-163 357 -617 1350v-721h-213z" />
    <glyph glyph-name="uniF496" unicode="WB" horiz-adv-x="2934" 
d="M-16 1335v508q104 -224 217 -472t155 -337q37 -83 147 -318t214 -462q89 197 131 287l-103 221q-38 83 -89.5 196.5t-80.5 176t-40 84.5h235q123 -272 206 -452q23 -50 25 -56q3 -10 211 -457q205 448 213 463q6 11 13 27.5t38 84t83 177.5h-402q-40 91 -96 213h829
q-234 -507 -274 -594q-58 -127 -130 -283t-113.5 -244.5t-43.5 -95.5h-4l55 -123v-506q-42 94 -61 136t-33.5 71t-96 208t-224.5 499q-126 -277 -131 -285h-236q-15 36 -111.5 245.5t-254.5 551t-248 536.5zM2519 2h-956q87 189 98 211h858q39 0 69.5 15t46.5 39.5t23.5 54
t0 59t-23.5 54t-46.5 39.5t-69.5 15h-731q15 34 47 102.5t47 102.5h617q81 58 81 162q0 68 -47 115q-38 35 -102 35h-406q24 53 47.5 103.5t36.5 77.5t15 32h307q143 0 240 -88t118 -216q4 -36 4 -53q0 -126 -77 -221q82 -46 123 -116.5t43 -153.5v-11q0 -64 -24 -127
t-68.5 -115t-115 -84t-155.5 -32z" />
    <glyph glyph-name="uniF497" unicode="WD" horiz-adv-x="2977" 
d="M-23 1335v508q365 -785 734 -1587q106 232 131 285l-103 221q-207 449 -211 457h236q143 -316 217 -475q13 -27 14 -31q3 -7 211 -457q188 413 213 461q5 11 12.5 28t38 83.5t82.5 177.5h-401q-40 91 -96 213h829q-234 -507 -274 -594q-58 -127 -130 -283t-113.5 -244.5
t-43.5 -95.5h-4l55 -123v-506q-41 93 -106.5 231t-309.5 683q-126 -277 -131 -285h-235q-14 36 -112 247t-254.5 548t-248.5 538zM2306 2h-747q16 36 26 59q9 22 33.5 73.5t34.5 72.5h653q8 0 10 2q160 5 267.5 119.5t107.5 281.5t-109 284.5t-276 117.5h-283
q13 28 33.5 73.5t36 79t25.5 54.5h188q166 0 308.5 -80t227.5 -221t85 -308q0 -168 -84.5 -308t-227 -220t-309.5 -80z" />
    <glyph glyph-name="uniF498" unicode="WE" horiz-adv-x="2867" 
d="M-16 1335v508q249 -536 733 -1587q106 232 131 285l-103 221q-38 83 -89.5 196.5t-80.5 176t-40 84.5h235q143 -316 217 -475q13 -27 14 -31q3 -7 211 -457q188 413 213 461q6 11 13 27.5t38 84t83 177.5h-402q-40 91 -96 213h829q-234 -507 -274 -594
q-58 -127 -130 -283t-113.5 -244.5t-43.5 -95.5h-4l55 -123v-506q-42 94 -61 136t-33.5 71t-96 208t-224.5 499q-126 -277 -131 -285h-236q-15 36 -111.5 245.5t-254.5 551t-248 536.5zM1565 2q99 220 131 287q40 85 108 233.5t86 186.5h807l-143 -211h-529
q-87 -192 -131 -285h912q-2 -2 -2 -4l-140 -207h-1099zM2660 1006h-632q70 151 96 213h680l-62 -93q-73 -109 -82 -120z" />
    <glyph glyph-name="uniF499" unicode="WM" horiz-adv-x="2924" 
d="M1497 1843q22 -55 301 -657q115 -246 307 -672v705h222q3 -5 7 -16.5t7 -16.5q61 -134 196 -427t235 -513t163 -361v-512q-194 415 -340 746q-42 93 -131.5 287t-145.5 317v-721h-213q-43 91 -147 326q-127 282 -180 395v-721h-213v1204q-13 26 -35 76.5t-33 73.5v487z
M-23 1843q201 -440 373 -816t244 -533v720h213q51 -108 147 -325q21 -45 80 -173.5t103 -221.5v720h213v-1204q8 -18 31 -70.5t36 -80.5v-486q-51 101 -303 658q-46 103 -150.5 329.5t-156.5 341.5v-704h-219q-3 5 -7.5 16.5t-7.5 16.5q-447 978 -596 1300v512z" />
    <glyph glyph-name="uniF500" unicode="WW" horiz-adv-x="2930" 
d="M1507 -627v486q10 22 21.5 47t25 55.5t21.5 48.5v1204h213v-720q44 93 102.5 221.5t79.5 173.5q80 180 148 325h213v-720q68 148 240 528t376 821v-512q-304 -652 -594 -1300l-16 -33h-219v704q-52 -116 -157 -342.5t-151 -328.5q-252 -557 -303 -658zM-16 1843
q481 -1054 616 -1349v720h213q68 -145 148 -325q21 -45 79.5 -173.5t102.5 -221.5v720h213v-1204q8 -18 31 -70.5t36 -80.5v-486q-51 101 -303 658q-46 103 -150.5 329.5t-156.5 341.5v-704h-219q-3 5 -7 16.5t-7 16.5q-447 978 -596 1300v512z" />
    <glyph glyph-name="uniF501" unicode="WO" horiz-adv-x="2871" 
d="M-23 1335v508q133 -286 732 -1587q106 232 131 285q-56 120 -130 283t-121 265t-61 130h234q87 -188 137 -297.5t61.5 -135.5t18 -41.5t23.5 -52t60 -128.5t144 -308q165 362 213 461l11 22q15 38 122 267h-401q-12 27 -17 38t-8.5 19t-22.5 48.5t-50 107.5h831
q-234 -507 -274 -594q-58 -127 -130 -283t-113.5 -244.5t-43.5 -95.5h-6q16 -37 55 -127v-502l-414 914q-30 -63 -64 -137.5t-50 -109t-19 -38.5h-233q-13 32 -114.5 249.5t-251 539.5t-249.5 544zM1714 164q-60 60 -104 137q21 47 66.5 144.5t66.5 144.5
q4 -166 117.5 -283.5t279.5 -134.5q12 -2 39 -2q156 0 281 113q4 4 8 7l4 3l4 4q128 128 131 313q0 164 -116.5 292t-288.5 140q-4 2 -13 2h-14q-149 0 -266 -96q91 204 127 277q44 9 90 12q8 2 24 2h25q134 0 255 -51.5t206 -138t134.5 -202.5t49.5 -241
q0 -174 -85.5 -318.5t-230.5 -228t-319 -88.5h-14q-126 0 -247.5 51t-209.5 142z" />
    <glyph glyph-name="uniF502" unicode="VA" horiz-adv-x="1824" 
d="M1014 2v1698q4 -9 235 -514q477 -1045 596 -1301v-512q-59 127 -340 746q-77 163 -278 604v-721h-213zM106 1053q-26 57 -69.5 150t-59.5 128v512q201 -440 373 -816t244 -533v720h213v-1697q-4 7 -234 514q-326 709 -467 1022z" />
    <glyph glyph-name="uniF503" unicode="VB" horiz-adv-x="2443" 
d="M-23 1843q57 -123 129 -279.5t105 -228t72.5 -154.5t72.5 -147q147 -300 365 -778q165 362 213 461l10 22q9 23 123 267h-403q-12 27 -17 38t-9 19.5t-23 49t-50 106.5h834q-3 -5 -59.5 -128t-138 -299t-160.5 -348t-139.5 -304t-63.5 -138h-234q-15 37 -109 238
t-268.5 571t-249.5 530v502zM1071 2q87 189 98 211h859q39 0 69.5 15t46.5 39.5t23.5 54t0 59t-23.5 54t-46.5 39.5t-69.5 15h-732q15 34 47.5 102.5t47.5 102.5h616q82 58 82 162q0 68 -47 115q-38 35 -103 35h-405q24 52 47.5 103t36 78t14.5 32h307q142 0 240 -88.5
t119 -215.5q4 -32 4 -51q0 -124 -78 -223q82 -46 123 -116.5t43 -153.5v-11q0 -64 -24 -127t-68 -115t-114.5 -84t-155.5 -32h-957z" />
    <glyph glyph-name="uniF504" unicode="VD" horiz-adv-x="2492" 
d="M-23 1341v502q57 -123 129 -279.5t105 -228t72.5 -154.5t72.5 -147q147 -300 365 -778q165 362 213 461l10 22q9 23 123 267h-403q-12 27 -17 38t-9 19.5t-23 49t-50 106.5h834q-3 -5 -59.5 -128t-138 -299t-160.5 -348t-139.5 -304t-63.5 -138h-234q-15 37 -109 238
t-268.5 571t-249.5 530zM1073 2q3 7 12 26.5l15 32.5q7 17 17.5 39.5t25 54t24.5 52.5h654q8 0 10 2q160 5 267.5 119.5t107.5 281.5t-109 284.5t-276 117.5h-283q14 29 47.5 105t46.5 102h189q165 0 307.5 -80.5t227.5 -221.5t85 -307q0 -168 -84 -308t-226.5 -220
t-309.5 -80h-748z" />
    <glyph glyph-name="uniF505" unicode="VE" horiz-adv-x="2375" 
d="M-23 1843q57 -123 129 -279.5t105 -228t72.5 -154.5t72.5 -147q147 -300 365 -778q165 362 213 461l10 22q9 23 123 267h-403q-12 27 -17 38t-9 19.5t-23 49t-50 106.5h834q-3 -5 -59.5 -128t-138 -299t-160.5 -348t-139.5 -304t-63.5 -138h-234q-15 37 -109 238
t-268.5 571t-249.5 530v502zM1073 2q99 220 131 287q40 85 108.5 233.5t86.5 186.5h807l-144 -211h-528q-87 -192 -131 -285h911q-2 -2 -2 -4l-139 -207h-1100zM2169 1006h-633q70 151 96 213h680q-48 -69 -63 -93q-13 -19 -31 -47t-30.5 -46.5t-18.5 -26.5z" />
    <glyph glyph-name="uniF506" unicode="VM" horiz-adv-x="2383" 
d="M961 1843q9 -23 303 -657q46 -103 150.5 -330t156.5 -342v705h219q3 -5 7 -16.5t7 -16.5q477 -1045 596 -1301v-512q-194 415 -340 746q-34 75 -71.5 158t-96 210t-108.5 236v-721h-213q-97 207 -148 326q-25 53 -84 181.5t-98 213.5v-721h-213v1204q-5 11 -29.5 66.5
t-37.5 83.5v487zM-16 1331v512q481 -1054 616 -1349v720h213v-1697l-233 514q-447 978 -596 1300z" />
    <glyph glyph-name="uniF507" unicode="VV" horiz-adv-x="1837" 
d="M1020 1214h213v-720q497 1087 618 1349v-512q-149 -322 -596 -1300q-57 -125 -116 -253.5t-88.5 -192.5t-30.5 -68v1697zM-16 1843q481 -1054 616 -1349v720h213v-1697l-233 514q-447 978 -596 1300v512z" />
    <glyph glyph-name="uniF508" unicode="VW" horiz-adv-x="2373" 
d="M956 -141q10 22 21.5 47t25 55.5t21.5 48.5v1204h213v-720q38 80 180 395q46 104 150 325h213v-720q68 148 240 528t376 821v-512q-149 -322 -596 -1300q-3 -5 -7 -16.5t-7 -16.5h-219v704q-206 -449 -310 -671q-290 -639 -301 -658v486zM-16 1331v512
q481 -1054 616 -1349v720h213v-1697l-233 514q-447 978 -596 1300z" />
    <glyph glyph-name="uniF509" unicode="VO" horiz-adv-x="2390" 
d="M-27 1341v502q57 -123 129 -279.5t105 -228t72.5 -154.5t72.5 -147q147 -300 365 -778q165 362 213 461l10 22q9 23 123 267h-404q-9 22 -98 213h834q-3 -5 -59.5 -128t-138 -299t-160.5 -348t-139.5 -304t-63.5 -138h-234q-17 35 -117 249t-256.5 548.5t-253.5 541.5z
M1233 164q-63 63 -105 137q20 46 66 143t68 146q4 -166 118 -284.5t279 -133.5q12 -2 39 -2q155 0 280 113l15 14q130 127 133 313q0 164 -117 292t-289 140q-6 2 -28 2q-148 0 -265 -96q91 204 127 277q43 9 91 12q6 2 22 2h25q180 0 329.5 -87.5t233.5 -232.5t84 -313
q0 -173 -85.5 -318t-231 -228.5t-318.5 -88.5h-14q-126 0 -247.5 51t-209.5 142z" />
    <glyph glyph-name="uniF510" unicode="QC" horiz-adv-x="2209" 
d="M109 348q-55 113 -58 246q0 179 83.5 327.5t232 235t329.5 86.5q155 0 285.5 -63t220.5 -176q-76 -113 -100 -244q-46 119 -147 199.5t-232 87.5q-4 2 -12 2h-15q-117 0 -217 -61.5t-157.5 -162.5t-57.5 -215q0 -168 115.5 -295t282.5 -139q12 -2 34 -2q48 0 95 12
q-7 15 -29 65t-35 75q24 9 193 86q7 -13 26.5 -56.5t32.5 -70.5q87 75 125 190q38 -151 102 -256q-46 -58 -139 -129q53 -119 96 -213v-522q-41 86 -291 645q-90 -23 -165 -23h-21q-180 0 -339 101t-238 270zM1200 610q0 169 84 307t227.5 216.5t317.5 83.5h330l-70 -103
q-36 -55 -47 -72q-3 -7 -11 -18t-10 -14h-174q-176 0 -293.5 -112.5t-117.5 -287.5q0 -122 59.5 -215t156 -140.5t212.5 -47.5h295q-20 -32 -142 -207h-172q-174 0 -321 76.5t-235.5 217.5t-88.5 316z" />
    <glyph glyph-name="uniF511" unicode="QG" horiz-adv-x="2469" 
d="M1198 610q0 123 47.5 233t128.5 190t193 129t237 55h553l-139 -207h-373q-176 0 -293.5 -112.5t-117.5 -287.5q0 -92 35 -174t93 -139t136.5 -90t163.5 -33h282v322h-317q50 77 57 88q15 23 45.5 67.5t38.5 57.5h389v-1352q-102 220 -213 461v182h-301
q-133 0 -252.5 47.5t-205.5 128.5t-136.5 194t-50.5 240zM51 594q0 179 83.5 327.5t232 235t329.5 86.5q155 0 285.5 -63t220.5 -176q-76 -113 -100 -244q-46 119 -147 199.5t-232 87.5q-4 2 -12 2h-15q-117 0 -217 -61.5t-157.5 -162.5t-57.5 -215q0 -168 115.5 -295
t282.5 -139q12 -2 34 -2q48 0 95 12q-7 15 -29 65t-35 75q24 9 193 86q7 -13 26.5 -56.5t32.5 -70.5q87 75 125 190q38 -151 102 -256q-46 -58 -139 -129q53 -119 96 -213v-522q-41 86 -291 645q-90 -23 -165 -23h-21q-117 0 -231 46.5t-202.5 127t-144 197t-57.5 246.5z
" />
    <glyph glyph-name="uniF512" unicode="QO" horiz-adv-x="2543" 
d="M1255 356q-53 118 -53 252q0 162 77 302t214 228t305 101q8 2 25 2h24q134 0 255 -51.5t206 -138t134.5 -202.5t49.5 -241q0 -174 -85 -318.5t-230.5 -228t-318.5 -88.5h-11q-193 0 -352.5 104t-239.5 279zM51 594q0 135 49.5 255t135 206.5t205.5 137t255 50.5
q155 0 285.5 -63t220.5 -176q-76 -113 -100 -244q-46 119 -147 199.5t-232 87.5q-4 2 -12 2h-15q-117 0 -217 -61.5t-157.5 -162.5t-57.5 -215q0 -168 115.5 -295t282.5 -139q12 -2 34 -2q48 0 95 12q-7 15 -29 65t-35 75q24 9 193 86q7 -13 26.5 -56.5t32.5 -70.5
q87 75 125 190q38 -151 102 -256q-46 -58 -139 -129q53 -119 96 -213v-522q-41 86 -291 645q-90 -23 -165 -23h-21q-117 0 -231 46.5t-202.5 127t-144 197t-57.5 246.5zM1415 608q0 -160 107.5 -286t275.5 -146q2 -2 10 -2h4q12 -2 39 -2q73 0 147.5 29t135.5 84l14 14
q131 131 131 313q0 164 -116.5 292t-288.5 140q-6 3 -12 3h-15q-115 0 -215.5 -61t-158.5 -162t-58 -216z" />
    <glyph glyph-name="uniF513" unicode="QR" horiz-adv-x="1998" 
d="M109 348q-55 113 -58 246q0 135 49.5 255t135 206.5t205.5 137t255 50.5q26 0 80 -4q13 -3 38 -7t38 -7q28 -54 49 -107q9 -20 26.5 -59.5t32 -70.5t25.5 -54q-120 105 -262 113q-4 2 -12 2h-15q-117 0 -217 -61.5t-157.5 -162.5t-57.5 -215q0 -168 115.5 -295
t282.5 -139q12 -2 34 -2q48 0 95 12q-7 15 -29 65t-35 75q24 9 193 86q8 -14 27.5 -59t31.5 -70q70 61 110 146.5t41 182.5v2l138 -305q-70 -131 -201 -221q18 -40 96 -211v-522q-41 86 -291 645q-90 -23 -165 -23h-21q-180 0 -339 101t-238 270zM1016 1214h485
q184 0 315.5 -127.5t131.5 -310.5q0 -147 -88 -254q-85 -104 -226 -145q76 -162 219 -486v-522q-50 111 -187.5 414.5t-236 522.5t-116.5 265h188q98 0 167 55t69 150q0 98 -70 161.5t-166 63.5h-387q-61 134 -98 213z" />
    <glyph glyph-name="uniF514" unicode="QV" horiz-adv-x="2383" 
d="M936 1372v510q212 -460 750 -1628q196 430 212 461q6 11 13 27.5t38 84t83 177.5h-404q-9 22 -98 213h833q-3 -5 -59.5 -128t-138 -299t-160.5 -348t-139.5 -304t-63.5 -138h-233q-21 54 -633 1372zM51 578q0 170 75.5 313.5t212 233t308.5 100.5q8 2 25 2h24
q75 0 156 -19q30 -58 49 -106q9 -20 26.5 -59.5t32 -70.5t25.5 -54q-112 102 -262 114h-27q-117 0 -217 -61t-157.5 -162t-57.5 -215q0 -169 115 -293t283 -141q12 -2 34 -2q48 0 95 12q-6 13 -28.5 63.5t-35.5 75.5q72 39 193 86q8 -14 27.5 -59t31.5 -70q70 62 110 148.5
t41 183.5l138 -303q-70 -134 -201 -223q18 -40 96 -211v-523q-32 67 -291 646q-90 -23 -165 -23h-21q-117 0 -231 46.5t-202.5 127t-144 197t-57.5 246.5z" />
    <glyph glyph-name="uniF515" unicode="QW" horiz-adv-x="2885" 
d="M938 1372v508q178 -385 361 -780.5t391 -845.5q106 232 131 285q0 4 -4 8q-228 510 -308 670h234q95 -209 175.5 -383t158.5 -340.5t110 -235.5q134 293 186.5 402.5t159.5 343.5h-401q-12 27 -17 38t-8.5 19t-22.5 48.5t-50 107.5h831q-175 -385 -264 -576
q-53 -116 -128.5 -277t-117.5 -251.5t-49 -108.5q21 -50 45 -96v-539q-5 11 -190.5 423.5t-223.5 492.5q-126 -277 -131 -285h-233q-18 36 -115 245t-268.5 581t-251.5 546zM51 594q0 135 49.5 255t135 206.5t205.5 137t255 50.5q26 0 80 -4q13 -3 38 -7t38 -7
q28 -54 49 -107q9 -20 26.5 -59.5t32 -70.5t25.5 -54q-120 105 -262 113q-4 2 -12 2h-15q-117 0 -217 -61.5t-157.5 -162.5t-57.5 -215q0 -168 115.5 -295t282.5 -139q12 -2 34 -2q48 0 95 12q-7 15 -29 65t-35 75q24 9 193 86q8 -14 27.5 -59t31.5 -70q70 61 110 146.5
t41 182.5v2l138 -305q-70 -131 -201 -221q18 -40 96 -211v-522q-41 86 -291 645q-90 -23 -165 -23h-21q-117 0 -231 46.5t-202.5 127t-144 197t-57.5 246.5z" />
    <glyph glyph-name="uniF516" unicode="DC" horiz-adv-x="2076" 
d="M627 1010h-514l139 207h375q166 0 309 -80t228 -221t85 -308t-85 -307.5t-228 -220.5t-309 -80h-514q55 81 67 100q71 103 72 107h385q162 4 269.5 118.5t107.5 282.5q0 109 -48.5 200.5t-137.5 146.5t-201 55zM1233 195q69 97 106 239q53 -109 157 -168t233 -59h294
q-6 -8 -67 -100t-72 -107h-172q-138 0 -262.5 49.5t-216.5 145.5zM1237 1028q87 87 204.5 136t252.5 53h331l-69 -103q-36 -55 -47 -72q-4 -9 -23 -32h-174q-127 0 -224 -58t-147 -161q-30 131 -104 237z" />
    <glyph glyph-name="uniF517" unicode="DG" horiz-adv-x="2338" 
d="M113 0q55 81 67 100q71 103 72 107h385q162 4 269.5 118.5t107.5 282.5q0 109 -48.5 200.5t-137.5 146.5t-201 55h-514l139 207h375q166 0 309 -80t228 -221t85 -308t-85 -307.5t-228 -220.5t-309 -80h-514zM1233 197q68 91 106 235q51 -117 157.5 -187.5t234.5 -70.5
h282v322h-317q3 4 59 88q65 99 84 125h387v-1352q-29 46 -101 163.5t-112 180.5v299h-299q-145 0 -268.5 51.5t-212.5 145.5zM1300 913q-31 68 -61 113q82 85 194 134.5t242 56.5h551l-137 -207h-375q-127 0 -225 -58.5t-148 -163.5q-17 73 -41 125z" />
    <glyph glyph-name="uniF518" unicode="DO" horiz-adv-x="2428" 
d="M1460 27q-135 63 -225 172q66 92 102 225q50 -111 144 -178.5t217 -79.5q12 -2 39 -2q156 0 280 112q3 4 8 7t5 4l4 4q128 131 131 313q0 164 -117 293t-289 141h-28q-127 0 -232 -68t-156 -184q-29 126 -98 230q1 2 15 16q166 180 423 201q8 0 24 1t24 1
q180 0 329.5 -87.5t233.5 -233t84 -314.5q0 -174 -85.5 -318.5t-231 -228t-318.5 -86.5h-19q-138 0 -264 60zM113 1010l139 207h375q166 0 309 -80t228 -221t85 -308t-85 -307.5t-228 -220.5t-309 -80h-514q55 81 67 100q71 103 72 107h385q162 4 269.5 118.5t107.5 282.5
q0 109 -48.5 200.5t-137.5 146.5t-201 55h-514z" />
    <glyph glyph-name="uniF519" unicode="DQ" horiz-adv-x="2424" 
d="M1456 25q-132 61 -223 172q67 90 104 223q49 -110 142 -176t215 -78q12 -2 37 -2q52 0 106 16q-52 115 -63 144q107 55 190 86q6 -10 14.5 -27.5t21.5 -47t23 -50.5q64 61 101 144t37 175q0 162 -113.5 289.5t-282.5 144.5q-299 0 -424 -245q-27 122 -98 225
q80 93 192 149t244 66q8 0 25 1t25 1q174 0 322 -84t235.5 -230.5t87.5 -320.5q0 -153 -69 -286t-194 -224q18 -41 52 -115t45 -100v-522q-79 168 -289 643q-95 -29 -180 -29h-19q-142 0 -264 58zM113 1010l139 207h375q166 0 309 -80t228 -221t85 -308t-85 -307.5
t-228 -220.5t-309 -80h-514q55 81 67 100q71 103 72 107h385q162 4 269.5 118.5t107.5 282.5q0 109 -48.5 200.5t-137.5 146.5t-201 55h-514z" />
    <glyph glyph-name="uniF520" unicode="DR" horiz-adv-x="2170" 
d="M113 0q55 81 67 100q71 103 72 107h375q168 0 277.5 116.5t109.5 284.5q0 109 -48.5 200.5t-137.5 146.5t-201 55h-514l139 207h375q166 0 309 -80t228 -221t85 -308t-85 -307.5t-228 -220.5t-309 -80h-514zM1188 1217h483q120 0 223.5 -58.5t164.5 -159t61 -219.5
q0 -144 -88.5 -253t-227.5 -146q16 -33 92.5 -204.5t128.5 -282.5v-523q-44 93 -158 347t-153 341q-203 443 -231 516h188q98 0 167 55t69 150q0 97 -70.5 160.5t-165.5 63.5h-387q-9 21 -41.5 93t-54.5 120z" />
    <glyph glyph-name="uniF521" unicode="DS" horiz-adv-x="1857" 
d="M627 1010h-514l139 207h375q166 0 309 -80t228 -221t85 -308t-85 -307.5t-228 -220.5t-309 -80h-514q55 81 67 100q71 103 72 107h385q162 4 269.5 118.5t107.5 282.5q0 109 -48.5 200.5t-137.5 146.5t-201 55zM1399 0h-279l140 207v2h139q81 0 137.5 47.5t56.5 124.5
q0 76 -56.5 125t-137.5 49q-19 0 -29 2l-29 4h-4q4 54 4 78q0 63 -12 121q23 -10 60 -10h24q175 0 284 -109t109 -274q0 -164 -117 -265.5t-290 -101.5zM1268 940q-54 111 -135 186q95 88 256 88h309q-2 -3 -35 -53q-54 -74 -92 -139q-2 -2 -5.5 -7t-4.5 -7l-2 -2h-170
q-84 0 -121 -66z" />
    <glyph glyph-name="uniF522" unicode="OA" horiz-adv-x="2398" 
d="M1241 0h-235q12 25 269.5 585.5t291.5 631.5h233q17 -52 610 -1332v-512q-173 376 -346.5 762t-380.5 828q-42 -93 -79 -173t-62 -134.5t-33 -71.5l-28 -62l-8 -16t-5.5 -11.5t-6.5 -13.5t-10 -22t-16.5 -36.5t-26.5 -58t-39 -85t-54.5 -119.5t-73.5 -160zM104 356
q-53 118 -53 252q0 123 47 236t127.5 196t190 136t231.5 63q8 0 24.5 1t24.5 1q182 0 332 -90t234 -240q-128 -275 -134 -288q-8 164 -122 286.5t-283 134.5h-27q-178 0 -305 -128.5t-127 -307.5q0 -160 108 -287t275 -147h15q14 -2 40 -2q147 0 263 96q-58 -128 -129 -280
q-77 -15 -129 -15h-11q-193 0 -353.5 103.5t-238.5 279.5z" />
    <glyph glyph-name="uniF523" unicode="OC" horiz-adv-x="2197" 
d="M51 602q0 174 87.5 320t235.5 229.5t322 83.5q150 0 281 -62.5t221 -171.5q-78 -105 -108 -223q-49 109 -146 181t-221 79q-4 0 -13.5 1t-13.5 1q-117 0 -216.5 -60t-157.5 -161t-58 -217q0 -168 115.5 -295t282.5 -139q12 -2 38 -2q159 0 283 113l14 14q63 63 99 149
q34 -124 108 -233q-91 -112 -222.5 -176t-274.5 -66h-11q-126 0 -243.5 48.5t-206 131.5t-142 202.5t-53.5 252.5zM1188 610q0 169 84 307t227 216.5t316 83.5h331l-139 -205h-174q-178 0 -294 -112.5t-116 -289.5q0 -92 34.5 -169t93.5 -127.5t136 -78.5t162 -28h295
q-6 -8 -67 -100t-72 -107h-172q-129 0 -246.5 45.5t-205.5 124.5t-140.5 194t-52.5 246z" />
    <glyph glyph-name="uniF524" unicode="OG" horiz-adv-x="2459" 
d="M1188 610q0 165 80.5 301.5t219 217t306.5 88.5h553l-139 -205h-375q-174 0 -292 -113t-118 -289q0 -123 59 -224t156.5 -156.5t210.5 -55.5h285v322h-319q12 18 33.5 50t25.5 38q15 23 45.5 67.5t38.5 57.5h389v-1336q-24 40 -68 110.5t-79.5 128t-65.5 107.5v281h-301
q-181 0 -329 80.5t-232 220t-84 309.5zM104 350q-53 118 -53 252q0 174 87.5 320t235.5 229.5t322 83.5q150 0 281 -62.5t221 -171.5q-78 -105 -108 -223q-49 109 -146 181t-221 79q-4 0 -13.5 1t-13.5 1q-117 0 -216.5 -60t-157.5 -161t-58 -217q0 -168 115.5 -295
t282.5 -139q12 -2 38 -2q159 0 283 113l14 14q63 63 99 149q34 -124 108 -233q-91 -112 -222.5 -176t-274.5 -66h-11q-193 0 -352.5 104t-239.5 279z" />
    <glyph glyph-name="uniF525" unicode="OH" horiz-adv-x="2285" 
d="M1231 1217h213v-508h516v508h213v-1844q-30 50 -65.5 107.5t-79.5 128t-68 110.5v777h-516v-496h-213v1217zM51 608q0 174 87.5 320t235.5 229.5t322 83.5q221 0 387 -125v-315q-51 103 -145.5 169.5t-214.5 76.5h-27q-117 0 -216.5 -60t-157.5 -161.5t-58 -217.5
q0 -160 107.5 -286t275.5 -146q2 -2 10 -2h5q12 -2 38 -2q152 0 283 113l14 14q52 52 86 121v-320q-162 -122 -376 -125h-21q-162 0 -307 80.5t-236.5 227.5t-91.5 325z" />
    <glyph glyph-name="uniF526" unicode="OK" horiz-adv-x="2191" 
d="M1231 1217h213v-830l473 830h213q-26 -47 -111 -195q-30 -53 -107.5 -191.5t-119.5 -212.5q46 -100 163.5 -353.5t174.5 -379.5v-512q-77 163 -168 364t-115 253q-46 98 -182 401q-25 -44 -76 -133.5t-73 -128.5q-38 -67 -72 -129h-213v1217zM51 608q0 174 87.5 320
t235.5 229.5t322 83.5q221 0 387 -125v-315q-51 103 -145.5 169.5t-214.5 76.5h-27q-117 0 -216.5 -60t-157.5 -161.5t-58 -217.5q0 -160 107.5 -286t275.5 -146q2 -2 10 -2h5q12 -2 38 -2q152 0 283 113l14 14q52 52 86 121v-320q-162 -122 -376 -125h-21q-162 0 -307 80.5
t-236.5 227.5t-91.5 325z" />
    <glyph glyph-name="uniF527" unicode="OL" horiz-adv-x="2025" 
d="M51 608q0 163 77 303t214 227.5t305 100.5q8 2 25 2h24q221 0 387 -125v-315q-51 103 -145.5 169.5t-214.5 76.5h-27q-120 0 -220 -62t-156 -162.5t-56 -214.5q0 -160 107.5 -286t275.5 -146q2 -2 10 -2h5q12 -2 38 -2q107 0 209 59q110 61 174 189v-320
q-162 -122 -376 -125h-21q-162 0 -307 80.5t-236.5 227.5t-91.5 325zM1866 0h-635v1217h213v-1004h561l-16 -25q-17 -27 -64.5 -99t-58.5 -89z" />
    <glyph glyph-name="uniF528" unicode="OM" horiz-adv-x="2592" 
d="M1202 1282l-33 74v485q13 -22 301 -657q141 -302 308 -672v705h221q3 -4 5 -9t4.5 -12t4.5 -12q64 -141 195 -428.5t232.5 -509.5t166.5 -363v-512q-4 10 -616 1352v-723h-213q-230 515 -328 723v-723h-213v1206q-4 10 -16.5 36t-18.5 40zM51 608q0 163 77 303t214 227.5
t305 100.5q8 2 25 2h24q221 0 387 -125v-315q-51 103 -145.5 169.5t-214.5 76.5h-27q-120 0 -220 -62t-156 -162.5t-56 -214.5q0 -160 107.5 -286t275.5 -146q2 -2 10 -2h5q12 -2 38 -2q107 0 209 59q110 61 174 189v-320q-162 -122 -376 -125h-21q-162 0 -307 80.5
t-236.5 227.5t-91.5 325z" />
    <glyph glyph-name="uniF529" unicode="ON" horiz-adv-x="2285" 
d="M1231 0v1884q139 -317 397 -858q192 -413 332 -709v900h213v-1842q-35 76 -95.5 203t-108.5 229.5t-89 190.5q-82 176 -235.5 507t-200.5 431v-936h-213zM104 356q-53 118 -53 252q0 163 77 303t214 227.5t305 100.5q18 2 58 2q203 0 378 -125v-315q-55 111 -158 178.5
t-229 67.5q-120 0 -220 -62t-156 -162.5t-56 -214.5q0 -160 107.5 -286t275.5 -146q2 -2 10 -2h5q12 -2 38 -2q107 0 209 59q110 61 174 189v-320q-162 -122 -376 -125h-21q-185 0 -344 103.5t-238 277.5z" />
    <glyph glyph-name="uniF530" unicode="OO" horiz-adv-x="2541" 
d="M1200 608q0 161 77 301.5t214 229.5t305 100q8 2 25 2h24q134 0 255 -51.5t206 -138t134.5 -202.5t49.5 -241q0 -175 -85.5 -319t-230.5 -226.5t-319 -87.5h-10q-126 0 -243.5 48t-206 130.5t-142 201.5t-53.5 253zM1413 608q0 -160 107.5 -286t275.5 -146q3 0 6 -1t4 -1
h4q12 -2 39 -2q73 0 147.5 29t135.5 84l14 14q131 131 131 313q0 165 -117 294t-288 141h-27q-115 0 -215.5 -61t-158.5 -162t-58 -216zM104 356q-53 118 -53 252q0 123 47 236t127.5 196t190 136t231.5 63q8 0 24.5 1t24.5 1q152 0 283 -64t221 -176q-73 -113 -100 -243
q-44 119 -144.5 197.5t-232.5 88.5h-27q-178 0 -305 -128.5t-127 -307.5q0 -110 52.5 -208t144.5 -159.5t201 -66.5q12 -2 38 -2q160 0 283 111l14 14q76 80 109 176q28 -138 100 -256q-92 -117 -221.5 -179.5t-277.5 -64.5h-11q-193 0 -353.5 103.5t-238.5 279.5z" />
    <glyph glyph-name="uniF531" unicode="OR" horiz-adv-x="1998" 
d="M51 608q0 123 47 236t127.5 196t190 136t231.5 63q8 0 24.5 1t24.5 1q80 0 154 -18l133 -289q-116 102 -260 110h-27q-178 0 -305 -128.5t-127 -307.5q0 -110 52.5 -208t144.5 -159.5t201 -66.5q12 -2 38 -2q160 0 283 111l14 14q131 134 131 315l138 -305
q-86 -154 -233 -241.5t-326 -92.5h-11q-126 0 -243.5 48t-206 131t-142 202.5t-53.5 253.5zM1016 1214h483q120 0 223.5 -58t164.5 -158.5t61 -219.5q0 -144 -88.5 -254t-227.5 -147q76 -162 219 -486v-522q-55 122 -188 418t-233 518t-119 266h188q97 0 166.5 56.5
t69.5 150.5q0 97 -70.5 160t-165.5 63h-387q-9 21 -41.5 93t-54.5 120z" />
    <glyph glyph-name="uniF532" unicode="OQ" horiz-adv-x="2545" 
d="M1257 360q-53 118 -53 252q0 130 51 247.5t137.5 202t205 134t249.5 49.5q173 0 321.5 -83.5t237 -230t88.5 -319.5q0 -152 -70 -286t-194 -226q8 -17 43 -94t54 -119v-522q-15 31 -56.5 124t-113 253.5t-117.5 263.5q-85 -26 -182 -29h-11q-190 0 -350 104t-240 279z
M104 354q-53 118 -53 252q0 174 87.5 320t235.5 229.5t322 83.5q152 0 283 -63.5t221 -174.5q-75 -122 -100 -243q-44 119 -145 198t-232 86q-4 2 -12 2h-15q-117 0 -216.5 -60t-157.5 -161t-58 -217q0 -160 107.5 -286t275.5 -146q2 -2 10 -2h5q12 -2 38 -2q73 0 147.5 29
t135.5 84l14 14q76 76 109 174q26 -130 100 -254q-86 -114 -219 -177.5t-280 -68.5h-11q-193 0 -352.5 104t-239.5 279zM1450 778q-35 -81 -35 -166q0 -160 107.5 -286t275.5 -146q2 -2 10 -2h7q6 0 18 -1t18 -1q44 0 105 14q-8 18 -29.5 68.5t-34.5 77.5q90 33 193 86
q25 -57 57 -125q64 61 101 144t38 175q0 161 -113 288.5t-282 144.5h-10q-6 2 -29 2q-132 0 -240.5 -76.5t-156.5 -196.5z" />
    <glyph glyph-name="uniF533" unicode="OV" horiz-adv-x="2383" 
d="M936 1882q211 -459 390.5 -847.5t359.5 -780.5q196 430 212 461q5 8 8.5 16t11.5 26t19.5 43.5t37 80.5t57.5 125h-404q-11 26 -16.5 38t-9.5 20t-22.5 47t-49.5 106h833q-3 -5 -59.5 -128t-138 -299t-160.5 -348t-139.5 -304t-63.5 -138h-233q-31 77 -633 1374v508z
M104 342q-53 118 -53 252q0 174 87.5 320t235.5 229.5t322 83.5q76 0 154 -19l133 -288q-115 101 -260 112h-27q-117 0 -216.5 -60t-157.5 -161t-58 -217q0 -168 115.5 -295t282.5 -139q12 -2 38 -2q159 0 283 112l14 15q131 131 131 313l138 -303q-82 -152 -234 -242
q-151 -89 -325 -92h-21q-185 0 -344 103.5t-238 277.5z" />
    <glyph glyph-name="uniF534" unicode="OW" horiz-adv-x="2885" 
d="M938 1374v506q95 -204 215 -465t168 -362q313 -676 369 -799q67 148 131 285q0 4 -4 8q-228 510 -308 670h234q95 -209 175.5 -383t158.5 -340.5t110 -235.5q139 304 191.5 414.5t154.5 333.5h-401q-11 26 -16.5 38t-9.5 20t-22.5 47t-49.5 106h831q-134 -294 -264 -574
q-51 -110 -128 -275t-118.5 -255t-48.5 -109q21 -46 45 -96v-537q-1 2 -94.5 209.5t-192 425t-127.5 279.5q-124 -269 -131 -285h-233q-31 62 -635 1374zM51 608q0 123 47 236t127.5 196t190 136t231.5 63q8 0 24.5 1t24.5 1q80 0 154 -18l133 -289q-116 102 -260 110h-27
q-178 0 -305 -128.5t-127 -307.5q0 -110 52.5 -208t144.5 -159.5t201 -66.5q12 -2 38 -2q160 0 283 111l14 14q131 134 131 315l138 -305q-86 -154 -233 -241.5t-326 -92.5h-11q-126 0 -243.5 48t-206 131t-142 202.5t-53.5 253.5z" />
    <glyph glyph-name="uniF535" unicode="SA" horiz-adv-x="2273" 
d="M891 0q12 25 269.5 585.5t291.5 631.5h234q4 -11 97.5 -216.5t256 -559t256.5 -558.5v-512q-176 380 -348.5 766t-378.5 826q-53 -117 -94 -206t-61.5 -132.5t-34 -71.5t-19 -39t-8.5 -18q-8 -24 -228 -496h-233zM53 895q0 72 29 141q79 178 317 178h895q-3 -7 -35.5 -77
t-60.5 -131h-799q-57 0 -95 -32.5t-38 -86.5q0 -64 37.5 -100.5t95.5 -36.5h99q175 0 284 -109t109 -274q0 -164 -117.5 -265.5t-290.5 -101.5h-352q71 103 141 209h211q81 0 138 47.5t57 124.5q0 40 -19 80q-25 44 -71 69t-105 25q-8 0 -64.5 3t-64.5 3q-98 16 -168 68
t-101.5 120t-31.5 146z" />
    <glyph glyph-name="uniF536" unicode="SB" horiz-adv-x="2111" 
d="M53 899q0 72 29 141q78 179 317 179h895q-3 -7 -35.5 -77.5t-60.5 -131.5h-799q-57 0 -95 -32t-38 -85q0 -64 38 -101.5t95 -37.5h99q175 0 284 -108t109 -275q0 -164 -117.5 -265.5t-290.5 -101.5h-352q71 103 141 209h211q81 0 138 48.5t57 125.5t-57.5 125.5
t-137.5 48.5h-24q-90 0 -105 6q-145 23 -223 118t-78 214zM911 0l37 80q24 55 62 133h684q45 0 78.5 20.5t48.5 50.5t15 66t-15 66t-48.5 50.5t-78.5 20.5h-557q88 192 94 207h414q5 0 15 -1t15 -1q82 58 82 162q0 70 -47 117q-38 35 -102 35h-234q24 53 58 124t41 87h135
q110 0 196 -55.5t127 -139.5q37 -81 37 -166q0 -4 -0.5 -13.5t-1.5 -27.5t-2 -33q-3 -57 -74 -143q158 -86 168 -270v-11q0 -64 -24.5 -127t-69.5 -115t-115.5 -84t-154.5 -32h-783z" />
    <glyph glyph-name="uniF537" unicode="SD" horiz-adv-x="2293" 
d="M86 754q-32 67 -33 143t29 141q78 179 317 179h895q-3 -7 -35.5 -76.5t-60.5 -130.5h-799q-57 0 -95 -33t-38 -86q0 -64 38 -101.5t95 -37.5h99q175 0 284 -108t109 -275q0 -164 -117.5 -264.5t-290.5 -100.5h-352q100 146 141 209h211q81 0 138 47.5t57 124.5
t-57.5 125.5t-137.5 48.5h-24q-90 0 -105 6q-99 17 -166.5 67t-101.5 122zM911 -2q3 7 36 76.5t61 130.5h624q160 5 267.5 119.5t107.5 281.5q0 168 -108.5 285t-276.5 117h-152q-59 0 -92 2q21 46 53.5 115t41.5 89h149q167 0 309.5 -80t227 -220t84.5 -308t-84.5 -308
t-227 -220t-309.5 -80h-711z" />
    <glyph glyph-name="uniF538" unicode="SE" horiz-adv-x="2082" 
d="M53 895q0 72 29 141q79 178 317 178h226q3 -6 16 -34t35.5 -76.5t44.5 -97.5h-322q-57 0 -95 -32.5t-38 -86.5q0 -64 37.5 -100.5t95.5 -36.5h267q168 0 280.5 -107t112.5 -276q0 -165 -119 -266t-289 -101h-520q71 103 141 209h379q81 0 138 47.5t57 124.5t-56 125.5
t-139 48.5q-8 0 -148.5 3t-148.5 3q-98 16 -168 68t-101.5 120t-31.5 146zM1223 414l-136 293h826l-141 -211h-353q107 -236 129 -283h473q0 -2 -2 -4l-139 -207v-2h-467q-45 97 -71.5 156.5t-118.5 257.5zM883 1153q-31 63 -31 64h1167q-7 -10 -29 -43.5t-32 -49.5l-47 -69
q-8 -13 -19.5 -29t-13.5 -20h-928q-12 27 -34.5 76.5t-32.5 70.5z" />
    <glyph glyph-name="uniF539" unicode="SP" horiz-adv-x="1976" 
d="M86 750q-32 68 -33 144.5t29 141.5q79 178 317 178h895q-3 -7 -35.5 -77t-60.5 -131h-799q-57 0 -95 -32.5t-38 -86.5q0 -64 37.5 -100.5t95.5 -36.5h99q175 0 284 -109t109 -274q0 -164 -117.5 -265.5t-290.5 -101.5h-352q71 103 141 209h211q81 0 138 47.5t57 124.5
q0 40 -19 80q-25 44 -71 69t-105 25q-8 0 -64.5 3t-64.5 3q-99 17 -166.5 67t-101.5 122zM1014 573h463q101 0 168 57t67 148q0 97 -70 160t-165 63h-140q18 38 51.5 113t45.5 100h43q120 0 223.5 -58t164 -158.5t60.5 -219.5q0 -177 -131 -296.5t-317 -119.5h-250v-362
h-213v573z" />
    <glyph glyph-name="uniF540" unicode="SR" horiz-adv-x="1818" 
d="M86 750q-32 68 -33 144.5t29 141.5q79 178 317 178h226q3 -10 15.5 -36t36 -76t44.5 -96h-322q-57 0 -95 -32.5t-38 -86.5q0 -64 37.5 -100.5t95.5 -36.5h267q168 0 280.5 -107t112.5 -276q0 -165 -119 -266t-289 -101h-520q71 103 141 209h379q81 0 138 47.5t57 124.5
t-56 125.5t-139 48.5q-8 0 -148.5 3t-148.5 3q-99 17 -166.5 67t-101.5 122zM889 1102q-2 4 -22 46.5t-31 68.5h485q181 0 313.5 -128.5t132.5 -308.5q0 -143 -88 -252.5t-227 -146.5q5 -12 19.5 -42.5t21.5 -45.5l55 -119q6 -13 54.5 -122t76.5 -167v-514
q-88 195 -313.5 688t-235.5 516h191q96 0 164.5 55.5t68.5 149.5q0 97 -69.5 161.5t-163.5 64.5h-387q-38 80 -45 96z" />
    <glyph glyph-name="uniF541" unicode="SV" horiz-adv-x="2234" 
d="M932 1061q-112 239 -127 272v508q105 -226 218.5 -473t154.5 -334q11 -25 128 -278t230 -502q165 362 213 461l10 22q24 60 123 269h-403l-19 36q-4 8 -8 16.5t-9.5 21.5t-22.5 50t-40 87h834q-3 -5 -59.5 -128t-138 -299t-160.5 -348t-139.5 -304t-63.5 -138h-234
q-31 62 -487 1061zM86 750q-32 68 -33 144.5t29 141.5q79 178 317 178h258q2 -6 16 -34.5t36.5 -76t44.5 -97.5h-355q-57 0 -95 -32.5t-38 -86.5q0 -64 37.5 -100.5t95.5 -36.5h267q168 0 280.5 -107t112.5 -276q0 -165 -119 -266t-289 -101h-520q71 103 141 209h379
q81 0 138 47.5t57 124.5t-56 125.5t-139 48.5q-8 0 -148.5 3t-148.5 3q-99 17 -166.5 67t-101.5 122z" />
    <glyph glyph-name="uniF542" unicode="SW" horiz-adv-x="2793" 
d="M862 1333v508q282 -614 414 -893q20 -44 128.5 -280t192.5 -414q43 96 132 285q-56 120 -130 283t-121 265t-61 130h234q225 -491 238 -517l18 -36l55 -125q113 -240 133 -285q165 362 213 461l10 22q24 60 123 269h-401q-11 26 -16.5 38t-9.5 20t-22.5 47t-49.5 106h831
l-23 -50q-79 -164 -538 -1167h-8q43 -103 57 -129v-502q-368 808 -412 910q-2 2 -2 4l-2 2q-124 -269 -131 -285h-233q-9 17 -39 82.5t-88.5 193.5t-104.5 228q-60 129 -194 414.5t-193 414.5zM115 895q0 74 28 141q42 94 126 136t192 42h258q3 -6 16 -34t35.5 -76.5
t44.5 -97.5h-354q-57 0 -95 -32.5t-38 -86.5q0 -64 37.5 -100.5t95.5 -36.5h266q168 0 280.5 -107t112.5 -276q0 -165 -118.5 -266t-288.5 -101h-520q71 103 141 209h379q81 0 137.5 47.5t56.5 124.5t-55.5 125.5t-138.5 48.5q-8 0 -148.5 3t-148.5 3q-98 16 -168 68
t-101.5 120t-31.5 146z" />
    <glyph glyph-name=".notdef" horiz-adv-x="1099" 
d="M113 1434h874v-1434h-874v1434zM170 1393l379 -633l381 633h-760zM524 717l-368 614v-1231zM551 674l-379 -631h758zM575 717l371 -621v1239z" />
    <glyph glyph-name="uni0000" horiz-adv-x="0" 
 />
    <glyph glyph-name="uni0000" horiz-adv-x="0" 
 />
    <glyph glyph-name="uni000D" unicode="&#xd;" horiz-adv-x="0" 
 />
    <glyph glyph-name="uni000A" unicode="&#xa;" horiz-adv-x="0" 
 />
    <glyph glyph-name="space" unicode=" " horiz-adv-x="620" 
 />
    <glyph glyph-name="exclam" unicode="!" horiz-adv-x="419" 
d="M113 1110h194v-791h-194v791zM307 2h-194v191h194v-191z" />
    <glyph glyph-name="quotedbl" unicode="&#x22;" horiz-adv-x="675" 
d="M113 1221h194l-33 -375h-129zM369 1221h194l-33 -375h-129z" />
    <glyph glyph-name="numbersign" unicode="#" horiz-adv-x="1312" 
d="M338 340h-225l34 188h228l26 148h-227l35 190h227l39 221h195l-41 -221h151l39 221h195l-41 -221h227l-37 -190h-225l-27 -148h228l-37 -188h-225l-41 -223h-193l39 223h-150l-40 -223h-193zM596 676l-29 -148h150l26 148h-147z" />
    <glyph glyph-name="dollar" unicode="$" horiz-adv-x="1095" 
d="M115 858q0 68 28 129q79 164 318 164h51v156h96v-156h252q-13 -23 -35 -49q-104 -140 -104 -141h-113v-236q167 -4 271 -103t104 -247q0 -143 -106.5 -234.5t-268.5 -99.5v-127l-96 -2v127h-319l141 192h178v318q-87 4 -96 6q-145 21 -223 107.5t-78 195.5zM725 498
q-46 40 -117 49v-314q70 8 116 50t46 106q0 67 -45 109zM328 852q0 -60 37.5 -93.5t95.5 -33.5h51v236h-51q-57 0 -95 -30t-38 -79z" />
    <glyph glyph-name="percent" unicode="%" horiz-adv-x="1738" 
d="M113 834q0 71 26 122q36 90 117.5 141.5t181.5 51.5q132 0 227 -91.5t95 -223.5q0 -130 -95.5 -225t-226.5 -95q-72 0 -127 27q-90 35 -144 115.5t-54 177.5zM1004 190q-25 61 -25 123q0 131 95.5 225.5t228.5 94.5q130 0 226.5 -95t96.5 -225t-96 -222.5t-227 -92.5
q-201 0 -299 192zM555 20h-201l828 1106h200zM1186 430q-45 -45 -45 -117q0 -23 10 -61q10 -22 35 -51q45 -45 117 -45q67 0 114 45t47 112q0 49 -26 90t-72 58q-30 12 -63 12q-71 0 -117 -43zM324 948q-50 -47 -50 -114q0 -71 48 -113q47 -47 116 -47q68 0 114 46t46 114
q0 67 -45 112q-52 45 -115 45q-68 0 -114 -43z" />
    <glyph glyph-name="ampersand" unicode="&#x26;" horiz-adv-x="1163" 
d="M143 223q-30 65 -30 144q0 161 155 256q-102 118 -102 225q0 125 90.5 201.5t224.5 76.5h287q-3 -4 -23.5 -31t-29.5 -42q-18 -24 -48.5 -66t-37.5 -51h-148q-121 0 -121 -88q0 -27 26.5 -64.5t72.5 -79.5t89.5 -77t98 -77t76.5 -61l92 226l176 -86l-121 -275
q113 -113 181 -241l-172 -86q-37 71 -93 135q-55 -79 -133.5 -118.5t-167.5 -39.5q-114 0 -207.5 59.5t-134.5 159.5zM342 440q-35 -27 -35 -73q0 -72 50 -123t122 -51q55 0 99 29.5t67 82.5q-57 49 -134 110t-91 74q-40 -19 -78 -49z" />
    <glyph glyph-name="quotesingle" unicode="'" horiz-adv-x="419" 
d="M113 1219h194l-33 -375h-129z" />
    <glyph glyph-name="parenleft" unicode="(" horiz-adv-x="647" 
d="M184 299q-71 145 -71 317q12 340 278 543l137 -100q-108 -77 -164.5 -192.5t-56.5 -250.5v-8q0 -131 58 -256q59 -128 170 -219l-150 -94q-132 117 -201 260z" />
    <glyph glyph-name="parenright" unicode=")" horiz-adv-x="647" 
d="M113 125q108 92 170 219q57 123 57 256v8q0 131 -58 248t-163 195l137 100q267 -203 279 -543q0 -169 -71 -315.5t-202 -261.5z" />
    <glyph glyph-name="asterisk" unicode="*" horiz-adv-x="634" 
d="M522 1079v-127l-157 37l110 -112l-110 -64l-48 150l-47 -150l-110 64l110 112l-157 -37v127l157 -37l-110 117l110 64l47 -152l48 152l110 -64l-110 -117z" />
    <glyph glyph-name="plus" unicode="+" horiz-adv-x="999" 
d="M401 504h-288v190h288v283h195v-283h291v-190h-291v-285h-195v285z" />
    <glyph glyph-name="comma" unicode="," horiz-adv-x="419" 
d="M113 193h194v-191q0 -60 -45 -108q-47 -44 -110 -44q-20 0 -23 3v28q72 20 72 121h-88v191z" />
    <glyph glyph-name="hyphen" unicode="-" horiz-adv-x="854" 
d="M741 498h-628v190h628v-190z" />
    <glyph glyph-name="period" unicode="." horiz-adv-x="419" 
d="M307 2h-194v191h194v-191z" />
    <glyph glyph-name="slash" unicode="/" horiz-adv-x="1224" 
d="M928 1171h184l-815 -1112h-184z" />
    <glyph glyph-name="zero" unicode="0" horiz-adv-x="978" 
d="M74 369q-23 125 -23 241q0 633 438 633q96 0 171.5 -34.5t125 -92.5t82 -140t46.5 -172.5t14 -193.5q0 -106 -13 -196t-44.5 -172.5t-80.5 -139.5t-125.5 -91t-175.5 -34q-179 0 -280.5 105.5t-134.5 286.5zM262 621q0 -67 10.5 -144.5t41 -159t75.5 -108.5
q47 -27 94 -27q68 0 124.5 47.5t76.5 120.5q34 118 37 260v19q0 188 -74 317q-29 47 -65.5 67.5t-92.5 20.5t-98 -24.5t-66 -62.5t-39 -94.5t-19.5 -110.5t-4.5 -121z" />
    <glyph glyph-name="one" unicode="1" horiz-adv-x="561" 
d="M236 1010h-216q8 11 86 129q9 16 29.5 45t24.5 35h289v-1217h-213v1008z" />
    <glyph glyph-name="two" unicode="2" horiz-adv-x="983" 
d="M113 2v145q0 80 33 144t86 107t117 80t128.5 70.5t118 70t87.5 88t36 114.5q0 80 -58.5 134.5t-136.5 54.5h-331q3 5 26 39t37 57q57 80 76 113h192q115 0 209.5 -55.5t146.5 -146.5t52 -196q0 -82 -24 -150.5t-63.5 -114.5t-90 -84.5t-103 -63.5t-103.5 -50t-91 -45
t-65.5 -46.5t-26.5 -57.5h530l-53 -80q-16 -22 -45.5 -67t-40.5 -60h-643z" />
    <glyph glyph-name="three" unicode="3" horiz-adv-x="821" 
d="M20 1012q1 2 16.5 22.5t24.5 34.5l99 150h190q240 0 316 -175q28 -67 28 -133q0 -29 -8 -84q-9 -59 -76 -135q74 -55 117 -138t43 -179q0 -166 -118 -270.5t-287 -104.5h-330q17 24 86 129l53 80h191q81 0 136.5 44.5t55.5 121.5q0 78 -56.5 134t-135.5 56h-70v193h53
q58 0 95.5 37t37.5 102q0 53 -38 84t-95 31h-328z" />
    <glyph glyph-name="four" unicode="4" horiz-adv-x="958" 
d="M20 297v211q7 9 26 31.5t30 35.5q9 11 56 70.5t79 97.5q221 274 256 316q21 26 129 160h250q-194 -239 -250 -310q-76 -96 -198 -245t-130 -158h572v-504h-213v295h-607z" />
    <glyph glyph-name="five" unicode="5" horiz-adv-x="899" 
d="M113 2q1 2 16 22.5t25 34.5l98 150h190q79 0 136 55.5t57 134.5q0 78 -57 134.5t-136 56.5h-329q11 15 40.5 60t45.5 67l53 80h223q102 0 189 -57t135.5 -148.5t48.5 -192.5q0 -166 -119 -281.5t-287 -115.5h-329zM113 1010v209h639q-4 -6 -24.5 -35t-29.5 -45
q-78 -118 -86 -129h-499z" />
    <glyph glyph-name="six" unicode="6" horiz-adv-x="915" 
d="M84 219q-33 67 -33 156q0 114 62 209l381 635h245l-268 -445q97 -11 147 -35q62 -24 127 -82q119 -119 119 -282q0 -166 -120 -282t-287 -116q-123 0 -224 66.5t-149 175.5zM322 508q-58 -52 -58 -133t58 -133q47 -56 135 -56q38 0 76 14t61 42q28 25 43 59q14 38 14 74
q0 30 -14 74q-15 34 -43 59q-23 26 -62 41.5t-75 15.5q-34 0 -74 -16q-31 -11 -61 -41z" />
    <glyph glyph-name="seven" unicode="7" horiz-adv-x="714" 
d="M389 1010h-369q8 11 86 129q9 16 29.5 45t24.5 35h442v-1217h-213v438h-270q17 24 86 129l53 80h131v361z" />
    <glyph glyph-name="eight" unicode="8" horiz-adv-x="915" 
d="M84 223q-33 67 -33 154q0 77 31 153q62 121 102 140l13 12q-84 96 -84 223q0 104 56 187.5t153 126.5q68 26 135 26q142 0 244 -98.5t102 -241.5q0 -127 -84 -223l12 -12q5 -2 14 -11q119 -125 119 -282q0 -162 -118 -281t-289 -119q-125 0 -226.5 68t-146.5 178z
M322 510q-58 -52 -58 -133q0 -79 56 -135t137 -56q78 0 136 55.5t58 135.5q0 30 -14 74q-15 34 -43 59q-23 26 -62 41.5t-75 15.5t-74 -15.5t-61 -41.5zM365 997q-39 -36 -39 -92q0 -54 38.5 -92.5t92.5 -38.5q55 0 94 38t39 93q0 56 -39 92q-36 39 -94 39q-56 0 -92 -39z
" />
    <glyph glyph-name="nine" unicode="9" horiz-adv-x="915" 
d="M82 690q-31 73 -31 154q0 157 119 282q123 117 289 117q160 0 286 -117q119 -125 119 -282q0 -118 -61 -209l-381 -633h-248l268 444q-118 3 -217 70.5t-143 173.5zM264 844q0 -81 58 -133q56 -56 137 -56q79 0 135 56q28 25 43 59q14 38 14 74t-14 74q-25 54 -71.5 85
t-106.5 31q-81 0 -138 -54.5t-57 -135.5z" />
    <glyph glyph-name="colon" unicode=":" horiz-adv-x="419" 
d="M307 248h-194v190h194v-190zM113 1038h194v-188h-194v188z" />
    <glyph glyph-name="semicolon" unicode=";" horiz-adv-x="419" 
d="M201 268h-88v191h194v-191q0 -60 -45 -108q-46 -43 -110 -43q-21 0 -23 2v28q72 20 72 121zM109 1036h194v-188h-194v188z" />
    <glyph glyph-name="less" unicode="&#x3c;" horiz-adv-x="817" 
d="M705 250l-592 250v217l592 250v-215l-392 -144l392 -143v-215z" />
    <glyph glyph-name="equal" unicode="=" horiz-adv-x="1077" 
d="M113 537h852v-191h-852v191zM965 686h-852v188h852v-188z" />
    <glyph glyph-name="greater" unicode="&#x3e;" horiz-adv-x="817" 
d="M506 600l-393 143v215l592 -249v-217l-592 -250v215z" />
    <glyph glyph-name="question" unicode="?" horiz-adv-x="854" 
d="M340 911h-227v207h227q109 0 199 -49.5t143 -130.5q12 -19 22 -38t16 -34t10.5 -31t6.5 -27t3 -23.5t1 -18.5v-14v-9q0 -80 -43 -153q-26 -44 -57.5 -74.5t-55 -43.5t-48.5 -32.5t-39 -44.5q-23 -44 -23 -82h-194q0 97 49 179q26 42 56.5 71t53.5 41.5t48.5 32.5t41.5 47
q15 27 15 53q0 54 -39 99q-65 75 -166 75zM281 2v191h194v-191h-194z" />
    <glyph glyph-name="at" unicode="@" horiz-adv-x="1376" 
d="M139 406q-26 83 -26 163l-1 7v12t1 17.5t2.5 23.5t5 29t8.5 35t13 40.5t18 46.5q66 156 210.5 253t313.5 97q119 0 230 -45.5t192 -128.5q79 -80 118.5 -181t39.5 -202q0 -25 -4 -75q-2 -27 -15 -70q-18 -71 -71.5 -110t-122.5 -39q-88 0 -154 66t-66 187v66
q0 75 -45 121.5t-114 46.5q-66 0 -113 -51.5t-47 -116.5q0 -64 46 -116t114 -52q32 0 65 10q4 -13 11 -24l14 -33q5 -13 12.5 -31.5t7.5 -19.5q-58 -21 -110 -21q-122 0 -206.5 85t-84.5 202v31q12 107 94.5 180.5t196.5 73.5q123 0 208 -83t85 -202v-119q0 -52 19 -78
t50 -26t55.5 24t36.5 70q15 59 15 115q0 157 -113 280q-65 70 -151.5 107t-169.5 37h-17q-126 -6 -218.5 -60t-147.5 -143q-72 -116 -72 -252q0 -170 113 -301q65 -77 174 -115q68 -22 143 -22q131 0 248 69l10 -125q-116 -55 -248 -55q-189 0 -343.5 114t-209.5 288z" />
    <glyph glyph-name="A" unicode="A" horiz-adv-x="1394" 
d="M254 0h-234q11 24 269.5 586t292.5 633h233q15 -50 610 -1334v-512q-201 435 -371.5 813.5t-355.5 778.5q-52 -116 -93.5 -206.5t-62 -133t-34 -71t-18 -38.5t-7.5 -18q-2 -6 -229 -498z" />
    <glyph glyph-name="B" unicode="B" horiz-adv-x="1177" 
d="M760 0h-647q23 33 61 90q19 27 49 71.5t35 51.5h502q39 0 69.5 15t46.5 39.5t23.5 54t0 59t-23.5 54t-46.5 39.5t-69.5 15h-645q14 24 73 111q10 16 32 47.5t32 46.5h489q82 58 82 162q0 68 -47 115q-38 35 -102 35h-561q2 4 19 29t44 65t45 67l35 52h418
q111 0 196.5 -56t126.5 -141q39 -80 39 -162q0 -16 -6 -74q-3 -58 -72 -145q82 -46 123 -116.5t43 -153.5v-11q0 -63 -24.5 -126.5t-69.5 -116t-115.5 -85t-154.5 -32.5z" />
    <glyph glyph-name="C" unicode="C" horiz-adv-x="1060" 
d="M96 383q-45 105 -45 229q0 169 84 307t227.5 216.5t317.5 83.5h330l-70 -103q-37 -55 -47 -72q-4 -9 -23 -32h-172q-176 0 -293.5 -112.5t-117.5 -287.5q0 -123 59.5 -216.5t156 -141t212.5 -47.5h295q-20 -32 -142 -207h-172q-9 0 -27.5 1t-27.5 1q-189 15 -333 117
t-212 264z" />
    <glyph glyph-name="D" unicode="D" horiz-adv-x="1300" 
d="M113 1012l139 207h375q11 0 30 -1t31 -1q154 -16 282.5 -100.5t203.5 -218.5t75 -288q0 -167 -85 -308t-228 -221.5t-309 -80.5h-514q14 21 36 55t31 47l32.5 47.5t29 42.5t10.5 15h375q168 0 277.5 117.5t109.5 285.5q0 109 -48.5 200.5t-137.5 146.5t-201 55h-514z" />
    <glyph glyph-name="E" unicode="E" horiz-adv-x="1062" 
d="M809 0h-696v709h729l-142 -211h-374v-285h624q0 -2 -2 -4zM113 1006v213h835l-61 -93q-73 -109 -82 -120h-692z" />
    <glyph glyph-name="F" unicode="F" horiz-adv-x="968" 
d="M326 0h-213v709h729l-142 -211h-374v-498zM113 1006v213h835q-10 -14 -20.5 -29.5t-21.5 -33t-17 -26.5q-16 -24 -46 -68t-38 -56h-692z" />
    <glyph glyph-name="G" unicode="G" horiz-adv-x="1323" 
d="M51 612q0 123 47.5 233t128.5 190t193 129t237 55h553l-139 -207h-373q-175 0 -293 -112t-118 -288q0 -92 35 -174t93 -139t136.5 -90t163.5 -33h282v322h-317q10 16 57 86q15 23 45.5 67.5t38.5 57.5h389v-1330q-162 263 -213 345v276h-301q-133 0 -252.5 47.5
t-205.5 128.5t-136.5 195t-50.5 241z" />
    <glyph glyph-name="H" unicode="H" horiz-adv-x="1167" 
d="M113 1219h213v-510h516v510h213v-1842q-59 98 -213 344v777h-516v-498h-213v1219z" />
    <glyph glyph-name="I" unicode="I" horiz-adv-x="438" 
d="M326 0h-213v1217h213v-1217z" />
    <glyph glyph-name="J" unicode="J" horiz-adv-x="833" 
d="M20 0v188h105q159 0 271 101t112 243v474h-287q7 12 55 84q54 81 89 129h356v-697q0 -150 -85.5 -271.5t-218 -186t-280.5 -64.5h-117z" />
    <glyph glyph-name="K" unicode="K" horiz-adv-x="1073" 
d="M113 1217h213v-830l473 832h213q-58 -102 -117 -207q-126 -224 -223 -398q11 -25 141.5 -309t192.5 -420v-512q-334 728 -463 1014q-38 -70 -109 -194t-88 -156l-20 -37h-213v1217z" />
    <glyph glyph-name="L" unicode="L" horiz-adv-x="907" 
d="M113 2v1217h213v-1004h561l-17 -25q-18 -28 -66 -101.5t-56 -86.5h-635z" />
    <glyph glyph-name="M" unicode="M" horiz-adv-x="1470" 
d="M326 2h-213v1884q86 -197 370 -796q46 -98 135 -289t117 -250q54 118 159 350.5t144 315.5h320v-1848q-32 54 -107 174.5t-106 171.5v1223q-62 -132 -230 -500l-57 -125q-34 -72 -123 -274q-53 115 -174 381.5t-235 515.5v-934z" />
    <glyph glyph-name="N" unicode="N" horiz-adv-x="1167" 
d="M326 2h-213v1884q202 -450 397 -858q174 -375 332 -711v902h213v-1842q-35 76 -95.5 203t-108.5 229.5t-89 190.5q-82 176 -235.5 507t-200.5 431v-936z" />
    <glyph glyph-name="O" unicode="O" 
d="M51 612q0 123 47 236t127.5 196t190 136t231.5 63q8 0 24.5 1t24.5 1q134 0 255 -51.5t206 -138t134.5 -202.5t49.5 -241q0 -174 -85 -319t-230.5 -229t-318.5 -87h-11q-126 0 -243.5 48t-206 131t-142 202.5t-53.5 253.5zM264 612q0 -110 52.5 -208t144.5 -159.5
t201 -66.5q12 -2 38 -2q160 0 283 111l14 14q131 134 131 313q0 165 -117 294t-288 141h-27q-178 0 -305 -129t-127 -308z" />
    <glyph glyph-name="P" unicode="P" horiz-adv-x="1075" 
d="M113 1006l61 92q12 19 31.5 46.5t32 46t18.5 28.5h319q120 0 223.5 -58.5t164.5 -159t61 -219.5q0 -178 -131 -297.5t-318 -119.5h-249v-365h-213v575h462q101 0 168.5 58t67.5 149q0 97 -70.5 160.5t-165.5 63.5h-462z" />
    <glyph glyph-name="Q" unicode="Q" 
d="M51 621q0 166 79 306.5t215.5 226.5t301.5 99q8 0 24.5 1t24.5 1q174 0 322 -84t235.5 -230t87.5 -320q0 -155 -67.5 -286.5t-194.5 -223.5q18 -41 52 -115t45 -100v-523q-79 168 -289 643q-92 -28 -180 -28h-11q-126 0 -243.5 48t-206 131t-142 202t-53.5 252zM299 786
q-35 -81 -35 -165q0 -159 108 -286t275 -147q3 0 6 -1t4 -1h5q12 -2 36 -2q50 0 107 17q-6 16 -18 41.5t-15 31.5l-33 70q72 39 193 86q8 -13 57 -125q66 60 102.5 143.5t36.5 176.5q0 162 -113.5 291t-281.5 141q-2 2 -10 2h-27q-132 0 -240.5 -76.5t-156.5 -196.5z" />
    <glyph glyph-name="R" unicode="R" horiz-adv-x="1153" 
d="M113 2v1219h542q181 0 314 -128.5t133 -308.5q0 -131 -70.5 -232t-189.5 -149q47 -104 132 -289t103 -225v-512q-196 423 -547 1201h125q101 0 167.5 57.5t66.5 148.5q0 97 -70 160.5t-164 63.5h-329v-1006h-213z" />
    <glyph glyph-name="S" unicode="S" horiz-adv-x="870" 
d="M86 756q-32 67 -33 143t29 141q78 179 317 179h312q-5 -9 -35 -54q-32 -43 -68.5 -97.5t-36.5 -57.5h-172q-57 0 -95 -32t-38 -85q0 -65 37.5 -102t95.5 -37h27q175 0 284 -108t109 -275q0 -164 -117 -265.5t-290 -101.5h-281l141 209h140q81 0 137.5 47.5t56.5 126.5
q0 76 -56 124t-138 48q-4 0 -58 6q-98 17 -166 67.5t-102 123.5z" />
    <glyph glyph-name="T" unicode="T" horiz-adv-x="1040" 
d="M20 1006q11 17 31 45t27 39q62 94 88 129h854q-11 -17 -31.5 -47.5t-23.5 -34.5q-74 -112 -88 -131h-277v-1006h-213v1006h-367z" />
    <glyph glyph-name="U" unicode="U" horiz-adv-x="1269" 
d="M113 1880q13 -17 37.5 -55t33.5 -51q4 -6 18.5 -28t22.5 -32q14 -25 101 -151v-1076q0 -123 89 -213t220 -90q128 0 218.5 88t90.5 215v732h213v-732q0 -141 -70.5 -259t-190.5 -185.5t-261 -67.5q-217 0 -369.5 149.5t-152.5 362.5v1393z" />
    <glyph glyph-name="V" unicode="V" horiz-adv-x="1396" 
d="M-51 1884q224 -481 381 -829q41 -93 155 -338t213 -463q74 161 125 271.5t67 144.5t21 45q12 35 133 291h-403q-9 22 -98 213h833q-13 -29 -280.5 -611.5t-280.5 -607.5h-233q-15 36 -113.5 250.5t-265.5 574t-254 549.5v510z" />
    <glyph glyph-name="W" unicode="W" horiz-adv-x="1894" 
d="M-53 1884q114 -244 231 -498.5t152 -328.5q33 -73 148 -319t222 -482q36 83 131 285q-3 7 -8 17t-8 17q-47 102 -122.5 268t-117.5 258t-57 120h234q147 -324 444 -959q137 299 189 408t157 338h-401q-25 57 -97 213h830l-23 -50q-489 -1072 -536 -1165q5 -12 21 -44.5
t24 -51.5v-537q-5 11 -189.5 422.5t-222.5 491.5q-124 -269 -131 -285h-235q-17 34 -119.5 256t-258.5 561.5t-257 556.5v508z" />
    <glyph glyph-name="X" unicode="X" horiz-adv-x="1120" 
d="M35 1198q-3 3 -15 21h230l309 -453l164 240h-109l-137 213h619l-422 -621q40 -57 113.5 -164.5t99.5 -144.5q169 -253 399 -584v-332l-727 1057l-147 -215h80l139 -213h-594l407 596q-30 42 -81 117t-64 94q-85 121 -229 336q-7 12 -19 29t-16 24z" />
    <glyph glyph-name="Y" unicode="Y" horiz-adv-x="1085" 
d="M436 496l-416 723h213l310 -537l186 324h-160l-116 213h612l-416 -723v-496h-213v496z" />
    <glyph glyph-name="Z" unicode="Z" horiz-adv-x="966" 
d="M778 2h-758q87 150 231.5 402.5t242 424.5t104.5 181h-551q5 8 39.5 60t66 99.5t35.5 51.5h758l-575 -1008h549q-10 -17 -30 -45t-26 -37q-78 -118 -86 -129z" />
    <glyph glyph-name="bracketleft" unicode="[" horiz-adv-x="583" 
d="M471 80h-358v1071h358v-137h-164v-795h164v-139z" />
    <glyph glyph-name="backslash" unicode="\" horiz-adv-x="1224" 
d="M297 1151l815 -1079h-184l-815 1079h184z" />
    <glyph glyph-name="bracketright" unicode="]" horiz-adv-x="583" 
d="M276 1014h-163v137h358v-1071h-358v139h163v795z" />
    <glyph glyph-name="asciicircum" unicode="^" horiz-adv-x="960" 
d="M113 768l256 455h221l258 -455h-221l-146 258l-145 -258h-223z" />
    <glyph glyph-name="underscore" unicode="_" horiz-adv-x="1228" 
d="M1116 -2h-1003v190h1003v-190z" />
    <glyph glyph-name="grave" unicode="`" horiz-adv-x="540" 
d="M311 1565l121 -277h-135l-180 277h194z" />
    <glyph glyph-name="a" unicode="a" horiz-adv-x="1445" 
d="M254 0h-234q11 24 269.5 586t292.5 633h233q15 -50 610 -1334v-512q-201 435 -371.5 813.5t-355.5 778.5q-52 -116 -93.5 -206.5t-62 -133t-34 -71t-18 -38.5t-7.5 -18q-2 -6 -229 -498z" />
    <glyph glyph-name="b" unicode="b" horiz-adv-x="1177" 
d="M760 0h-647q23 33 61 90q19 27 49 71.5t35 51.5h502q39 0 69.5 15t46.5 39.5t23.5 54t0 59t-23.5 54t-46.5 39.5t-69.5 15h-645q14 24 73 111q10 16 32 47.5t32 46.5h489q82 58 82 162q0 68 -47 115q-38 35 -102 35h-561q2 4 19 29t44 65t45 67l35 52h418
q111 0 196.5 -56t126.5 -141q39 -80 39 -162q0 -16 -6 -74q-3 -58 -72 -145q82 -46 123 -116.5t43 -153.5v-11q0 -63 -24.5 -126.5t-69.5 -116t-115.5 -85t-154.5 -32.5z" />
    <glyph glyph-name="c" unicode="c" horiz-adv-x="1060" 
d="M96 383q-45 105 -45 229q0 169 84 307t227.5 216.5t317.5 83.5h330l-70 -103q-37 -55 -47 -72q-4 -9 -23 -32h-172q-176 0 -293.5 -112.5t-117.5 -287.5q0 -123 59.5 -216.5t156 -141t212.5 -47.5h295q-20 -32 -142 -207h-172q-9 0 -27.5 1t-27.5 1q-189 15 -333 117
t-212 264z" />
    <glyph glyph-name="d" unicode="d" horiz-adv-x="1300" 
d="M113 1012l139 207h375q11 0 30 -1t31 -1q154 -16 282.5 -100.5t203.5 -218.5t75 -288q0 -167 -85 -308t-228 -221.5t-309 -80.5h-514q14 21 36 55t31 47l32.5 47.5t29 42.5t10.5 15h375q168 0 277.5 117.5t109.5 285.5q0 109 -48.5 200.5t-137.5 146.5t-201 55h-514z" />
    <glyph glyph-name="e" unicode="e" horiz-adv-x="1062" 
d="M809 0h-696v709h729l-142 -211h-374v-285h624q0 -2 -2 -4zM113 1006v213h835l-61 -93q-73 -109 -82 -120h-692z" />
    <glyph glyph-name="f" unicode="f" horiz-adv-x="999" 
d="M326 0h-213v709h729l-142 -211h-374v-498zM113 1006v213h835q-10 -14 -20.5 -29.5t-21.5 -33t-17 -26.5q-16 -24 -46 -68t-38 -56h-692z" />
    <glyph glyph-name="g" unicode="g" horiz-adv-x="1323" 
d="M51 612q0 123 47.5 233t128.5 190t193 129t237 55h553l-139 -207h-373q-175 0 -293 -112t-118 -288q0 -92 35 -174t93 -139t136.5 -90t163.5 -33h282v322h-317q10 16 57 86q15 23 45.5 67.5t38.5 57.5h389v-1330q-162 263 -213 345v276h-301q-133 0 -252.5 47.5
t-205.5 128.5t-136.5 195t-50.5 241z" />
    <glyph glyph-name="h" unicode="h" horiz-adv-x="1167" 
d="M113 1219h213v-510h516v510h213v-1842q-59 98 -213 344v777h-516v-498h-213v1219z" />
    <glyph glyph-name="i" unicode="i" horiz-adv-x="438" 
d="M326 0h-213v1217h213v-1217z" />
    <glyph glyph-name="j" unicode="j" horiz-adv-x="833" 
d="M20 0v188h105q159 0 271 101t112 243v474h-287q7 12 55 84q54 81 89 129h356v-697q0 -150 -85.5 -271.5t-218 -186t-280.5 -64.5h-117z" />
    <glyph glyph-name="k" unicode="k" horiz-adv-x="1073" 
d="M113 1217h213v-830l473 832h213q-58 -102 -117 -207q-126 -224 -223 -398q11 -25 141.5 -309t192.5 -420v-512q-334 728 -463 1014q-38 -70 -109 -194t-88 -156l-20 -37h-213v1217z" />
    <glyph glyph-name="l" unicode="l" horiz-adv-x="907" 
d="M113 2v1217h213v-1004h561l-17 -25q-18 -28 -66 -101.5t-56 -86.5h-635z" />
    <glyph glyph-name="m" unicode="m" horiz-adv-x="1470" 
d="M326 2h-213v1884q86 -197 370 -796q46 -98 135 -289t117 -250q54 118 159 350.5t144 315.5h320v-1848q-32 54 -107 174.5t-106 171.5v1223q-62 -132 -230 -500l-57 -125q-34 -72 -123 -274q-53 115 -174 381.5t-235 515.5v-934z" />
    <glyph glyph-name="n" unicode="n" horiz-adv-x="1167" 
d="M326 2h-213v1884q202 -450 397 -858q174 -375 332 -711v902h213v-1842q-35 76 -95.5 203t-108.5 229.5t-89 190.5q-82 176 -235.5 507t-200.5 431v-936z" />
    <glyph glyph-name="o" unicode="o" 
d="M51 612q0 123 47 236t127.5 196t190 136t231.5 63q8 0 24.5 1t24.5 1q134 0 255 -51.5t206 -138t134.5 -202.5t49.5 -241q0 -174 -85 -319t-230.5 -229t-318.5 -87h-11q-126 0 -243.5 48t-206 131t-142 202.5t-53.5 253.5zM264 612q0 -110 52.5 -208t144.5 -159.5
t201 -66.5q12 -2 38 -2q160 0 283 111l14 14q131 134 131 313q0 165 -117 294t-288 141h-27q-178 0 -305 -129t-127 -308z" />
    <glyph glyph-name="p" unicode="p" horiz-adv-x="1075" 
d="M113 1006l61 92q12 19 31.5 46.5t32 46t18.5 28.5h319q120 0 223.5 -58.5t164.5 -159t61 -219.5q0 -178 -131 -297.5t-318 -119.5h-249v-365h-213v575h462q101 0 168.5 58t67.5 149q0 97 -70.5 160.5t-165.5 63.5h-462z" />
    <glyph glyph-name="q" unicode="q" 
d="M51 621q0 166 79 306.5t215.5 226.5t301.5 99q8 0 24.5 1t24.5 1q174 0 322 -84t235.5 -230t87.5 -320q0 -155 -67.5 -286.5t-194.5 -223.5q18 -41 52 -115t45 -100v-523q-79 168 -289 643q-92 -28 -180 -28h-11q-126 0 -243.5 48t-206 131t-142 202t-53.5 252zM299 786
q-35 -81 -35 -165q0 -159 108 -286t275 -147q3 0 6 -1t4 -1h5q12 -2 36 -2q50 0 107 17q-6 16 -18 41.5t-15 31.5l-33 70q72 39 193 86q8 -13 57 -125q66 60 102.5 143.5t36.5 176.5q0 162 -113.5 291t-281.5 141q-2 2 -10 2h-27q-132 0 -240.5 -76.5t-156.5 -196.5z" />
    <glyph glyph-name="r" unicode="r" horiz-adv-x="1153" 
d="M113 2v1219h542q181 0 314 -128.5t133 -308.5q0 -131 -70.5 -232t-189.5 -149q47 -104 132 -289t103 -225v-512q-196 423 -547 1201h125q101 0 167.5 57.5t66.5 148.5q0 97 -70 160.5t-164 63.5h-329v-1006h-213z" />
    <glyph glyph-name="s" unicode="s" horiz-adv-x="870" 
d="M86 756q-32 67 -33 143t29 141q78 179 317 179h312q-5 -9 -35 -54q-32 -43 -68.5 -97.5t-36.5 -57.5h-172q-57 0 -95 -32t-38 -85q0 -65 37.5 -102t95.5 -37h27q175 0 284 -108t109 -275q0 -164 -117 -265.5t-290 -101.5h-281l141 209h140q81 0 137.5 47.5t56.5 126.5
q0 76 -56 124t-138 48q-4 0 -58 6q-98 17 -166 67.5t-102 123.5z" />
    <glyph glyph-name="t" unicode="t" horiz-adv-x="1040" 
d="M20 1006q11 17 31 45t27 39q62 94 88 129h854q-11 -17 -31.5 -47.5t-23.5 -34.5q-74 -112 -88 -131h-277v-1006h-213v1006h-367z" />
    <glyph glyph-name="u" unicode="u" horiz-adv-x="1269" 
d="M113 1880q13 -17 37.5 -55t33.5 -51q4 -6 18.5 -28t22.5 -32q14 -25 101 -151v-1076q0 -123 89 -213t220 -90q128 0 218.5 88t90.5 215v732h213v-732q0 -141 -70.5 -259t-190.5 -185.5t-261 -67.5q-217 0 -369.5 149.5t-152.5 362.5v1393z" />
    <glyph glyph-name="v" unicode="v" horiz-adv-x="1396" 
d="M-51 1884q224 -481 381 -829q41 -93 155 -338t213 -463q74 161 125 271.5t67 144.5t21 45q12 35 133 291h-403q-9 22 -98 213h833q-13 -29 -280.5 -611.5t-280.5 -607.5h-233q-15 36 -113.5 250.5t-265.5 574t-254 549.5v510z" />
    <glyph glyph-name="w" unicode="w" horiz-adv-x="1892" 
d="M-55 1884q114 -244 231 -498.5t152 -328.5q33 -73 148 -319t222 -482q36 83 131 285q-3 7 -8 17t-8 17q-47 102 -122.5 268t-117.5 258t-57 120h234q147 -324 444 -959q137 299 189 408t157 338h-401q-25 57 -97 213h830l-23 -50q-489 -1072 -536 -1165q5 -12 21 -44.5
t24 -51.5v-537q-5 11 -189.5 422.5t-222.5 491.5q-124 -269 -131 -285h-235q-17 34 -119.5 256t-258.5 561.5t-257 556.5v508z" />
    <glyph glyph-name="x" unicode="x" horiz-adv-x="1124" 
d="M35 1198q-3 3 -15 21h230l309 -453l164 240h-109l-137 213h619l-422 -621q40 -57 113.5 -164.5t99.5 -144.5q169 -253 399 -584v-332l-727 1057l-147 -215h80l139 -213h-594l407 596q-30 42 -81 117t-64 94q-85 121 -229 336q-7 12 -19 29t-16 24z" />
    <glyph glyph-name="y" unicode="y" horiz-adv-x="1085" 
d="M436 496l-416 723h213l310 -537l186 324h-160l-116 213h612l-416 -723v-496h-213v496z" />
    <glyph glyph-name="z" unicode="z" horiz-adv-x="966" 
d="M778 2h-758q87 150 231.5 402.5t242 424.5t104.5 181h-551q5 8 39.5 60t66 99.5t35.5 51.5h758l-575 -1008h549q-10 -17 -30 -45t-26 -37q-78 -118 -86 -129z" />
    <glyph glyph-name="braceleft" unicode="{" horiz-adv-x="550" 
d="M113 549v141h22q15 0 21 2q18 3 30 15q15 12 15 45q0 27 -29 90q-33 67 -33 137q0 51 20 84t64 70q46 27 123 45q36 8 92 8v-144h-24q-7 0 -27 -4q-29 -4 -41 -16q-14 -17 -14 -45q0 -33 22 -88q37 -80 37 -135v-17q0 -67 -45 -112q-2 -2 -4 -2q0 -3 -2 -5q2 0 6 -4
q45 -51 45 -114v-17q0 -53 -37 -133q-22 -58 -22 -88q0 -28 14 -45q14 -11 41 -18q36 -4 51 -4v-142q-56 0 -92 8q-14 3 -26 6t-25 7t-21 6q-64 26 -84 55q-51 51 -51 125q0 68 33 135q29 66 29 90q0 35 -15 47q-17 17 -73 17z" />
    <glyph glyph-name="bar" unicode="|" horiz-adv-x="387" 
d="M274 66h-161v1105h161v-1105z" />
    <glyph glyph-name="braceright" unicode="}" horiz-adv-x="550" 
d="M113 195q17 0 49 4q30 6 42.5 19.5t12.5 43.5q0 40 -22 88q-31 67 -37 133v13q0 68 47 118l4 4q-1 0 -4 7q-47 47 -47 116v13q11 86 37 135q22 45 22 88q0 55 -55 61q-16 4 -25 4h-24v144q56 0 92 -8q74 -17 121 -45q8 -6 19.5 -16.5t14.5 -12.5q52 -52 52 -125
q0 -59 -35 -137q-27 -52 -27 -90q0 -29 8.5 -42.5t36.5 -17.5q6 -2 23 -2h20v-141q-24 0 -36 -1.5t-26 -7t-20 -19t-6 -36.5q0 -35 27 -90q35 -78 35 -135q0 -65 -37 -110t-101 -70q-88 -27 -161 -27v142z" />
    <glyph glyph-name="asciitilde" unicode="~" horiz-adv-x="1097" 
d="M307 518h-194q0 74 28 141q35 65 95 99q56 30 122 30q29 0 43 -2q92 -9 197 -69q67 -42 113 -45q12 -2 32 -2q23 0 29 4q13 5 16 31q3 9 3 20v14h194q0 -114 -64.5 -188t-179.5 -74q-62 0 -117.5 19t-125.5 57q-73 47 -144 47q-20 -4 -22 -6q-18 -11 -21 -35
q-4 -20 -4 -22v-19z" />
    <glyph glyph-name="uni00A0" unicode="&#xa0;" horiz-adv-x="620" 
 />
    <glyph glyph-name="yen" unicode="&#xa5;" horiz-adv-x="1085" 
d="M379 596l-359 623h213l310 -537l186 324h-160l-116 213h612l-358 -623h262v-188h-320v-150h320v-190h-320v-68h-213v68h-319v190h319v150h-319v188h262z" />
    <glyph glyph-name="dieresis" unicode="&#xa8;" horiz-adv-x="686" 
d="M137 1313q-24 24 -24 57q0 35 23.5 57.5t58.5 22.5t57 -22.5t22 -57.5q0 -33 -22.5 -57.5t-56.5 -24.5q-36 0 -58 25zM436 1313q-22 25 -22 57q0 35 22.5 57.5t57.5 22.5t57 -22.5t22 -57.5q0 -33 -22.5 -57.5t-56.5 -24.5q-36 0 -58 25z" />
    <glyph glyph-name="copyright" unicode="&#xa9;" horiz-adv-x="1347" 
d="M113 672q0 150 75.5 276.5t204.5 199.5t281 73q150 0 278.5 -71.5t205.5 -198.5t77 -279q0 -112 -45 -214.5t-120 -176t-179 -117t-217 -43.5q-112 0 -215 43t-179 115.5t-121.5 175.5t-45.5 217zM178 672q0 -98 37.5 -188.5t108.5 -155.5q66 -71 157.5 -107.5
t192.5 -36.5q132 0 246.5 64.5t182.5 177.5t68 246q0 94 -38 190q-67 139 -186.5 217t-272.5 78q-102 0 -193 -35.5t-157 -105.5q-71 -65 -108.5 -155.5t-37.5 -188.5zM340 535q-27 65 -27 137q0 152 110 255.5t267 108.5h199l-41 -61q-4 -7 -14.5 -21t-14.5 -22
q-3 -3 -5.5 -6.5t-5 -8t-3.5 -6.5h-105q-105 0 -175 -67t-70 -172q0 -111 74 -176.5t182 -65.5h178q-8 -8 -42.5 -59t-41.5 -66h-105q-5 0 -16 1t-16 1q-114 9 -201 70t-127 158z" />
    <glyph glyph-name="uni00AD" unicode="&#xad;" horiz-adv-x="0" 
 />
    <glyph glyph-name="registered" unicode="&#xae;" horiz-adv-x="1347" 
d="M113 672q0 150 75.5 276.5t204.5 199.5t281 73q150 0 278.5 -71.5t205.5 -198.5t77 -279q0 -112 -45 -214.5t-120 -176t-179 -117t-217 -43.5q-112 0 -215 43t-179 115.5t-121.5 175.5t-45.5 217zM178 672q0 -98 37.5 -188.5t108.5 -155.5q66 -71 157.5 -107.5
t192.5 -36.5q132 0 246.5 64.5t182.5 177.5t68 246q0 94 -38 190q-67 139 -186.5 217t-272.5 78q-102 0 -193 -35.5t-157 -105.5q-71 -65 -108.5 -155.5t-37.5 -188.5zM420 1026h340q105 0 183.5 -74.5t78.5 -179.5q0 -73 -41 -132t-109 -89l111 -234h-137q-15 36 -75 162.5
t-79 171.5h68q60 0 98.5 33.5t38.5 87.5q0 58 -40.5 94.5t-96.5 36.5h-215v-586h-125v709z" />
    <glyph glyph-name="acute" unicode="&#xb4;" horiz-adv-x="524" 
d="M254 1513h158l-197 -227h-102z" />
    <glyph glyph-name="cedilla" unicode="&#xb8;" horiz-adv-x="503" 
d="M164 -266q-34 10 -51 20l24 68q39 -25 86 -25q70 0 70 51q0 56 -125 66l76 133h88l-56 -84q49 -6 82 -35.5t33 -72.5q0 -67 -47.5 -98t-120.5 -31q-35 0 -59 8z" />
    <glyph glyph-name="onequarter" unicode="&#xbc;" horiz-adv-x="1198" 
d="M975 233h-307v109q3 3 8.5 9.5t10.5 13t9 12.5t68 84q23 28 67.5 83.5t61.5 76.5l65 81h127q-24 -28 -66 -80.5t-61 -76.5q-125 -159 -165 -205h290v-256h-108v149zM326 68h-93l615 1062h90zM221 1016h-108q4 7 20.5 29.5t24.5 35.5q13 23 26 41h146v-618h-109v512z" />
    <glyph glyph-name="onehalf" unicode="&#xbd;" horiz-adv-x="1277" 
d="M748 82v76q0 55 31.5 95.5t77 65.5t90.5 48t76.5 56t31.5 77v6q0 37 -29 62.5t-70 25.5h-168l72 106h98q87 0 146 -59.5t59 -140.5q0 -64 -29.5 -112t-71.5 -74t-84 -45.5t-71.5 -39t-29.5 -41.5h268q-18 -25 -27 -41q-6 -10 -22 -34l-21 -31h-327zM217 68l612 1062h93
l-615 -1062h-90zM221 1038h-108q4 7 20.5 30t24.5 36q13 23 26 41l146 -2v-617h-109v512z" />
    <glyph glyph-name="threequarters" unicode="&#xbe;" horiz-adv-x="1202" 
d="M979 236h-295v92q7 12 29 43q22 33 67 98q21 30 58.5 85.5t52.5 76.5q9 14 27.5 40t27.5 40h131l-252 -367h154v123h111v-383h-111v152zM279 1038h-166q4 7 20.5 30t24.5 36q13 23 26 41h95q122 0 161 -90q15 -37 15 -66q0 -65 -43 -112q82 -59 82 -162q0 -19 -2 -25
q-10 -76 -68.5 -120t-136.5 -44h-166q4 6 19.5 28.5t23.5 35.5q13 23 26 41h97q43 0 70.5 22t27.5 62q0 41 -28.5 68.5t-69.5 27.5h-35v98h27q30 0 48.5 19t18.5 53q0 28 -18 42.5t-49 14.5zM283 68l614 1062h90l-614 -1062h-90z" />
    <glyph glyph-name="Agrave" unicode="&#xc0;" horiz-adv-x="1394" 
d="M20 0l562 1219h233l610 -1334v-512q-201 435 -371.5 813.5t-355.5 778.5l-444 -965h-234zM719 1288l-180 277h194l121 -277h-135z" />
    <glyph glyph-name="Aacute" unicode="&#xc1;" horiz-adv-x="1394" 
d="M20 0l562 1219h233l610 -1334v-512q-201 435 -371.5 813.5t-355.5 778.5l-444 -965h-234zM666 1286h-103l142 227h157z" />
    <glyph glyph-name="Acircumflex" unicode="&#xc2;" horiz-adv-x="1394" 
d="M20 0l562 1219h233l610 -1334v-512q-201 435 -371.5 813.5t-355.5 778.5l-444 -965h-234zM598 1288h-104l151 228h98l156 -228h-111l-92 150h-4z" />
    <glyph glyph-name="Atilde" unicode="&#xc3;" horiz-adv-x="1394" 
d="M254 0h-234l562 1219h233l610 -1334v-512q-201 435 -371.5 813.5t-355.5 778.5zM498 1284v10q0 72 28.5 114t81.5 42q42 0 101 -35q5 -3 17 -10t17.5 -10t15 -6t17.5 -3q20 0 30.5 15t14.5 55h76v-6q0 -154 -113 -154q-30 0 -98 31q-50 29 -70 29q-35 0 -41 -72h-77z" />
    <glyph glyph-name="Adieresis" unicode="&#xc4;" horiz-adv-x="1394" 
d="M254 0h-234l562 1219h233l610 -1334v-512q-201 435 -371.5 813.5t-355.5 778.5zM494 1313q-25 25 -25 57q0 35 23.5 57.5t58.5 22.5t57.5 -22.5t22.5 -57.5q0 -33 -23 -57.5t-57 -24.5q-35 0 -57 25zM770 1370q0 35 22.5 57.5t57.5 22.5t57.5 -22.5t22.5 -57.5
q0 -33 -23 -57.5t-57 -24.5q-36 0 -58 24t-22 58z" />
    <glyph glyph-name="Aring" unicode="&#xc5;" horiz-adv-x="1394" 
d="M254 0h-234l562 1219h233l610 -1334v-512q-201 435 -371.5 813.5t-355.5 778.5zM483 1427q0 92 62 152.5t153 60.5q96 0 154.5 -60.5t58.5 -143.5q0 -94 -64.5 -153.5t-152.5 -59.5q-92 0 -151.5 59.5t-59.5 144.5zM571 1427q0 -56 35.5 -92.5t89.5 -36.5q56 0 91.5 38
t35.5 98q0 51 -32.5 92t-94.5 41q-59 0 -92 -42t-33 -98z" />
    <glyph glyph-name="AE" unicode="&#xc6;" horiz-adv-x="2039" 
d="M20 0l562 1219h233l338 -740v230h729l-141 -211h-375v-285h625q0 -2 -2 -4l-140 -209h-477q9 -19 26.5 -57.5t26.5 -57.5v-512q-201 435 -371.5 813.5t-355.5 778.5l-444 -965h-234zM1845 1006h-692v213h836l-62 -93q-73 -109 -82 -120z" />
    <glyph glyph-name="Ccedilla" unicode="&#xc7;" horiz-adv-x="1060" 
d="M51 612q0 169 84 307t227.5 216.5t317.5 83.5h330l-70 -103q-37 -55 -47 -72q-4 -9 -23 -32h-172q-176 0 -293.5 -112.5t-117.5 -287.5q0 -123 59.5 -216.5t156 -141t212.5 -47.5h295q-20 -32 -142 -207h-172q-9 0 -27.5 1t-27.5 1q-1 0 -55 6l-31 -45q49 -6 82 -35.5
t33 -72.5q0 -67 -47.5 -98t-120.5 -31q-64 0 -111 28l25 68q39 -25 86 -25q69 0 69 51q0 56 -125 66l64 111q-204 53 -331.5 214t-127.5 373z" />
    <glyph glyph-name="Egrave" unicode="&#xc8;" horiz-adv-x="1062" 
d="M809 0h-696v709h729l-142 -211h-374v-285h624q0 -2 -2 -4zM113 1006v213h835l-61 -93q-73 -109 -82 -120h-692zM373 1561h194l121 -277h-135z" />
    <glyph glyph-name="Eacute" unicode="&#xc9;" horiz-adv-x="1062" 
d="M809 0h-696v709h729l-142 -211h-374v-285h624q0 -2 -2 -4zM113 1006v213h835l-61 -93q-73 -109 -82 -120h-692zM381 1284l141 227h158l-197 -227h-102z" />
    <glyph glyph-name="Ecircumflex" unicode="&#xca;" horiz-adv-x="1062" 
d="M113 0v709h729l-142 -211h-374v-285h624q0 -2 -2 -4l-139 -209h-696zM805 1006h-692v213h835l-61 -93q-73 -109 -82 -120zM432 1286h-104l151 227h99l155 -227h-110l-93 150h-4z" />
    <glyph glyph-name="Edieresis" unicode="&#xcb;" horiz-adv-x="1062" 
d="M113 0v709h729l-142 -211h-374v-285h624q0 -2 -2 -4l-139 -209h-696zM113 1006v213h835l-61 -93q-73 -109 -82 -120h-692zM326 1313q-25 25 -25 57q0 35 23.5 57.5t58.5 22.5t57.5 -22.5t22.5 -57.5q0 -33 -23 -57.5t-57 -24.5q-35 0 -57 25zM625 1313q-23 26 -23 57
q0 35 22.5 57.5t57.5 22.5t57.5 -22.5t22.5 -57.5q0 -33 -23 -57.5t-57 -24.5q-35 0 -57 25z" />
    <glyph glyph-name="Igrave" unicode="&#xcc;" horiz-adv-x="438" 
d="M326 0h-213v1217h213v-1217zM256 1565l121 -277h-135l-181 277h195z" />
    <glyph glyph-name="Iacute" unicode="&#xcd;" horiz-adv-x="438" 
d="M326 0h-213v1217h213v-1217zM211 1513h158l-197 -227h-102z" />
    <glyph glyph-name="Icircumflex" unicode="&#xce;" horiz-adv-x="438" 
d="M113 1217h213v-1217h-213v1217zM121 1286h-105l152 227h98l156 -227h-111l-92 150h-4z" />
    <glyph glyph-name="Idieresis" unicode="&#xcf;" horiz-adv-x="438" 
d="M113 0v1217h213v-1217h-213zM14 1307q-24 24 -24 57q0 35 23.5 57.5t58.5 22.5t57.5 -22.5t22.5 -57.5q0 -33 -23 -57.5t-57 -24.5q-36 0 -58 25zM313 1307q-22 25 -22 57q0 35 22.5 57.5t57.5 22.5t57.5 -22.5t22.5 -57.5q0 -33 -23 -57.5t-57 -24.5q-36 0 -58 25z" />
    <glyph glyph-name="Ntilde" unicode="&#xd1;" horiz-adv-x="1167" 
d="M326 2h-213v1884q202 -450 397 -858q174 -375 332 -711v902h213v-1842q-35 76 -95.5 203t-108.5 229.5t-89 190.5q-82 176 -235.5 507t-200.5 431v-936zM383 1343v11q0 72 29 113.5t82 41.5q42 0 100 -34q5 -3 14 -8.5t14.5 -8t12.5 -6t13.5 -5t13.5 -1.5q20 0 30.5 15
t14.5 55h75v-7q0 -153 -112 -153q-33 0 -99 30q-4 2 -14 8t-13 7.5t-10 5.5t-11 5t-9.5 2t-11.5 1q-35 0 -41 -72h-78z" />
    <glyph glyph-name="Ograve" unicode="&#xd2;" 
d="M51 612q0 123 47 236t127.5 196t190 136t231.5 63q8 0 24.5 1t24.5 1q134 0 255 -51.5t206 -138t134.5 -202.5t49.5 -241q0 -174 -85 -319t-230.5 -229t-318.5 -87h-11q-126 0 -243.5 48t-206 131t-142 202.5t-53.5 253.5zM264 612q0 -110 52.5 -208t144.5 -159.5
t201 -66.5q12 -2 38 -2q160 0 283 111l14 14q131 134 131 313q0 165 -117 294t-288 141h-27q-178 0 -305 -129t-127 -308zM719 1290l-180 277h194l121 -277h-135z" />
    <glyph glyph-name="Oacute" unicode="&#xd3;" 
d="M51 612q0 123 47 236t127.5 196t190 136t231.5 63q8 0 24.5 1t24.5 1q134 0 255 -51.5t206 -138t134.5 -202.5t49.5 -241q0 -174 -85 -319t-230.5 -229t-318.5 -87h-11q-126 0 -243.5 48t-206 131t-142 202.5t-53.5 253.5zM264 612q0 -110 52.5 -208t144.5 -159.5
t201 -66.5q12 -2 38 -2q160 0 283 111l14 14q131 134 131 313q0 165 -117 294t-288 141h-27q-178 0 -305 -129t-127 -308zM547 1286l141 227h158l-197 -227h-102z" />
    <glyph glyph-name="Ocircumflex" unicode="&#xd4;" 
d="M51 612q0 123 47 236t127.5 196t190 136t231.5 63q8 0 24.5 1t24.5 1q134 0 255 -51.5t206 -138t134.5 -202.5t49.5 -241q0 -174 -85 -319t-230.5 -229t-318.5 -87h-11q-126 0 -243.5 48t-206 131t-142 202.5t-53.5 253.5zM299 780q-35 -81 -35 -168q0 -110 52.5 -208
t144.5 -159.5t201 -66.5q12 -2 38 -2q160 0 283 111l14 14q131 134 131 313q0 165 -117 294t-288 141h-27q-132 0 -240.5 -74.5t-156.5 -194.5zM598 1286h-104l151 227h98l156 -227h-111l-92 150h-4z" />
    <glyph glyph-name="Otilde" unicode="&#xd5;" 
d="M51 612q0 123 47 236t127.5 196t190 136t231.5 63q8 0 24.5 1t24.5 1q134 0 255 -51.5t206 -138t134.5 -202.5t49.5 -241q0 -174 -85 -319t-230.5 -229t-318.5 -87h-11q-126 0 -243.5 48t-206 131t-142 202.5t-53.5 253.5zM299 780q-35 -81 -35 -168q0 -110 52.5 -208
t144.5 -159.5t201 -66.5q12 -2 38 -2q160 0 283 111l14 14q131 134 131 313q0 165 -117 294t-288 141h-27q-132 0 -240.5 -74.5t-156.5 -194.5zM496 1286v10q0 72 28.5 114t81.5 42q42 0 101 -35q4 -2 14 -8t14.5 -8.5t12 -5.5t13.5 -4.5t13 -1.5q20 0 30.5 14.5t14.5 54.5
h76v-6q0 -154 -113 -154q-30 0 -98 31q-50 29 -70 29q-35 0 -41 -72h-77z" />
    <glyph glyph-name="Odieresis" unicode="&#xd6;" 
d="M51 612q0 123 47 236t127.5 196t190 136t231.5 63q8 0 24.5 1t24.5 1q134 0 255 -51.5t206 -138t134.5 -202.5t49.5 -241q0 -174 -85 -319t-230.5 -229t-318.5 -87h-11q-126 0 -243.5 48t-206 131t-142 202.5t-53.5 253.5zM264 612q0 -110 52.5 -208t144.5 -159.5
t201 -66.5q12 -2 38 -2q160 0 283 111l14 14q131 134 131 313q0 165 -117 294t-288 141h-27q-178 0 -305 -129t-127 -308zM489 1300q-24 24 -24 58q0 35 23.5 57.5t58.5 22.5t57.5 -22.5t22.5 -57.5q0 -33 -23 -57.5t-57 -24.5q-37 0 -58 24zM788 1300q-22 25 -22 58
q0 35 22.5 57.5t57.5 22.5t57.5 -22.5t22.5 -57.5q0 -33 -23 -57.5t-57 -24.5q-37 0 -58 24z" />
    <glyph glyph-name="multiply" unicode="&#xd7;" horiz-adv-x="1058" 
d="M459 602l-346 346l71 70l344 -346l346 346l72 -70l-348 -346l348 -346l-72 -70l-346 346l-344 -346l-71 70z" />
    <glyph glyph-name="Oslash" unicode="&#xd8;" 
d="M106 356q-55 116 -55 256q0 123 47 236t127.5 196t190 136t231.5 63q8 0 24.5 1t24.5 1q162 0 308 -76l86 117h215l-162 -219q93 -89 145.5 -207.5t52.5 -247.5q0 -174 -85 -319t-230.5 -229t-318.5 -87h-17q-152 0 -297 74l-37 -49h-215l111 150q-96 90 -146 204z
M299 780q-35 -81 -35 -168q0 -170 111 -293l508 687q-72 34 -160 43h-27q-132 0 -240.5 -74.5t-156.5 -194.5zM514 215q70 -34 148 -37q12 -2 38 -2q160 0 283 111l14 14q131 134 131 313q-3 162 -108 285z" />
    <glyph glyph-name="Ugrave" unicode="&#xd9;" horiz-adv-x="1269" 
d="M113 487v1393q13 -17 37.5 -55t33.5 -51q4 -6 18.5 -28t22.5 -32q14 -25 101 -151v-1076q0 -123 89 -213t220 -90q128 0 218.5 88t90.5 215v732h213v-732q0 -141 -70.5 -259t-190.5 -185.5t-261 -67.5q-217 0 -369.5 149.5t-152.5 362.5zM657 1286l-180 277h195l121 -277
h-136z" />
    <glyph glyph-name="Uacute" unicode="&#xda;" horiz-adv-x="1269" 
d="M113 487v1393q13 -17 37.5 -55t33.5 -51q4 -6 18.5 -28t22.5 -32q14 -25 101 -151v-1076q0 -123 89 -213t220 -90q128 0 218.5 88t90.5 215v732h213v-732q0 -141 -70.5 -259t-190.5 -185.5t-261 -67.5q-217 0 -369.5 149.5t-152.5 362.5zM485 1286l142 227h157l-196 -227
h-103z" />
    <glyph glyph-name="Ucircumflex" unicode="&#xdb;" horiz-adv-x="1269" 
d="M113 487v1393q13 -17 37.5 -55t33.5 -51q4 -6 18.5 -28t22.5 -32q14 -25 101 -151v-1076q0 -123 89 -213t220 -90q128 0 218.5 88t90.5 215v732h213v-732q0 -141 -70.5 -259t-190.5 -185.5t-261 -67.5q-217 0 -369.5 149.5t-152.5 362.5zM432 1288l152 228h98l156 -228
h-111l-92 150h-4l-94 -150h-105z" />
    <glyph glyph-name="Udieresis" unicode="&#xdc;" horiz-adv-x="1269" 
d="M113 1880q13 -17 37.5 -55t33.5 -51q4 -6 18.5 -28t22.5 -32q14 -25 101 -151v-1076q0 -123 89 -213t220 -90q128 0 218.5 88t90.5 215v732h213v-732q0 -141 -70.5 -259t-190.5 -185.5t-261 -67.5q-217 0 -369.5 149.5t-152.5 362.5v1393zM428 1315q-25 25 -25 57
q0 35 23.5 57.5t58.5 22.5t57.5 -22.5t22.5 -57.5q0 -33 -23 -57.5t-57 -24.5q-35 0 -57 25zM727 1315q-22 25 -22 57q0 35 22 57.5t57 22.5t57.5 -22.5t22.5 -57.5q0 -33 -23 -57.5t-57 -24.5q-35 0 -57 25z" />
    <glyph glyph-name="agrave" unicode="&#xe0;" horiz-adv-x="1445" 
d="M20 0l562 1219h233l610 -1334v-512q-201 435 -371.5 813.5t-355.5 778.5l-444 -965h-234zM745 1288l-180 277h195l121 -277h-136z" />
    <glyph glyph-name="aacute" unicode="&#xe1;" horiz-adv-x="1445" 
d="M20 0l562 1219h233l610 -1334v-512q-201 435 -371.5 813.5t-355.5 778.5l-444 -965h-234zM676 1286h-103l142 227h157z" />
    <glyph glyph-name="acircumflex" unicode="&#xe2;" horiz-adv-x="1445" 
d="M20 0l562 1219h233l610 -1334v-512q-201 435 -371.5 813.5t-355.5 778.5l-444 -965h-234zM625 1288h-105l152 228h98l156 -228h-111l-92 150h-4z" />
    <glyph glyph-name="atilde" unicode="&#xe3;" horiz-adv-x="1445" 
d="M254 0h-234l562 1219h233l610 -1334v-512q-201 435 -371.5 813.5t-355.5 778.5zM522 1288v10q0 72 29 114t82 42q41 0 100 -35q50 -28 68 -28q20 0 30.5 14.5t14.5 54.5h76v-6q0 -154 -113 -154q-30 0 -98 31q-50 29 -70 29q-35 0 -41 -72h-78z" />
    <glyph glyph-name="adieresis" unicode="&#xe4;" horiz-adv-x="1445" 
d="M254 0h-234l562 1219h233l610 -1334v-512q-201 435 -371.5 813.5t-355.5 778.5zM516 1313q-24 24 -24 57q0 35 23 57.5t58 22.5t57.5 -22.5t22.5 -57.5q0 -33 -23 -57.5t-57 -24.5q-35 0 -57 25zM793 1370q0 35 22 57.5t57 22.5t57.5 -22.5t22.5 -57.5q0 -33 -23 -57.5
t-57 -24.5q-35 0 -57 24t-22 58z" />
    <glyph glyph-name="aring" unicode="&#xe5;" horiz-adv-x="1445" 
d="M20 0l562 1219h12q-84 60 -84 165q0 92 62 152.5t153 60.5q96 0 154.5 -60.5t58.5 -143.5q0 -64 -32 -113.5t-85 -75.5l604 -1319v-512q-201 435 -371.5 813.5t-355.5 778.5l-444 -965h-234zM598 1384q0 -56 35.5 -92.5t89.5 -36.5q56 0 91.5 38t35.5 98q0 51 -32.5 92
t-94.5 41q-59 0 -92 -42t-33 -98z" />
    <glyph glyph-name="ae" unicode="&#xe6;" horiz-adv-x="2033" 
d="M254 0h-234l562 1219h233q20 -54 342 -750v240h729l-141 -211h-375v-285h625q0 -2 -2 -4l-140 -209h-481q9 -19 26.5 -57.5t26.5 -57.5v-512q-201 435 -371.5 813.5t-355.5 778.5zM1849 1006h-692v213h836l-62 -93q-73 -109 -82 -120z" />
    <glyph glyph-name="ccedilla" unicode="&#xe7;" horiz-adv-x="1060" 
d="M51 612q0 169 84 307t227.5 216.5t317.5 83.5h330l-70 -103q-37 -55 -47 -72q-4 -9 -23 -32h-172q-176 0 -293.5 -112.5t-117.5 -287.5q0 -123 59.5 -216.5t156 -141t212.5 -47.5h295q-20 -32 -142 -207h-172q-9 0 -27.5 1t-27.5 1q-1 0 -55 6l-31 -45q49 -6 82 -35.5
t33 -72.5q0 -67 -47.5 -98t-120.5 -31q-64 0 -111 28l25 68q39 -25 86 -25q69 0 69 51q0 56 -125 66l64 111q-204 53 -331.5 214t-127.5 373z" />
    <glyph glyph-name="egrave" unicode="&#xe8;" horiz-adv-x="1062" 
d="M809 0h-696v709h729l-142 -211h-374v-285h624q0 -2 -2 -4zM113 1006v213h835l-61 -93q-73 -109 -82 -120h-692zM373 1565h194l121 -277h-135z" />
    <glyph glyph-name="eacute" unicode="&#xe9;" horiz-adv-x="1062" 
d="M809 0h-696v709h729l-142 -211h-374v-285h624q0 -2 -2 -4zM113 1006v213h835l-61 -93q-73 -109 -82 -120h-692zM381 1286l141 227h158l-197 -227h-102z" />
    <glyph glyph-name="ecircumflex" unicode="&#xea;" horiz-adv-x="1062" 
d="M113 0v709h729l-142 -211h-374v-285h624q0 -2 -2 -4l-139 -209h-696zM805 1006h-692v213h835l-61 -93q-73 -109 -82 -120zM432 1288h-104l151 228h99l155 -228h-110l-93 150h-4z" />
    <glyph glyph-name="edieresis" unicode="&#xeb;" horiz-adv-x="1062" 
d="M113 0v709h729l-142 -211h-374v-285h624q0 -2 -2 -4l-139 -209h-696zM113 1006v213h835l-61 -93q-73 -109 -82 -120h-692zM326 1313q-25 25 -25 57q0 35 23.5 57.5t58.5 22.5t57.5 -22.5t22.5 -57.5q0 -33 -23 -57.5t-57 -24.5q-35 0 -57 25zM625 1313q-23 26 -23 57
q0 35 22.5 57.5t57.5 22.5t57.5 -22.5t22.5 -57.5q0 -33 -23 -57.5t-57 -24.5q-35 0 -57 25z" />
    <glyph glyph-name="igrave" unicode="&#xec;" horiz-adv-x="438" 
d="M326 0h-213v1217h213v-1217zM256 1565l121 -277h-135l-181 277h195z" />
    <glyph glyph-name="iacute" unicode="&#xed;" horiz-adv-x="438" 
d="M326 0h-213v1217h213v-1217zM211 1513h158l-197 -227h-102z" />
    <glyph glyph-name="icircumflex" unicode="&#xee;" horiz-adv-x="438" 
d="M113 1217h213v-1217h-213v1217zM121 1288h-105l152 228h98l156 -228h-111l-92 150h-4z" />
    <glyph glyph-name="idieresis" unicode="&#xef;" horiz-adv-x="438" 
d="M113 0v1217h213v-1217h-213zM14 1313q-24 24 -24 57q0 35 23.5 57.5t58.5 22.5t57.5 -22.5t22.5 -57.5q0 -33 -23 -57.5t-57 -24.5q-36 0 -58 25zM313 1313q-22 25 -22 57q0 35 22.5 57.5t57.5 22.5t57.5 -22.5t22.5 -57.5q0 -33 -23 -57.5t-57 -24.5q-36 0 -58 25z" />
    <glyph glyph-name="ntilde" unicode="&#xf1;" horiz-adv-x="1167" 
d="M326 2h-213v1884q202 -450 397 -858q174 -375 332 -711v902h213v-1842q-35 76 -95.5 203t-108.5 229.5t-89 190.5q-82 176 -235.5 507t-200.5 431v-936zM401 1288v10q0 72 29 114t82 42q41 0 100 -35q50 -28 68 -28q20 0 30.5 14.5t14.5 54.5h76v-6q0 -154 -113 -154
q-30 0 -98 31q-50 29 -70 29q-35 0 -41 -72h-78z" />
    <glyph glyph-name="ograve" unicode="&#xf2;" 
d="M51 612q0 123 47 236t127.5 196t190 136t231.5 63q8 0 24.5 1t24.5 1q134 0 255 -51.5t206 -138t134.5 -202.5t49.5 -241q0 -174 -85 -319t-230.5 -229t-318.5 -87h-11q-126 0 -243.5 48t-206 131t-142 202.5t-53.5 253.5zM264 612q0 -110 52.5 -208t144.5 -159.5
t201 -66.5q12 -2 38 -2q160 0 283 111l14 14q131 134 131 313q0 165 -117 294t-288 141h-27q-178 0 -305 -129t-127 -308zM719 1288l-180 277h194l121 -277h-135z" />
    <glyph glyph-name="oacute" unicode="&#xf3;" 
d="M51 612q0 123 47 236t127.5 196t190 136t231.5 63q8 0 24.5 1t24.5 1q134 0 255 -51.5t206 -138t134.5 -202.5t49.5 -241q0 -174 -85 -319t-230.5 -229t-318.5 -87h-11q-126 0 -243.5 48t-206 131t-142 202.5t-53.5 253.5zM264 612q0 -110 52.5 -208t144.5 -159.5
t201 -66.5q12 -2 38 -2q160 0 283 111l14 14q131 134 131 313q0 165 -117 294t-288 141h-27q-178 0 -305 -129t-127 -308zM547 1286l141 227h158l-197 -227h-102z" />
    <glyph glyph-name="ocircumflex" unicode="&#xf4;" 
d="M51 612q0 123 47 236t127.5 196t190 136t231.5 63q8 0 24.5 1t24.5 1q134 0 255 -51.5t206 -138t134.5 -202.5t49.5 -241q0 -174 -85 -319t-230.5 -229t-318.5 -87h-11q-126 0 -243.5 48t-206 131t-142 202.5t-53.5 253.5zM299 780q-35 -81 -35 -168q0 -110 52.5 -208
t144.5 -159.5t201 -66.5q12 -2 38 -2q160 0 283 111l14 14q131 134 131 313q0 165 -117 294t-288 141h-27q-132 0 -240.5 -74.5t-156.5 -194.5zM598 1288h-104l151 228h98l156 -228h-111l-92 150h-4z" />
    <glyph glyph-name="otilde" unicode="&#xf5;" 
d="M51 612q0 123 47 236t127.5 196t190 136t231.5 63q8 0 24.5 1t24.5 1q134 0 255 -51.5t206 -138t134.5 -202.5t49.5 -241q0 -174 -85 -319t-230.5 -229t-318.5 -87h-11q-126 0 -243.5 48t-206 131t-142 202.5t-53.5 253.5zM299 780q-35 -81 -35 -168q0 -110 52.5 -208
t144.5 -159.5t201 -66.5q12 -2 38 -2q160 0 283 111l14 14q131 134 131 313q0 165 -117 294t-288 141h-27q-132 0 -240.5 -74.5t-156.5 -194.5zM496 1288v10q0 72 28.5 114t81.5 42q42 0 101 -35q4 -2 14 -8t14.5 -8.5t12 -5.5t13.5 -4.5t13 -1.5q20 0 30.5 14.5t14.5 54.5
h76v-6q0 -154 -113 -154q-30 0 -98 31q-50 29 -70 29q-35 0 -41 -72h-77z" />
    <glyph glyph-name="odieresis" unicode="&#xf6;" 
d="M51 612q0 123 47 236t127.5 196t190 136t231.5 63q8 0 24.5 1t24.5 1q134 0 255 -51.5t206 -138t134.5 -202.5t49.5 -241q0 -174 -85 -319t-230.5 -229t-318.5 -87h-11q-126 0 -243.5 48t-206 131t-142 202.5t-53.5 253.5zM264 612q0 -110 52.5 -208t144.5 -159.5
t201 -66.5q12 -2 38 -2q160 0 283 111l14 14q131 134 131 313q0 165 -117 294t-288 141h-27q-178 0 -305 -129t-127 -308zM489 1313q-24 24 -24 57q0 35 23.5 57.5t58.5 22.5t57.5 -22.5t22.5 -57.5q0 -33 -23 -57.5t-57 -24.5q-36 0 -58 25zM788 1313q-22 25 -22 57
q0 35 22.5 57.5t57.5 22.5t57.5 -22.5t22.5 -57.5q0 -33 -23 -57.5t-57 -24.5q-36 0 -58 25z" />
    <glyph glyph-name="divide" unicode="&#xf7;" horiz-adv-x="1058" 
d="M946 569h-833v97h833v-97zM444 338q0 41 23.5 65.5t62.5 24.5q38 0 61 -24.5t23 -65.5q0 -38 -23 -62t-63 -24q-38 0 -61 24.5t-23 61.5zM444 895q0 38 24 63t62 25t61 -24.5t23 -63.5q0 -38 -23 -63t-63 -25q-38 0 -61 25t-23 63z" />
    <glyph glyph-name="oslash" unicode="&#xf8;" 
d="M106 354q-55 116 -55 258q0 123 47 236t127.5 196t190 136t231.5 63q8 0 24.5 1t24.5 1q166 0 299 -71l82 112h215l-155 -213q98 -92 151 -210t53 -251q0 -174 -85 -319t-230.5 -229t-318.5 -87h-17q-148 0 -295 72l-51 -72h-213l123 173q-97 88 -148 204zM264 612
q0 -169 113 -295l500 691q-75 35 -154 41h-27q-178 0 -305 -129t-127 -308zM516 215q70 -34 146 -37q12 -2 38 -2q160 0 283 111l14 14q131 134 131 313q-3 170 -112 291z" />
    <glyph glyph-name="ugrave" unicode="&#xf9;" horiz-adv-x="1269" 
d="M113 487v1393q13 -17 37.5 -55t33.5 -51q4 -6 18.5 -28t22.5 -32q14 -25 101 -151v-1076q0 -123 89 -213t220 -90q128 0 218.5 88t90.5 215v732h213v-732q0 -141 -70.5 -259t-190.5 -185.5t-261 -67.5q-217 0 -369.5 149.5t-152.5 362.5zM657 1288l-180 277h195l121 -277
h-136z" />
    <glyph glyph-name="uacute" unicode="&#xfa;" horiz-adv-x="1269" 
d="M113 487v1393q13 -17 37.5 -55t33.5 -51q4 -6 18.5 -28t22.5 -32q14 -25 101 -151v-1076q0 -123 89 -213t220 -90q128 0 218.5 88t90.5 215v732h213v-732q0 -141 -70.5 -259t-190.5 -185.5t-261 -67.5q-217 0 -369.5 149.5t-152.5 362.5zM485 1286l142 227h157l-196 -227
h-103z" />
    <glyph glyph-name="ucircumflex" unicode="&#xfb;" horiz-adv-x="1269" 
d="M113 487v1393q13 -17 37.5 -55t33.5 -51q4 -6 18.5 -28t22.5 -32q14 -25 101 -151v-1076q0 -123 89 -213t220 -90q128 0 218.5 88t90.5 215v732h213v-732q0 -141 -70.5 -259t-190.5 -185.5t-261 -67.5q-217 0 -369.5 149.5t-152.5 362.5zM432 1288l152 228h98l156 -228
h-111l-92 150h-4l-94 -150h-105z" />
    <glyph glyph-name="udieresis" unicode="&#xfc;" horiz-adv-x="1269" 
d="M113 1880q13 -17 37.5 -55t33.5 -51q4 -6 18.5 -28t22.5 -32q14 -25 101 -151v-1076q0 -123 89 -213t220 -90q128 0 218.5 88t90.5 215v732h213v-732q0 -141 -70.5 -259t-190.5 -185.5t-261 -67.5q-217 0 -369.5 149.5t-152.5 362.5v1393zM428 1313q-25 25 -25 57
q0 35 23.5 57.5t58.5 22.5t57.5 -22.5t22.5 -57.5q0 -33 -23 -57.5t-57 -24.5q-35 0 -57 25zM727 1313q-22 25 -22 57q0 35 22 57.5t57 22.5t57.5 -22.5t22.5 -57.5q0 -33 -23 -57.5t-57 -24.5q-35 0 -57 25z" />
    <glyph glyph-name="ydieresis" unicode="&#xff;" horiz-adv-x="1085" 
d="M436 496l-416 723h213l310 -537l186 324h-160l-116 213h612l-416 -723v-496h-213v496zM311 1370q0 35 23.5 57.5t58.5 22.5t57.5 -22.5t22.5 -57.5q0 -33 -23 -57.5t-57 -24.5q-35 0 -58.5 24.5t-23.5 57.5zM635 1313q-23 26 -23 57q0 35 22.5 57.5t57.5 22.5t57.5 -22.5
t22.5 -57.5q0 -33 -23 -57.5t-57 -24.5q-35 0 -57 25z" />
    <glyph glyph-name="OE" unicode="&#x152;" horiz-adv-x="2015" 
d="M51 612q0 123 47 236t127.5 196t190 136t231.5 63q8 0 24.5 1t24.5 1q243 0 432 -164v138h836l-61 -93q-73 -109 -82 -120h-621q107 -131 133 -297h525l-142 -211h-375v-285h625q0 -2 -2 -4l-139 -209h-697v139q-183 -159 -421 -162h-11q-126 0 -243.5 48t-206 131
t-142 202.5t-53.5 253.5zM264 612q0 -110 52.5 -208t144.5 -159.5t201 -66.5q12 -2 38 -2q160 0 283 111l14 14q131 134 131 313v17q-8 162 -122.5 284t-282.5 134h-27q-178 0 -305 -129t-127 -308z" />
    <glyph glyph-name="oe" unicode="&#x153;" horiz-adv-x="2017" 
d="M51 612q0 123 47 236t127.5 196t190 136t231.5 63q8 0 24.5 1t24.5 1q251 0 437 -168v142h835l-61 -93q-73 -109 -82 -120h-625q107 -131 133 -297h529l-142 -211h-374v-285h624q0 -2 -2 -4l-139 -209h-696v143q-180 -163 -426 -166h-11q-126 0 -243.5 48t-206 131
t-142 202.5t-53.5 253.5zM264 612q0 -110 52.5 -208t144.5 -159.5t201 -66.5q12 -2 38 -2q160 0 283 111l14 14q131 134 131 313q0 165 -117 294t-288 141h-27q-178 0 -305 -129t-127 -308z" />
    <glyph glyph-name="Ydieresis" unicode="&#x178;" horiz-adv-x="1085" 
d="M436 496l-416 723h213l310 -537l186 324h-160l-116 213h612l-416 -723v-496h-213v496zM311 1372q0 35 23.5 57.5t58.5 22.5t57.5 -22.5t22.5 -57.5q0 -33 -23 -57.5t-57 -24.5q-35 0 -58.5 24.5t-23.5 57.5zM635 1315q-23 26 -23 57q0 35 22.5 57.5t57.5 22.5t57.5 -22.5
t22.5 -57.5q0 -33 -23 -57.5t-57 -24.5q-35 0 -57 25z" />
    <glyph glyph-name="circumflex" unicode="&#x2c6;" horiz-adv-x="630" 
d="M113 1288l151 228h98l156 -228h-110l-93 150h-4l-94 -150h-104z" />
    <glyph glyph-name="caron" unicode="&#x2c7;" horiz-adv-x="634" 
d="M268 1288l-155 228h110l94 -152h5l94 152h106l-151 -228h-103z" />
    <glyph glyph-name="breve" unicode="&#x2d8;" horiz-adv-x="634" 
d="M268 1288l-155 228h110l94 -152h5l94 152h106l-151 -228h-103z" />
    <glyph glyph-name="dotaccent" unicode="&#x2d9;" horiz-adv-x="387" 
d="M113 1360q0 35 23.5 57.5t58.5 22.5t57 -22.5t22 -57.5q0 -33 -22.5 -57.5t-56.5 -24.5q-35 0 -58.5 24.5t-23.5 57.5z" />
    <glyph glyph-name="ring" unicode="&#x2da;" horiz-adv-x="655" 
d="M131 1307q-16 40 -16 77q0 92 62 152.5t153 60.5q96 0 154.5 -60.5t58.5 -143.5q0 -94 -64.5 -153.5t-152.5 -59.5q-69 0 -121 34.5t-74 92.5zM233 1481q-30 -47 -30 -97q0 -56 35.5 -92.5t89.5 -36.5q56 0 91.5 38t35.5 98q0 51 -32.5 92t-94.5 41q-65 0 -95 -43z" />
    <glyph glyph-name="tilde" unicode="&#x2dc;" horiz-adv-x="628" 
d="M115 1288v10q0 72 28.5 114t81.5 42q42 0 101 -35q4 -2 14 -8t14.5 -8.5t12 -5.5t13.5 -4.5t13 -1.5q20 0 30.5 14.5t14.5 54.5h76v-6q0 -154 -113 -154q-30 0 -98 31q-50 29 -70 29q-34 0 -40 -72h-78z" />
    <glyph glyph-name="hungarumlaut" unicode="&#x2dd;" horiz-adv-x="720" 
d="M422 1288h-103l142 228h157zM113 1288l141 228h158l-197 -228h-102z" />
    <glyph glyph-name="quoteleft" unicode="&#x2018;" horiz-adv-x="198" 
d="M2 1067v190q0 61 45 109q46 43 111 43q20 0 22 -2v-29q-71 -20 -71 -121h88v-190h-195z" />
    <glyph glyph-name="quoteright" unicode="&#x2019;" horiz-adv-x="198" 
d="M2 1409h195v-190q0 -61 -45 -109q-46 -43 -111 -43q-21 0 -23 2v29q72 20 72 121h-88v190z" />
    <glyph glyph-name="quotedblleft" unicode="&#x201c;" horiz-adv-x="423" 
d="M2 1257q0 61 45 109q46 43 111 43q20 0 22 -2v-29q-71 -20 -71 -121h88v-190h-195v190zM227 1257q0 61 45 109q46 43 111 43q21 0 23 -2v-29q-72 -20 -72 -121h88v-190h-195v190z" />
    <glyph glyph-name="quotedblright" unicode="&#x201d;" horiz-adv-x="423" 
d="M90 1219h-88v190h195v-190q0 -61 -45 -109q-46 -43 -111 -43q-21 0 -23 2v29q72 20 72 121zM227 1409h195v-190q0 -61 -45 -109q-46 -43 -111 -43q-20 0 -22 2v29q71 20 71 121h-88v190z" />
    <glyph glyph-name="dagger" unicode="&#x2020;" horiz-adv-x="620" 
d="M-4 498v190h233v483h162v-483h234v-190h-234v-432h-162v432h-233z" />
    <glyph glyph-name="Euro" unicode="&#x20ac;" horiz-adv-x="978" 
d="M51 610q0 100 12 189v75h13q85 369 413 369q170 0 270.5 -99t139.5 -270h16v-81q13 -93 13 -183q0 -92 -13 -188v-76h-14q-85 -369 -412 -369q-328 0 -413 369h-13v76q-12 89 -12 188zM262 653v-71q0 -31 2 -45h453l4 73v37q0 25 -2 39h-455q-2 -10 -2 -33zM360 989
q-47 -47 -67 -115h387q-12 38 -33 72q-29 47 -65.5 67.5t-92.5 20.5q-84 0 -129 -45zM682 346h-381q30 -104 88 -137q47 -27 94 -27q67 0 122.5 47t76.5 117z" />
    <glyph glyph-name="trademark" unicode="&#x2122;" horiz-adv-x="1435" 
d="M662 1223h112l217 -308l217 308h115v-648h-115v488q-95 -134 -108 -152q-29 -41 -53 -71h-117l-156 223v-488h-112v648zM307 1110h-194q5 7 15 21.5t15 21.5q39 61 47 70h453q-5 -7 -14.5 -22.5t-14.5 -22.5q-8 -13 -25 -37t-22 -31h-147v-535h-113v535z" />
    <glyph glyph-name="fi" unicode="&#xfb01;" horiz-adv-x="1376" 
d="M1051 1217h213v-1217h-213v1217zM326 0h-213v709h729l-142 -211h-374v-498zM113 1006v213h835q-10 -14 -20.5 -29.5t-21.5 -33t-17 -26.5q-16 -24 -46 -68t-38 -56h-692z" />
    <glyph glyph-name="fl" unicode="&#xfb02;" horiz-adv-x="1865" 
d="M1071 1219h213v-1004h561l-16 -25q-17 -27 -64.5 -99t-58.5 -89h-635v1217zM113 0v709h729l-142 -211h-374v-498h-213zM113 1006v213h835q-10 -14 -20.5 -29.5t-21.5 -33t-17 -26.5q-16 -24 -46 -68t-38 -56h-692z" />
    </font>
</defs>
</svg>
